<?xml version="1.0" standalone="yes"?>

<svg version="1.1" viewBox="0.0 0.0 641.1312335958005 627.3307086614174" fill="none" stroke="none" stroke-linecap="square" stroke-miterlimit="10" xmlns="http://www.w3.org/2000/svg" xmlns:xlink="http://www.w3.org/1999/xlink"><clipPath id="p.0"><path d="m0 0l641.1312 0l0 627.3307l-641.1312 0l0 -627.3307z" clip-rule="nonzero"></path></clipPath><g clip-path="url(#p.0)"><path fill="#000000" fill-opacity="0.0" d="m0 0l641.1312 0l0 627.3307l-641.1312 0z" fill-rule="evenodd"></path><path fill="#000000" fill-opacity="0.0" d="m8.433071 268.3724l342.2677 0l0 345.82675l-342.2677 0z" fill-rule="evenodd"></path><path stroke="#5effa9" stroke-width="1.0" stroke-linejoin="round" stroke-linecap="butt" stroke-dasharray="4.0,3.0" d="m8.433071 268.3724l342.2677 0l0 345.82675l-342.2677 0z" fill-rule="evenodd"></path><path fill="#fcfcfc" d="m30.698696 584.4736q0 0.5 -0.140625 0.921875q-0.125 0.40625 -0.359375 0.71875q-0.234375 0.296875 -0.578125 0.46875q-0.34375 0.15625 -0.734375 0.15625q-0.453125 0 -0.828125 -0.1875q-0.375 -0.203125 -0.640625 -0.5625q0.453125 -0.328125 0.71875 -0.875q0.265625 -0.546875 0.265625 -1.171875q0 -0.765625 -0.453125 -1.21875q-0.453125 -0.453125 -1.25 -0.453125q-0.484375 0 -0.890625 0.1875q-0.40625 0.171875 -0.703125 0.5q-0.28125 0.3125 -0.4375 0.765625q-0.15625 0.4375 -0.15625 0.96875q0 0.796875 0.390625 1.5q0.390625 0.703125 0.96875 1.390625q0.59375 0.671875 1.265625 1.375q0.6875 0.6875 1.265625 1.484375q0.59375 0.796875 0.96875 1.71875q0.390625 0.90625 0.390625 2.03125q0 1.171875 -0.5 2.1875q-0.484375 1.0 -1.359375 1.734375q-0.875 0.71875 -2.046875 1.140625q-1.171875 0.421875 -2.546875 0.421875q-1.15625 0 -2.09375 -0.3125q-0.921875 -0.296875 -1.59375 -0.84375q-0.65625 -0.5625 -1.015625 -1.328125q-0.359375 -0.78125 -0.359375 -1.734375q0 -0.796875 0.25 -1.484375q0.265625 -0.6875 0.703125 -1.1875q0.453125 -0.515625 1.0625 -0.8125q0.609375 -0.296875 1.296875 -0.296875q0.84375 0 1.421875 0.421875q0.578125 0.421875 0.71875 1.15625q-0.640625 0 -1.140625 0.1875q-0.5 0.171875 -0.859375 0.484375q-0.34375 0.3125 -0.546875 0.765625q-0.1875 0.453125 -0.1875 1.015625q0 1.0625 0.609375 1.671875q0.625 0.609375 1.65625 0.609375q0.640625 0 1.171875 -0.21875q0.546875 -0.234375 0.921875 -0.625q0.390625 -0.40625 0.609375 -0.953125q0.234375 -0.546875 0.234375 -1.203125q0 -0.65625 -0.21875 -1.25q-0.21875 -0.609375 -0.578125 -1.171875q-0.359375 -0.578125 -0.828125 -1.125q-0.453125 -0.546875 -0.9375 -1.09375q-0.46875 -0.5625 -0.9375 -1.125q-0.453125 -0.5625 -0.8125 -1.15625q-0.359375 -0.59375 -0.578125 -1.21875q-0.21875 -0.640625 -0.21875 -1.34375q0 -0.953125 0.40625 -1.75q0.40625 -0.8125 1.125 -1.390625q0.71875 -0.59375 1.703125 -0.921875q0.984375 -0.328125 2.140625 -0.328125q0.96875 0 1.75 0.234375q0.796875 0.234375 1.34375 0.6875q0.5625 0.4375 0.859375 1.0625q0.3125 0.609375 0.3125 1.375zm7.8320312 10.46875q-0.34375 0.96875 -0.765625 1.6875q-0.40625 0.703125 -0.859375 1.203125q-0.453125 0.484375 -0.9375 0.796875q-0.46875 0.296875 -0.921875 0.46875q-0.4375 0.171875 -0.84375 0.21875q-0.390625 0.0625 -0.71875 0.0625q-0.53125 0 -1.0 -0.15625q-0.46875 -0.171875 -0.8125 -0.515625q-0.34375 -0.359375 -0.546875 -0.890625q-0.203125 -0.546875 -0.203125 -1.3125q0 -0.328125 0.046875 -0.71875q0.046875 -0.390625 0.140625 -0.84375l2.5625 -12.03125l3.5625 -0.484375l-2.765625 12.96875q-0.046875 0.203125 -0.078125 0.390625q-0.015625 0.1875 -0.015625 0.375q0 0.515625 0.234375 0.703125q0.234375 0.1875 0.75 0.1875q0.34375 0 0.671875 -0.15625q0.34375 -0.15625 0.625 -0.4375q0.28125 -0.28125 0.5 -0.671875q0.21875 -0.390625 0.359375 -0.84375l1.015625 0zm12.613281 0q-0.328125 0.96875 -0.734375 1.6875q-0.390625 0.703125 -0.828125 1.203125q-0.421875 0.484375 -0.875 0.796875q-0.4375 0.296875 -0.859375 0.46875q-0.421875 0.171875 -0.8125 0.21875q-0.390625 0.0625 -0.703125 0.0625q-1.015625 0 -1.625 -0.546875q-0.59375 -0.5625 -0.734375 -1.65625q-0.28125 0.40625 -0.640625 0.796875q-0.34375 0.390625 -0.78125 0.703125q-0.4375 0.3125 -0.96875 0.515625q-0.53125 0.1875 -1.171875 0.1875q-0.625 0 -1.203125 -0.203125q-0.578125 -0.203125 -1.03125 -0.65625q-0.4375 -0.453125 -0.703125 -1.1875q-0.265625 -0.75 -0.265625 -1.8125q0 -0.8125 0.171875 -1.75q0.15625 -0.9375 0.484375 -1.875q0.34375 -0.9375 0.859375 -1.796875q0.515625 -0.875 1.1875 -1.53125q0.6875 -0.65625 1.546875 -1.046875q0.875 -0.40625 1.921875 -0.40625q1.015625 0 1.484375 0.359375q0.46875 0.34375 0.46875 0.859375l0 0.1875l0.25 -1.28125l3.453125 0l-1.71875 8.15625q-0.0625 0.203125 -0.09375 0.390625q-0.015625 0.1875 -0.015625 0.375q0 1.03125 0.984375 1.03125q0.359375 0 0.65625 -0.171875q0.296875 -0.1875 0.546875 -0.484375q0.25 -0.3125 0.4375 -0.71875q0.1875 -0.421875 0.3125 -0.875l1.0 0zm-6.046875 -5.421875q0 -0.109375 -0.046875 -0.265625q-0.046875 -0.15625 -0.15625 -0.296875q-0.109375 -0.15625 -0.296875 -0.25q-0.1875 -0.09375 -0.484375 -0.09375q-0.5 0 -0.953125 0.328125q-0.453125 0.328125 -0.828125 0.875q-0.375 0.53125 -0.671875 1.234375q-0.28125 0.6875 -0.484375 1.421875q-0.203125 0.734375 -0.3125 1.4375q-0.109375 0.703125 -0.109375 1.265625q0 0.703125 0.125 1.078125q0.140625 0.375 0.3125 0.5625q0.1875 0.171875 0.390625 0.203125q0.21875 0.03125 0.375 0.03125q0.28125 0 0.578125 -0.125q0.296875 -0.140625 0.5625 -0.40625q0.28125 -0.265625 0.5 -0.65625q0.234375 -0.40625 0.359375 -0.921875l1.140625 -5.421875zm15.074219 5.421875q-0.5 0.84375 -1.15625 1.640625q-0.640625 0.796875 -1.46875 1.421875q-0.8125 0.609375 -1.796875 1.0q-0.984375 0.375 -2.171875 0.375q-0.859375 0 -1.546875 -0.21875q-0.6875 -0.21875 -1.1875 -0.671875q-0.484375 -0.453125 -0.75 -1.171875q-0.265625 -0.734375 -0.265625 -1.75q0 -0.6875 0.140625 -1.59375q0.140625 -0.90625 0.453125 -1.859375q0.3125 -0.953125 0.796875 -1.859375q0.5 -0.921875 1.21875 -1.625q0.734375 -0.71875 1.671875 -1.15625q0.953125 -0.453125 2.171875 -0.453125q0.796875 0 1.3125 0.203125q0.515625 0.1875 0.8125 0.5q0.3125 0.3125 0.421875 0.71875q0.125 0.390625 0.125 0.78125q0 0.453125 -0.109375 0.78125q-0.09375 0.3125 -0.265625 0.546875q-0.171875 0.21875 -0.40625 0.328125q-0.234375 0.09375 -0.5 0.09375q-0.40625 0 -0.84375 -0.28125q0.296875 -0.765625 0.296875 -1.421875q0 -0.4375 -0.171875 -0.703125q-0.15625 -0.28125 -0.5 -0.28125q-0.375 0 -0.75 0.34375q-0.375 0.34375 -0.71875 0.90625q-0.34375 0.5625 -0.640625 1.296875q-0.28125 0.71875 -0.5 1.5q-0.21875 0.78125 -0.34375 1.5625q-0.125 0.78125 -0.125 1.453125q0 0.609375 0.109375 1.0q0.109375 0.390625 0.328125 0.625q0.21875 0.21875 0.53125 0.3125q0.328125 0.078125 0.765625 0.078125q0.71875 0 1.296875 -0.1875q0.578125 -0.1875 1.078125 -0.515625q0.515625 -0.328125 0.953125 -0.765625q0.453125 -0.453125 0.921875 -0.953125l0.8125 0zm12.617184 0q-0.5 1.5 -1.109375 2.390625q-0.59375 0.890625 -1.203125 1.34375q-0.59375 0.4375 -1.15625 0.5625q-0.546875 0.140625 -0.9375 0.140625q-1.5 0 -2.265625 -0.703125q-0.765625 -0.71875 -0.765625 -2.03125q0 -0.5625 0.140625 -1.25l0.203125 -0.9375q0.0625 -0.234375 0.078125 -0.453125q0.015625 -0.234375 0.015625 -0.421875q0 -0.53125 -0.1875 -0.84375q-0.1875 -0.328125 -0.6875 -0.328125q-0.40625 0 -0.84375 0.25q-0.4218712 0.234375 -0.9218712 0.640625l-1.25 5.9375l-3.46875 0l3.484375 -16.328125l3.5624962 -0.484375l-1.7968712 8.453125l4.624996 -3.640625l2.375 0l-4.796875 3.34375q0.390625 -0.109375 0.796875 -0.109375q0.671875 0 1.15625 0.21875q0.5 0.21875 0.828125 0.609375q0.328125 0.390625 0.484375 0.90625q0.171875 0.5 0.171875 1.078125q0 0.21875 -0.03125 0.453125q-0.015625 0.21875 -0.0625 0.453125l-0.28125 1.203125q-0.046875 0.203125 -0.078125 0.390625q-0.03125 0.1875 -0.03125 0.375q0 0.375 0.1875 0.640625q0.1875 0.25 0.75 0.25q0.390625 0 0.671875 -0.140625q0.296875 -0.15625 0.53125 -0.4375q0.234375 -0.28125 0.421875 -0.671875q0.203125 -0.390625 0.390625 -0.859375l1.0 0zm17.824219 0q-0.328125 0.96875 -0.734375 1.6875q-0.390625 0.703125 -0.828125 1.203125q-0.421875 0.484375 -0.875 0.796875q-0.4375 0.296875 -0.859375 0.46875q-0.421875 0.171875 -0.8125 0.21875q-0.390625 0.0625 -0.703125 0.0625q-1.015625 0 -1.625 -0.546875q-0.59375 -0.5625 -0.734375 -1.65625q-0.28125 0.40625 -0.640625 0.796875q-0.34375 0.390625 -0.78125 0.703125q-0.4375 0.3125 -0.96875 0.515625q-0.53125 0.1875 -1.171875 0.1875q-0.625 0 -1.203125 -0.203125q-0.578125 -0.203125 -1.03125 -0.65625q-0.4375 -0.453125 -0.703125 -1.1875q-0.265625 -0.75 -0.265625 -1.8125q0 -0.8125 0.171875 -1.75q0.15625 -0.9375 0.484375 -1.875q0.34375 -0.9375 0.859375 -1.796875q0.515625 -0.875 1.1875 -1.53125q0.6875 -0.65625 1.546875 -1.046875q0.875 -0.40625 1.921875 -0.40625q1.015625 0 1.484375 0.359375q0.46875 0.34375 0.46875 0.859375l0 0.1875l0.25 -1.28125l3.453125 0l-1.71875 8.15625q-0.0625 0.203125 -0.09375 0.390625q-0.015625 0.1875 -0.015625 0.375q0 1.03125 0.984375 1.03125q0.359375 0 0.65625 -0.171875q0.296875 -0.1875 0.546875 -0.484375q0.25 -0.3125 0.4375 -0.71875q0.1875 -0.421875 0.3125 -0.875l1.0 0zm-6.046875 -5.421875q0 -0.109375 -0.046875 -0.265625q-0.046875 -0.15625 -0.15625 -0.296875q-0.109375 -0.15625 -0.296875 -0.25q-0.1875 -0.09375 -0.484375 -0.09375q-0.5 0 -0.953125 0.328125q-0.453125 0.328125 -0.828125 0.875q-0.375 0.53125 -0.671875 1.234375q-0.28125 0.6875 -0.484375 1.421875q-0.203125 0.734375 -0.3125 1.4375q-0.109375 0.703125 -0.109375 1.265625q0 0.703125 0.125 1.078125q0.140625 0.375 0.3125 0.5625q0.1875 0.171875 0.390625 0.203125q0.21875 0.03125 0.375 0.03125q0.28125 0 0.578125 -0.125q0.296875 -0.140625 0.5625 -0.40625q0.28125 -0.265625 0.5 -0.65625q0.234375 -0.40625 0.359375 -0.921875l1.140625 -5.421875zm2.8554688 15.71875l4.015625 -18.890625l3.453125 0l-0.375 1.796875q0.515625 -0.4375 1.1875 -0.734375q0.6875 -0.296875 1.609375 -0.296875q0.609375 0 1.140625 0.203125q0.546875 0.1875 0.9375 0.625q0.390625 0.4375 0.609375 1.171875q0.234375 0.71875 0.234375 1.796875q0 0.796875 -0.109375 1.75q-0.109375 0.9375 -0.375 1.890625q-0.265625 0.9375 -0.71875 1.8125q-0.4375 0.875 -1.09375 1.546875q-0.65625 0.65625 -1.546875 1.0625q-0.890625 0.40625 -2.0625 0.40625q-0.453125 0 -0.796875 -0.078125q-0.328125 -0.0625 -0.578125 -0.171875q-0.234375 -0.125 -0.390625 -0.28125q-0.15625 -0.15625 -0.265625 -0.328125l-1.25 5.859375l-3.625 0.859375zm5.265625 -8.5q0.0625 0.203125 0.28125 0.375q0.21875 0.171875 0.625 0.171875q0.640625 0 1.125 -0.3125q0.5 -0.328125 0.875 -0.859375q0.375 -0.53125 0.625 -1.203125q0.265625 -0.6875 0.421875 -1.40625q0.171875 -0.71875 0.234375 -1.40625q0.078125 -0.703125 0.078125 -1.265625q0 -0.6875 -0.125 -1.078125q-0.125 -0.40625 -0.3125 -0.609375q-0.171875 -0.203125 -0.390625 -0.25q-0.203125 -0.046875 -0.375 -0.046875q-0.40625 0 -0.859375 0.296875q-0.453125 0.296875 -0.796875 0.875l-1.40625 6.71875zm5.9609375 8.5l4.015625 -18.890625l3.453125 0l-0.375 1.796875q0.515625 -0.4375 1.1875 -0.734375q0.6875 -0.296875 1.609375 -0.296875q0.609375 0 1.140625 0.203125q0.546875 0.1875 0.9375 0.625q0.390625 0.4375 0.609375 1.171875q0.234375 0.71875 0.234375 1.796875q0 0.796875 -0.109375 1.75q-0.109375 0.9375 -0.375 1.890625q-0.265625 0.9375 -0.71875 1.8125q-0.4375 0.875 -1.09375 1.546875q-0.65625 0.65625 -1.546875 1.0625q-0.890625 0.40625 -2.0625 0.40625q-0.453125 0 -0.796875 -0.078125q-0.328125 -0.0625 -0.578125 -0.171875q-0.234375 -0.125 -0.390625 -0.28125q-0.15625 -0.15625 -0.265625 -0.328125l-1.25 5.859375l-3.625 0.859375zm5.265625 -8.5q0.0625 0.203125 0.28125 0.375q0.21875 0.171875 0.625 0.171875q0.640625 0 1.125 -0.3125q0.5 -0.328125 0.875 -0.859375q0.375 -0.53125 0.625 -1.203125q0.265625 -0.6875 0.421875 -1.40625q0.171875 -0.71875 0.234375 -1.40625q0.078125 -0.703125 0.078125 -1.265625q0 -0.6875 -0.125 -1.078125q-0.125 -0.40625 -0.3125 -0.609375q-0.171875 -0.203125 -0.390625 -0.25q-0.203125 -0.046875 -0.375 -0.046875q-0.40625 0 -0.859375 0.296875q-0.453125 0.296875 -0.796875 0.875l-1.40625 6.71875zm13.6171875 8.5l5.09375 -24.0l1.71875 0l-5.078125 24.0l-1.734375 0zm26.027351 -10.296875q-0.328125 0.96875 -0.734375 1.6875q-0.390625 0.703125 -0.828125 1.203125q-0.421875 0.484375 -0.875 0.796875q-0.4375 0.296875 -0.859375 0.46875q-0.421875 0.171875 -0.8125 0.21875q-0.390625 0.0625 -0.703125 0.0625q-1.015625 0 -1.625 -0.546875q-0.59375 -0.5625 -0.734375 -1.65625q-0.28125 0.40625 -0.640625 0.796875q-0.34375 0.390625 -0.78125 0.703125q-0.4375 0.3125 -0.96875 0.515625q-0.53125 0.1875 -1.171875 0.1875q-0.625 0 -1.203125 -0.203125q-0.578125 -0.203125 -1.03125 -0.65625q-0.4375 -0.453125 -0.703125 -1.1875q-0.265625 -0.75 -0.265625 -1.8125q0 -0.8125 0.171875 -1.75q0.15625 -0.9375 0.484375 -1.875q0.34375 -0.9375 0.859375 -1.796875q0.515625 -0.875 1.1875 -1.53125q0.6875 -0.65625 1.546875 -1.046875q0.875 -0.40625 1.921875 -0.40625q1.015625 0 1.484375 0.359375q0.46875 0.34375 0.46875 0.859375l0 0.1875l0.25 -1.28125l3.453125 0l-1.71875 8.15625q-0.0625 0.203125 -0.09375 0.390625q-0.015625 0.1875 -0.015625 0.375q0 1.03125 0.984375 1.03125q0.359375 0 0.65625 -0.171875q0.296875 -0.1875 0.546875 -0.484375q0.25 -0.3125 0.4375 -0.71875q0.1875 -0.421875 0.3125 -0.875l1.0 0zm-6.046875 -5.421875q0 -0.109375 -0.046875 -0.265625q-0.046875 -0.15625 -0.15625 -0.296875q-0.109375 -0.15625 -0.296875 -0.25q-0.1875 -0.09375 -0.484375 -0.09375q-0.5 0 -0.953125 0.328125q-0.453125 0.328125 -0.828125 0.875q-0.375 0.53125 -0.671875 1.234375q-0.28125 0.6875 -0.484375 1.421875q-0.203125 0.734375 -0.3125 1.4375q-0.109375 0.703125 -0.109375 1.265625q0 0.703125 0.125 1.078125q0.140625 0.375 0.3125 0.5625q0.1875 0.171875 0.390625 0.203125q0.21875 0.03125 0.375 0.03125q0.28125 0 0.578125 -0.125q0.296875 -0.140625 0.5625 -0.40625q0.28125 -0.265625 0.5 -0.65625q0.234375 -0.40625 0.359375 -0.921875l1.140625 -5.421875zm2.8554688 15.71875l4.015625 -18.890625l3.453125 0l-0.375 1.796875q0.515625 -0.4375 1.1875 -0.734375q0.6875 -0.296875 1.609375 -0.296875q0.609375 0 1.140625 0.203125q0.546875 0.1875 0.9375 0.625q0.390625 0.4375 0.609375 1.171875q0.234375 0.71875 0.234375 1.796875q0 0.796875 -0.109375 1.75q-0.109375 0.9375 -0.375 1.890625q-0.265625 0.9375 -0.71875 1.8125q-0.4375 0.875 -1.09375 1.546875q-0.65625 0.65625 -1.546875 1.0625q-0.890625 0.40625 -2.0625 0.40625q-0.453125 0 -0.796875 -0.078125q-0.328125 -0.0625 -0.578125 -0.171875q-0.234375 -0.125 -0.390625 -0.28125q-0.15625 -0.15625 -0.265625 -0.328125l-1.25 5.859375l-3.625 0.859375zm5.265625 -8.5q0.0625 0.203125 0.28125 0.375q0.21875 0.171875 0.625 0.171875q0.640625 0 1.125 -0.3125q0.5 -0.328125 0.875 -0.859375q0.375 -0.53125 0.625 -1.203125q0.265625 -0.6875 0.421875 -1.40625q0.171875 -0.71875 0.234375 -1.40625q0.078125 -0.703125 0.078125 -1.265625q0 -0.6875 -0.125 -1.078125q-0.125 -0.40625 -0.3125 -0.609375q-0.171875 -0.203125 -0.390625 -0.25q-0.203125 -0.046875 -0.375 -0.046875q-0.40625 0 -0.859375 0.296875q-0.453125 0.296875 -0.796875 0.875l-1.40625 6.71875zm14.0859375 -12.6875q0 0.390625 -0.15625 0.75q-0.15625 0.34375 -0.421875 0.59375q-0.265625 0.25 -0.609375 0.40625q-0.34375 0.140625 -0.734375 0.140625q-0.40625 0 -0.75 -0.140625q-0.34375 -0.15625 -0.609375 -0.40625q-0.25 -0.25 -0.40625 -0.59375q-0.140625 -0.359375 -0.140625 -0.75q0 -0.40625 0.140625 -0.75q0.15625 -0.34375 0.40625 -0.609375q0.265625 -0.265625 0.609375 -0.40625q0.34375 -0.15625 0.75 -0.15625q0.390625 0 0.734375 0.15625q0.34375 0.140625 0.609375 0.40625q0.265625 0.265625 0.421875 0.609375q0.15625 0.34375 0.15625 0.75zm1.484375 10.890625q-0.34375 0.96875 -0.765625 1.6875q-0.40625 0.703125 -0.859375 1.203125q-0.453125 0.484375 -0.9375 0.796875q-0.46875 0.296875 -0.921875 0.46875q-0.4375 0.171875 -0.84375 0.21875q-0.390625 0.0625 -0.71875 0.0625q-0.53125 0 -1.0 -0.15625q-0.46875 -0.171875 -0.8125 -0.515625q-0.34375 -0.359375 -0.546875 -0.890625q-0.203125 -0.546875 -0.203125 -1.3125q0 -0.328125 0.046875 -0.71875q0.046875 -0.390625 0.140625 -0.84375l1.625 -7.703125l3.46875 0l-1.734375 8.15625q-0.046875 0.203125 -0.078125 0.390625q-0.015625 0.1875 -0.015625 0.375q0 0.515625 0.234375 0.703125q0.234375 0.1875 0.75 0.1875q0.34375 0 0.671875 -0.15625q0.34375 -0.15625 0.625 -0.4375q0.28125 -0.28125 0.5 -0.671875q0.21875 -0.390625 0.359375 -0.84375l1.015625 0z" fill-rule="nonzero"></path><path fill="#000000" fill-opacity="0.0" d="m8.433071 10.716536l623.21265 0l0 257.29135l-623.21265 0z" fill-rule="evenodd"></path><path stroke="#5effa9" stroke-width="1.0" stroke-linejoin="round" stroke-linecap="butt" stroke-dasharray="4.0,3.0" d="m8.433071 10.716536l623.21265 0l0 257.29135l-623.21265 0z" fill-rule="evenodd"></path><path fill="#fcfcfc" d="m19.839321 42.756535l3.25 -15.265623l3.5625 -0.46875l-1.125 5.312498l0.140625 0q0.703125 0 1.328125 -0.3437481q0.640625 -0.359375 1.109375 -0.921875q0.46875 -0.5625 0.734375 -1.25q0.28125 -0.6875 0.28125 -1.375q0 -0.5 -0.1875 -0.953125q-0.171875 -0.46875 -0.546875 -0.828125q-0.375 -0.375 -0.984375 -0.59375q-0.59375 -0.21875 -1.453125 -0.21875q-0.703125 0 -1.421875 0.171875q-0.71875 0.15625 -1.390625 0.484375q-0.65625 0.3125 -1.25 0.796875q-0.578125 0.46875 -1.0 1.125q-0.421875 0.65625 -0.6875 1.46875q-0.25 0.8125 -0.25 1.796875q0 0.4531231 0.046875 0.7499981q0.0625 0.28125 0.125 0.453125q0.0625 0.171875 0.109375 0.265625q0.0625 0.09375 0.0625 0.15625q-1.21875 0 -1.890625 -0.484375q-0.671875 -0.5 -0.671875 -1.7187481q0 -0.828125 0.328125 -1.609375q0.328125 -0.796875 0.921875 -1.5q0.59375 -0.71875 1.40625 -1.3125q0.8125 -0.59375 1.78125 -1.015625q0.96875 -0.4375 2.046875 -0.671875q1.078125 -0.25 2.21875 -0.25q1.328125 0 2.28125 0.328125q0.96875 0.3125 1.59375 0.84375q0.625 0.53125 0.921875 1.21875q0.3125 0.6875 0.3125 1.421875q0 0.546875 -0.15625 1.09375q-0.140625 0.53125 -0.453125 1.03125q-0.296875 0.484375 -0.75 0.921875q-0.453125 0.4374981 -1.046875 0.7656231q0.78125 0.140625 1.3125 0.515625q0.546875 0.359375 0.875 0.890625q0.34375 0.515625 0.5 1.15625q0.15625 0.625 0.15625 1.3125q0 0.5625 -0.109375 1.3125q-0.109375 0.734375 -0.359375 1.5q-0.25 0.765625 -0.65625 1.515625q-0.390625 0.734375 -0.984375 1.3125q-0.578125 0.5625 -1.359375 0.90625q-0.78125 0.359375 -1.78125 0.359375q-0.390625 0 -0.8125 -0.078125q-0.421875 -0.0625 -0.765625 -0.265625q-0.34375 -0.1875 -0.578125 -0.53125q-0.21875 -0.359375 -0.21875 -0.90625q0 -0.296875 0.0625 -0.640625q0.078125 -0.34375 0.234375 -0.75q0.453125 0.484375 0.828125 0.671875q0.375 0.1875 0.796875 0.1875q0.65625 0 1.09375 -0.40625q0.453125 -0.421875 0.734375 -1.0625q0.28125 -0.640625 0.40625 -1.390625q0.125 -0.765625 0.125 -1.453125q0 -0.609375 -0.109375 -1.171875q-0.109375 -0.5625 -0.375 -0.96875q-0.265625 -0.421875 -0.703125 -0.65625q-0.421875 -0.25 -1.078125 -0.25q-0.15625 0 -0.46875 0.015625q-0.296875 0 -0.640625 0.0625l-1.96875 9.1875l-3.453125 0zm26.464844 -9.125q-0.703125 0.75 -1.8125 1.265625q-1.109375 0.515625 -2.4375 0.734375q-0.140625 1.65625 -0.640625 3.0q-0.5 1.328125 -1.265625 2.265625q-0.75 0.9375 -1.734375 1.453125q-0.984375 0.5 -2.09375 0.5q-0.828125 0 -1.546875 -0.203125q-0.703125 -0.203125 -1.21875 -0.65625q-0.5 -0.453125 -0.78125 -1.171875q-0.296875 -0.71875 -0.296875 -1.75q0 -0.703125 0.15625 -1.59375q0.140625 -0.90625 0.453125 -1.859375q0.328125 -0.953125 0.84375 -1.859375q0.515625 -0.90625 1.234375 -1.609375q0.734375 -0.7187481 1.6875 -1.1562481q0.96875 -0.453125 2.203125 -0.453125q3.078125 0 3.078125 3.843748l0 0.015625q0.0625 0.03125 0.109375 0.03125q0.0625 0 0.15625 0q0.421875 0 0.90625 -0.125q0.484375 -0.125 0.96875 -0.328125q0.5 -0.203125 0.96875 -0.453125q0.46875 -0.265625 0.859375 -0.546875l0.203125 0.65625zm-6.234375 2.0625q-0.375 -0.09375 -0.515625 -0.359375q-0.140625 -0.28125 -0.140625 -0.640625q0 -0.5 0.203125 -0.828125q0.21875 -0.328125 0.546875 -0.46875q-0.015625 -0.390625 -0.078125 -0.65625q-0.0625 -0.265625 -0.171875 -0.4375q-0.09375 -0.171875 -0.25 -0.234375q-0.15625 -0.07812309 -0.40625 -0.07812309q-0.4375 0 -0.84375 0.3437481q-0.390625 0.328125 -0.75 0.890625q-0.359375 0.546875 -0.65625 1.25q-0.296875 0.703125 -0.515625 1.453125q-0.203125 0.75 -0.328125 1.484375q-0.109375 0.734375 -0.109375 1.328125q0 0.609375 0.0625 0.984375q0.0625 0.375 0.203125 0.59375q0.15625 0.203125 0.390625 0.296875q0.234375 0.078125 0.578125 0.078125q0.4375 0 0.875 -0.390625q0.4375 -0.390625 0.8125 -1.046875q0.375 -0.671875 0.65625 -1.578125q0.296875 -0.921875 0.4375 -1.984375zm10.707031 2.765625q-0.34375 0.96875 -0.765625 1.6875q-0.40625 0.703125 -0.859375 1.203125q-0.453125 0.484375 -0.9375 0.796875q-0.46875 0.296875 -0.921875 0.46875q-0.4375 0.171875 -0.84375 0.21875q-0.390625 0.0625 -0.71875 0.0625q-0.53125 0 -1.0 -0.15625q-0.46875 -0.171875 -0.8125 -0.515625q-0.34375 -0.359375 -0.546875 -0.890625q-0.203125 -0.546875 -0.203125 -1.3125q0 -0.328125 0.046875 -0.71875q0.046875 -0.390625 0.140625 -0.84375l1.4375 -6.749998l-0.796875 0l0.203125 -0.953125l0.78125 0l0.734375 -3.3125l3.546875 -0.484375l-0.8125 3.796875l1.4375 0l-0.1875 0.953125l-1.4375 0l-1.546875 7.203123q-0.046875 0.203125 -0.078125 0.390625q-0.015625 0.1875 -0.015625 0.375q0 0.515625 0.234375 0.703125q0.234375 0.1875 0.75 0.1875q0.34375 0 0.671875 -0.15625q0.34375 -0.15625 0.625 -0.4375q0.28125 -0.28125 0.5 -0.671875q0.21875 -0.390625 0.359375 -0.84375l1.015625 0zm12.425781 0q-0.5 1.5 -1.109375 2.390625q-0.59375 0.890625 -1.203125 1.34375q-0.59375 0.4375 -1.15625 0.5625q-0.546875 0.140625 -0.9375 0.140625q-1.5 0 -2.265625 -0.703125q-0.765625 -0.71875 -0.765625 -2.03125q0 -0.5625 0.140625 -1.25l0.203125 -0.9375q0.0625 -0.234375 0.078125 -0.453125q0.015625 -0.234375 0.015625 -0.421875q0 -0.53125 -0.1875 -0.84375q-0.1875 -0.328125 -0.6875 -0.328125q-0.40625 0 -0.84375 0.25q-0.421875 0.234375 -0.921875 0.640625l-1.25 5.9375l-3.46875 0l3.484375 -16.328123l3.5625 -0.484375l-1.796875 8.453123l4.625 -3.640623l2.375 0l-4.796875 3.343748q0.390625 -0.109375 0.796875 -0.109375q0.671875 0 1.15625 0.21875q0.5 0.21875 0.828125 0.609375q0.328125 0.390625 0.484375 0.90625q0.171875 0.5 0.171875 1.078125q0 0.21875 -0.03125 0.453125q-0.015625 0.21875 -0.0625 0.453125l-0.28125 1.203125q-0.046875 0.203125 -0.078125 0.390625q-0.03125 0.1875 -0.03125 0.375q0 0.375 0.1875 0.640625q0.1875 0.25 0.75 0.25q0.390625 0 0.671875 -0.140625q0.296875 -0.15625 0.53125 -0.4375q0.234375 -0.28125 0.421875 -0.671875q0.203125 -0.390625 0.390625 -0.859375l1.0 0zm4.93359 -10.890623q0 0.390625 -0.15625 0.75q-0.15625 0.34375 -0.421875 0.59375q-0.265625 0.25 -0.609375 0.40625q-0.34375 0.140625 -0.734375 0.140625q-0.40625 0 -0.75 -0.140625q-0.34375 -0.15625 -0.609375 -0.40625q-0.25 -0.25 -0.40625 -0.59375q-0.140625 -0.359375 -0.140625 -0.75q0 -0.40625 0.140625 -0.75q0.15625 -0.34375 0.40625 -0.609375q0.265625 -0.265625 0.609375 -0.40625q0.34375 -0.15625 0.75 -0.15625q0.390625 0 0.734375 0.15625q0.34375 0.140625 0.609375 0.40625q0.265625 0.265625 0.421875 0.609375q0.15625 0.34375 0.15625 0.75zm1.484375 10.890623q-0.34375 0.96875 -0.765625 1.6875q-0.40625 0.703125 -0.859375 1.203125q-0.453125 0.484375 -0.9375 0.796875q-0.46875 0.296875 -0.921875 0.46875q-0.4375 0.171875 -0.84375 0.21875q-0.390625 0.0625 -0.71875 0.0625q-0.53125 0 -0.9999962 -0.15625q-0.46875 -0.171875 -0.8125 -0.515625q-0.34375 -0.359375 -0.546875 -0.890625q-0.203125 -0.546875 -0.203125 -1.3125q0 -0.328125 0.046875 -0.71875q0.046875 -0.390625 0.140625 -0.84375l1.625 -7.703123l3.4687462 0l-1.734375 8.156248q-0.046875 0.203125 -0.078125 0.390625q-0.015625 0.1875 -0.015625 0.375q0 0.515625 0.234375 0.703125q0.234375 0.1875 0.75 0.1875q0.34375 0 0.671875 -0.15625q0.34375 -0.15625 0.625 -0.4375q0.28125 -0.28125 0.5 -0.671875q0.21875 -0.390625 0.359375 -0.84375l1.015625 0zm6.4101562 0q-0.34375 0.96875 -0.765625 1.6875q-0.40625 0.703125 -0.859375 1.203125q-0.453125 0.484375 -0.9375 0.796875q-0.46875 0.296875 -0.921875 0.46875q-0.4375 0.171875 -0.84375 0.21875q-0.390625 0.0625 -0.71875 0.0625q-0.53125 0 -1.0 -0.15625q-0.46875 -0.171875 -0.8125 -0.515625q-0.34375 -0.359375 -0.546875 -0.890625q-0.203125 -0.546875 -0.203125 -1.3125q0 -0.328125 0.046875 -0.71875q0.046875 -0.390625 0.140625 -0.84375l1.4375 -6.749998l-0.796875 0l0.203125 -0.953125l0.78125 0l0.734375 -3.3125l3.546875 -0.484375l-0.8125 3.796875l1.4375 0l-0.1875 0.953125l-1.4375 0l-1.546875 7.203123q-0.046875 0.203125 -0.078125 0.390625q-0.015625 0.1875 -0.015625 0.375q0 0.515625 0.234375 0.703125q0.234375 0.1875 0.75 0.1875q0.34375 0 0.671875 -0.15625q0.34375 -0.15625 0.625 -0.4375q0.28125 -0.28125 0.5 -0.671875q0.21875 -0.390625 0.359375 -0.84375l1.015625 0zm16.957031 -13.062498q-0.953125 0.5625 -1.796875 1.421875q-0.828125 0.859375 -1.546875 1.953125q-0.71875 1.09375 -1.296875 2.390625q-0.5625 1.2812481 -0.96875 2.718748q-0.390625 1.421875 -0.609375 2.953125q-0.21875 1.53125 -0.21875 3.078125q0 2.296875 0.453125 4.296875q0.46875 2.0 1.359375 3.546875l-0.796875 0.6875q-0.90625 -0.90625 -1.609375 -2.0q-0.6875 -1.078125 -1.171875 -2.296875q-0.46875 -1.21875 -0.71875 -2.5625q-0.25 -1.34375 -0.25 -2.765625q0 -2.28125 0.625 -4.453125q0.640625 -2.171875 1.796875 -4.046873q1.15625 -1.890625 2.78125 -3.390625q1.640625 -1.515625 3.65625 -2.484375l0.3125 0.953125zm10.847656 13.062498q-0.5 1.46875 -1.078125 2.359375q-0.578125 0.875 -1.171875 1.34375q-0.59375 0.453125 -1.171875 0.59375q-0.5625 0.140625 -1.046875 0.140625q-0.796875 0 -1.34375 -0.21875q-0.53125 -0.234375 -0.859375 -0.609375q-0.328125 -0.390625 -0.46875 -0.875q-0.140625 -0.484375 -0.140625 -1.0q0 -0.609375 0.15625 -1.421875q0.171875 -0.828125 0.375 -1.671875q0.203125 -0.859375 0.375 -1.65625q0.171875 -0.796875 0.171875 -1.375q0 -1.234375 -0.875 -1.234375q-0.328125 0 -0.609375 0.1875q-0.28125 0.171875 -0.515625 0.46875q-0.234375 0.296875 -0.421875 0.703125q-0.1875 0.40625 -0.328125 0.859375l-1.625 7.703125l-3.46875 0l2.546875 -11.999998l3.46875 0l-0.265625 1.234375q0.390625 -0.421875 0.765625 -0.6875q0.390625 -0.265625 0.75 -0.40625q0.359375 -0.140625 0.671875 -0.1875q0.328125 -0.046875 0.609375 -0.046875q0.578125 0 1.0625 0.15625q0.5 0.140625 0.859375 0.46875q0.359375 0.328125 0.546875 0.8437481q0.203125 0.515625 0.203125 1.234375q0 0.484375 -0.09375 1.046875q-0.078125 0.546875 -0.203125 1.125q-0.125 0.578125 -0.28125 1.15625q-0.140625 0.578125 -0.28125 1.109375q-0.125 0.515625 -0.21875 0.96875q-0.078125 0.453125 -0.078125 0.796875q0 0.4375 0.203125 0.71875q0.203125 0.28125 0.765625 0.28125q0.375 0 0.671875 -0.140625q0.296875 -0.15625 0.53125 -0.4375q0.234375 -0.28125 0.421875 -0.671875q0.203125 -0.390625 0.390625 -0.859375l1.0 0zm12.4765625 -4.828125q-0.703125 0.75 -1.8125 1.265625q-1.109375 0.515625 -2.4375 0.734375q-0.140625 1.65625 -0.640625 3.0q-0.5 1.328125 -1.265625 2.265625q-0.75 0.9375 -1.734375 1.453125q-0.984375 0.5 -2.09375 0.5q-0.828125 0 -1.546875 -0.203125q-0.703125 -0.203125 -1.21875 -0.65625q-0.5 -0.453125 -0.78125 -1.171875q-0.296875 -0.71875 -0.296875 -1.75q0 -0.703125 0.15625 -1.59375q0.140625 -0.90625 0.453125 -1.859375q0.328125 -0.953125 0.84375 -1.859375q0.515625 -0.90625 1.234375 -1.609375q0.734375 -0.7187481 1.6875 -1.1562481q0.96875 -0.453125 2.203125 -0.453125q3.078125 0 3.078125 3.843748l0 0.015625q0.0625 0.03125 0.109375 0.03125q0.0625 0 0.15625 0q0.421875 0 0.90625 -0.125q0.484375 -0.125 0.96875 -0.328125q0.5 -0.203125 0.96875 -0.453125q0.46875 -0.265625 0.859375 -0.546875l0.203125 0.65625zm-6.234375 2.0625q-0.375 -0.09375 -0.515625 -0.359375q-0.140625 -0.28125 -0.140625 -0.640625q0 -0.5 0.203125 -0.828125q0.21875 -0.328125 0.546875 -0.46875q-0.015625 -0.390625 -0.078125 -0.65625q-0.0625 -0.265625 -0.171875 -0.4375q-0.09375 -0.171875 -0.25 -0.234375q-0.15625 -0.07812309 -0.40625 -0.07812309q-0.4375 0 -0.84375 0.3437481q-0.390625 0.328125 -0.75 0.890625q-0.359375 0.546875 -0.65625 1.25q-0.296875 0.703125 -0.515625 1.453125q-0.203125 0.75 -0.328125 1.484375q-0.109375 0.734375 -0.109375 1.328125q0 0.609375 0.0625 0.984375q0.0625 0.375 0.203125 0.59375q0.15625 0.203125 0.390625 0.296875q0.234375 0.078125 0.578125 0.078125q0.4375 0 0.875 -0.390625q0.4375 -0.390625 0.8125 -1.046875q0.375 -0.671875 0.65625 -1.578125q0.296875 -0.921875 0.4375 -1.984375zm16.894531 2.765625q-0.34375 0.96875 -0.75 1.671875q-0.390625 0.703125 -0.828125 1.1875q-0.421875 0.46875 -0.875 0.75q-0.4375 0.28125 -0.859375 0.4375q-0.421875 0.15625 -0.8125 0.203125q-0.375 0.046875 -0.6875 0.046875q-1.0 0 -1.609375 -0.515625q-0.609375 -0.53125 -0.75 -1.546875q-0.265625 0.40625 -0.625 0.796875q-0.34375 0.390625 -0.78125 0.703125q-0.4375 0.3125 -0.984375 0.515625q-0.53125 0.1875 -1.15625 0.1875q-0.625 0 -1.203125 -0.203125q-0.578125 -0.203125 -1.03125 -0.65625q-0.4375 -0.453125 -0.703125 -1.1875q-0.265625 -0.75 -0.265625 -1.8125q0 -0.8125 0.171875 -1.75q0.15625 -0.9375 0.484375 -1.875q0.34375 -0.9375 0.859375 -1.796875q0.515625 -0.875 1.1875 -1.53125q0.6875 -0.6562481 1.546875 -1.0468731q0.875 -0.40625 1.921875 -0.40625q1.015625 0 1.484375 0.359375q0.46875 0.34375 0.46875 0.859375l0 0.09375l1.171875 -5.515625l3.546875 -0.484375l-2.75 12.968748q-0.0625 0.203125 -0.09375 0.390625q-0.015625 0.1875 -0.015625 0.375q0 0.515625 0.234375 0.703125q0.25 0.1875 0.75 0.1875q0.34375 0 0.640625 -0.15625q0.3125 -0.15625 0.546875 -0.4375q0.234375 -0.28125 0.421875 -0.671875q0.1875 -0.390625 0.328125 -0.84375l1.015625 0zm-7.203125 0l1.171875 -5.5q-0.015625 -0.109375 -0.078125 -0.25q-0.046875 -0.140625 -0.15625 -0.265625q-0.09375 -0.140625 -0.28125 -0.21875q-0.1875 -0.09375 -0.46875 -0.09375q-0.5 0 -0.953125 0.328125q-0.453125 0.328125 -0.828125 0.875q-0.375 0.53125 -0.671875 1.234375q-0.28125 0.6875 -0.484375 1.421875q-0.203125 0.734375 -0.3125 1.4375q-0.109375 0.703125 -0.109375 1.265625q0 0.703125 0.125 1.078125q0.140625 0.375 0.3125 0.5625q0.1875 0.171875 0.390625 0.203125q0.21875 0.03125 0.375 0.03125q0.25 0 0.546875 -0.109375q0.296875 -0.125 0.578125 -0.375q0.28125 -0.25 0.5 -0.625q0.234375 -0.375 0.34375 -0.875l0 -0.125zm16.222664 0q-0.5 0.84375 -1.15625 1.640625q-0.640625 0.796875 -1.46875 1.421875q-0.8125 0.609375 -1.796875 1.0q-0.984375 0.375 -2.171875 0.375q-0.859375 0 -1.5468826 -0.21875q-0.6875 -0.21875 -1.1875 -0.671875q-0.484375 -0.453125 -0.75 -1.171875q-0.265625 -0.734375 -0.265625 -1.75q0 -0.6875 0.140625 -1.59375q0.140625 -0.90625 0.4375 -1.84375q0.3125 -0.953125 0.8125 -1.859375q0.5 -0.921875 1.2187576 -1.640625q0.71875 -0.7187481 1.671875 -1.1562481q0.96875 -0.453125 2.203125 -0.453125q0.796875 0 1.3125 0.203125q0.515625 0.1875 0.8125 0.515625q0.296875 0.3125 0.40625 0.734375q0.109375 0.4062481 0.109375 0.8437481q0 1.046875 -0.453125 1.953125q-0.453125 0.890625 -1.234375 1.5625q-0.765625 0.65625 -1.765625 1.078125q-0.984375 0.40625 -2.0625 0.46875q-0.03125 0.28125 -0.046875 0.515625q-0.015625 0.234375 -0.015625 0.453125q0 0.609375 0.109375 1.0q0.109375 0.390625 0.328125 0.625q0.21875 0.21875 0.53125 0.3125q0.328125 0.078125 0.765625 0.078125q0.71875 0 1.296875 -0.1875q0.578125 -0.1875 1.078125 -0.515625q0.515625 -0.328125 0.953125 -0.765625q0.453125 -0.453125 0.921875 -0.953125l0.8125 0zm-6.546875 -1.703125q0.671875 -0.046875 1.296875 -0.390625q0.640625 -0.34375 1.125 -0.875q0.484375 -0.546875 0.765625 -1.25q0.296875 -0.703125 0.296875 -1.453125q0 -0.4375 -0.140625 -0.703125q-0.125 -0.2812481 -0.46875 -0.2812481q-0.453125 0 -0.890625 0.4531231q-0.4375 0.4375 -0.828125 1.140625q-0.390625 0.703125 -0.6875 1.59375q-0.296875 0.875 -0.46875 1.765625zm7.8828125 7.921875q-0.25 1.296875 -0.75 2.09375q-0.484375 0.796875 -1.078125 1.234375q-0.59375 0.453125 -1.234375 0.59375q-0.65625 0.15625 -1.25 0.15625q-0.546875 0 -1.03125 -0.15625q-0.5 -0.140625 -0.859375 -0.421875q-0.375 -0.28125 -0.59375 -0.734375q-0.21875 -0.4375 -0.21875 -1.015625q0 -0.75 0.359375 -1.328125q0.359375 -0.5625 0.9375 -1.0q0.5625 -0.421875 1.265625 -0.734375q0.703125 -0.296875 1.375 -0.515625l2.578125 -12.093748l3.453125 0l-2.375 11.124998q0.546875 -0.1875 0.984375 -0.4375q0.453125 -0.265625 0.8125 -0.671875q0.375 -0.40625 0.671875 -0.96875q0.3125 -0.5625 0.5625 -1.34375l1.015625 0q-0.375 1.1875 -0.875 1.984375q-0.484375 0.796875 -1.0625 1.3125q-0.5625 0.5 -1.171875 0.78125q-0.59375 0.265625 -1.15625 0.40625l-0.359375 1.734375zm3.578125 -17.140623q0 0.40625 -0.15625 0.75q-0.15625 0.34375 -0.421875 0.59375q-0.25 0.25 -0.59375 0.40625q-0.34375 0.140625 -0.734375 0.140625q-0.40625 0 -0.75 -0.140625q-0.34375 -0.15625 -0.609375 -0.40625q-0.25 -0.25 -0.40625 -0.59375q-0.140625 -0.34375 -0.140625 -0.75q0 -0.390625 0.140625 -0.734375q0.15625 -0.359375 0.40625 -0.609375q0.265625 -0.265625 0.609375 -0.421875q0.34375 -0.15625 0.75 -0.15625q0.390625 0 0.734375 0.15625q0.34375 0.15625 0.59375 0.421875q0.265625 0.25 0.421875 0.609375q0.15625 0.34375 0.15625 0.734375zm-6.90625 16.515623q-0.46875 0.1875 -0.890625 0.390625q-0.4375 0.203125 -0.75 0.4375q-0.328125 0.25 -0.515625 0.546875q-0.203125 0.3125 -0.203125 0.671875q0 0.125 0.046875 0.265625q0.046875 0.140625 0.15625 0.25q0.109375 0.125 0.265625 0.1875q0.140625 0.078125 0.359375 0.078125q0.375 0 0.765625 -0.53125q0.375 -0.515625 0.609375 -1.59375l0.15625 -0.703125zm17.109375 -5.59375q-0.9375 1.078125 -1.890625 1.796875q-0.9375 0.703125 -1.78125 1.203125q-0.375 0.390625 -0.84375 0.671875q-0.453125 0.265625 -0.953125 0.4375q-0.5 0.171875 -1.015625 0.25q-0.5 0.078125 -0.953125 0.078125q-0.90625 0 -1.578125 -0.265625q-0.65625 -0.28125 -1.09375 -0.71875q-0.421875 -0.453125 -0.625 -0.984375q-0.21875 -0.546875 -0.21875 -1.109375q0 -0.421875 0.125 -0.765625q0.109375 -0.359375 0.28125 -0.640625q0.171875 -0.28125 0.40625 -0.484375q0.234375 -0.21875 0.46875 -0.328125q1.015625 -1.8125 1.703125 -3.5625q0.6875 -1.765625 1.25 -3.546873l3.5625 -0.46875q0.0625 1.546875 0.125 2.703123q0.0625 1.140625 0.125 1.984375q0.0625 0.828125 0.109375 1.421875q0.046875 0.578125 0.078125 1.03125q0.046875 0.453125 0.0625 0.828125q0.015625 0.359375 0.015625 0.75q0 0.28125 -0.015625 0.5q-0.015625 0.21875 -0.078125 0.421875q0.53125 -0.3125 0.953125 -0.609375q0.4375 -0.296875 0.78125 -0.59375l1.0 0zm-9.671875 0.859375q0 0.84375 0.328125 1.265625q0.34375 0.40625 1.140625 0.40625q0.40625 0 0.78125 -0.109375q0.375 -0.109375 0.65625 -0.375q0.296875 -0.265625 0.46875 -0.6875q0.1875 -0.421875 0.1875 -1.046875q0 -0.3125 -0.03125 -0.59375q-0.015625 -0.28125 -0.046875 -0.609375q-0.015625 -0.328125 -0.0625 -0.71875q-0.03125 -0.40625 -0.09375 -0.921875q-0.046875 -0.53125 -0.109375 -1.21875q-0.046875 -0.703125 -0.125 -1.625q-0.359375 1.171875 -0.859375 2.28125q-0.484375 1.09375 -1.078125 2.25q0.234375 0.140625 0.390625 0.34375q0.15625 0.1875 0.15625 0.5q0 0.21875 -0.078125 0.4375q-0.0625 0.203125 -0.203125 0.375q-0.140625 0.171875 -0.34375 0.265625q-0.1875 0.09375 -0.421875 0.09375q-0.203125 0 -0.390625 -0.046875q-0.171875 -0.0625 -0.265625 -0.265625zm7.0234375 8.15625q0.9375 -0.546875 1.78125 -1.40625q0.84375 -0.859375 1.5625 -1.953125q0.71875 -1.09375 1.28125 -2.375q0.578125 -1.296875 0.96875 -2.71875q0.40625 -1.4375 0.625 -2.96875q0.21875 -1.53125 0.21875 -3.09375q0 -2.296873 -0.46875 -4.281248q-0.453125 -2.0 -1.34375 -3.53125l0.796875 -0.703125q0.90625 0.90625 1.59375 2.0q0.703125 1.078125 1.171875 2.3125q0.484375 1.21875 0.734375 2.5625q0.25 1.3281231 0.25 2.749998q0 2.28125 -0.640625 4.453125q-0.625 2.171875 -1.78125 4.0625q-1.15625 1.875 -2.796875 3.375q-1.625 1.515625 -3.640625 2.484375l-0.3125 -0.96875z" fill-rule="nonzero"></path><path fill="#3f3f3f" fill-opacity="0.8" d="m415.97375 38.22862l0 0c0 -7.5407944 6.1130066 -13.653816 13.653809 -13.653816l172.09393 0c3.6212158 0 7.094116 1.4385242 9.654724 3.9991112c2.560608 2.560587 3.9990845 6.033489 3.9990845 9.654705l0 54.61363c0 7.5407944 -6.112976 13.653816 -13.653809 13.653816l-172.09393 0c-7.540802 0 -13.653809 -6.113022 -13.653809 -13.653816z" fill-rule="evenodd"></path><path fill="#fcfcfc" d="m450.82285 72.45543l0 -0.984375l1.453125 0l0 -8.53125l-1.453125 0l0 -0.984375l9.140625 0l0 3.109375l-1.1875 0l0 -2.125l-4.96875 0l0 3.5625l3.265625 0l0 -1.234375l0.765625 0l0 3.515625l-0.765625 0l0 -1.25l-3.265625 0l0 3.9375l5.0625 0l0 -2.1875l1.1875 0l0 3.171875l-9.234375 0zm10.576691 0l0 -0.984375l1.09375 0l2.453125 -2.765625l-2.328125 -2.59375l-1.1875 0l0 -0.984375l3.6875 0l0 0.984375l-1.09375 0l1.671875 1.9375l1.6875 -1.9375l-1.109375 0l0 -0.984375l3.6875 0l0 0.984375l-1.3125 0l-2.25 2.53125l2.5 2.828125l1.09375 0l0 0.984375l-3.75 0l0 -0.984375l1.25 0l-1.875 -2.09375l-1.8125 2.09375l1.140625 0l0 0.984375l-3.546875 0zm12.6683655 0q-2.140625 0 -2.140625 -2.171875l0 -4.171875l-1.203125 0l0 -0.984375l1.203125 0l0 -2.5l1.390625 -0.546875l0 3.046875l1.9375 0l0 0.984375l-1.9375 0l0 4.109375q0 0.6875 0.21875 0.96875q0.234375 0.28125 0.765625 0.28125l1.125 0l0 0.984375l-1.359375 0zm9.849915 -3.375l-6.046875 0q0.125 1.171875 0.828125 1.859375q0.71875 0.671875 1.8125 0.671875q1.53125 0 2.78125 -1.171875l0.484375 0.84375q-0.53125 0.625 -1.359375 1.015625q-0.8125 0.375 -1.84375 0.375q-1.15625 0 -2.109375 -0.484375q-0.953125 -0.484375 -1.5 -1.359375q-0.53125 -0.890625 -0.53125 -2.03125q0 -1.15625 0.515625 -2.03125q0.515625 -0.890625 1.390625 -1.359375q0.890625 -0.484375 1.96875 -0.484375q1.6875 0 2.640625 1.03125q0.96875 1.015625 0.96875 2.765625l0 0.359375zm-1.375 -0.859375q0 -1.0625 -0.625 -1.671875q-0.625 -0.625 -1.609375 -0.625q-0.96875 0 -1.640625 0.625q-0.671875 0.609375 -0.796875 1.671875l4.671875 0zm7.3349304 -3.1875q0.71875 0 1.5 0.375l-0.34375 1.25q-0.625 -0.421875 -1.28125 -0.421875q-0.75 0 -1.25 0.609375q-0.484375 0.609375 -0.484375 1.671875l-0.015625 2.953125l1.296875 0l0 0.984375l-4.078125 0l0 -0.984375l1.421875 0l0 -5.359375l-1.421875 0l0 -0.984375l2.78125 0l0 1.34375q0.59375 -1.4375 1.875 -1.4375zm11.498169 6.4375l0 0.984375l-3.9375 0l0 -0.984375l1.21875 0l0 -3.828125q0 -0.765625 -0.375 -1.1875q-0.375 -0.4375 -1.03125 -0.4375q-0.546875 0 -1.09375 0.203125q-0.546875 0.1875 -1.203125 0.578125l0 4.671875l1.328125 0l0 0.984375l-4.109375 0l0 -0.984375l1.421875 0l0 -5.359375l-1.421875 0l0 -0.984375l2.78125 0l0 0.71875q1.453125 -0.90625 2.65625 -0.90625q1.046875 0 1.71875 0.640625q0.6875 0.640625 0.6875 1.796875l0 4.09375l1.359375 0zm8.270294 0l0 0.984375l-2.375 0l-0.078125 -0.65625q-0.59375 0.453125 -1.1875 0.65625q-0.59375 0.203125 -1.34375 0.203125q-1.125 0 -1.828125 -0.625q-0.6875 -0.625 -0.6875 -1.5625q0 -1.1875 0.796875 -1.734375q0.8125 -0.546875 2.140625 -0.546875q0.953125 0 2.03125 0.234375l0 -0.765625q0 -0.84375 -0.453125 -1.265625q-0.453125 -0.4375 -1.28125 -0.4375q-0.53125 0 -1.234375 0.1875q-0.703125 0.171875 -1.28125 0.484375l-0.40625 -0.890625q0.609375 -0.390625 1.421875 -0.59375q0.8125 -0.203125 1.53125 -0.203125q1.421875 0 2.25 0.703125q0.828125 0.6875 0.828125 1.890625l0 3.9375l1.15625 0zm-6.203125 -1.0625q0 0.578125 0.375 0.9375q0.390625 0.359375 1.046875 0.359375q1.09375 0 2.25 -0.796875l0 -1.6875q-0.984375 -0.21875 -1.9375 -0.21875q-0.75 0 -1.25 0.328125q-0.484375 0.328125 -0.484375 1.078125zm6.9759827 2.046875l0 -0.984375l1.359375 0l0 -8.734375l-1.3125 0l0 -0.96875l2.703125 0l0 9.703125l1.1875 0l0 0.984375l-3.9375 0zm13.7595215 0q-2.140625 0 -2.140625 -2.171875l0 -4.171875l-1.203125 0l0 -0.984375l1.203125 0l0 -2.5l1.390625 -0.546875l0 3.046875l1.9375 0l0 0.984375l-1.9375 0l0 4.109375q0 0.6875 0.21875 0.96875q0.234375 0.28125 0.765625 0.28125l1.125 0l0 0.984375l-1.359375 0zm7.2092896 -7.421875q0.71875 0 1.5 0.375l-0.34375 1.25q-0.625 -0.421875 -1.28125 -0.421875q-0.75 0 -1.25 0.609375q-0.484375 0.609375 -0.484375 1.671875l-0.015625 2.953125l1.296875 0l0 0.984375l-4.078125 0l0 -0.984375l1.421875 0l0 -5.359375l-1.421875 0l0 -0.984375l2.78125 0l0 1.34375q0.59375 -1.4375 1.875 -1.4375zm4.21698 -1.515625q-0.421875 0 -0.71875 -0.265625q-0.28125 -0.28125 -0.28125 -0.6875q0 -0.40625 0.28125 -0.671875q0.296875 -0.28125 0.71875 -0.28125q0.4375 0 0.71875 0.28125q0.296875 0.265625 0.296875 0.671875q0 0.40625 -0.296875 0.6875q-0.28125 0.265625 -0.71875 0.265625zm-1.921875 8.9375l0 -0.984375l1.421875 0l0 -5.359375l-1.40625 0l0 -0.984375l2.765625 0l0 6.34375l1.328125 0l0 0.984375l-4.109375 0zm13.965576 -7.328125l0 0.984375l-1.234375 0l0 6.515625q0 1.6875 -1.03125 2.5q-1.03125 0.828125 -2.734375 0.828125q-1.3125 0 -2.765625 -0.4375l0.28125 -1.078125q1.421875 0.421875 2.4375 0.421875q1.15625 0 1.78125 -0.53125q0.640625 -0.53125 0.640625 -1.609375l0 -1.015625q-0.515625 0.390625 -1.15625 0.609375q-0.640625 0.203125 -1.28125 0.203125q-1.046875 0 -1.90625 -0.453125q-0.859375 -0.46875 -1.359375 -1.328125q-0.484375 -0.859375 -0.484375 -2.015625q0 -1.1875 0.484375 -2.03125q0.484375 -0.859375 1.328125 -1.296875q0.859375 -0.4375 1.90625 -0.4375q0.625 0 1.296875 0.21875q0.671875 0.203125 1.15625 0.609375l0 -0.65625l2.640625 0zm-7.375 3.6875q0 1.25 0.71875 1.96875q0.734375 0.703125 1.875 0.703125q0.546875 0 1.109375 -0.1875q0.5625 -0.1875 1.046875 -0.546875l-0.015625 -4.03125q-0.53125 -0.34375 -1.140625 -0.546875q-0.609375 -0.21875 -1.15625 -0.21875q-1.09375 0 -1.765625 0.765625q-0.671875 0.75 -0.671875 2.09375zm16.945679 -3.6875l0 0.984375l-1.234375 0l0 6.515625q0 1.6875 -1.03125 2.5q-1.03125 0.828125 -2.734375 0.828125q-1.3125 0 -2.765625 -0.4375l0.28125 -1.078125q1.421875 0.421875 2.4375 0.421875q1.15625 0 1.78125 -0.53125q0.640625 -0.53125 0.640625 -1.609375l0 -1.015625q-0.515625 0.390625 -1.15625 0.609375q-0.640625 0.203125 -1.28125 0.203125q-1.046875 0 -1.90625 -0.453125q-0.859375 -0.46875 -1.359375 -1.328125q-0.484375 -0.859375 -0.484375 -2.015625q0 -1.1875 0.484375 -2.03125q0.484375 -0.859375 1.328125 -1.296875q0.859375 -0.4375 1.90625 -0.4375q0.625 0 1.296875 0.21875q0.671875 0.203125 1.15625 0.609375l0 -0.65625l2.640625 0zm-7.375 3.6875q0 1.25 0.71875 1.96875q0.734375 0.703125 1.875 0.703125q0.546875 0 1.109375 -0.1875q0.5625 -0.1875 1.046875 -0.546875l-0.015625 -4.03125q-0.53125 -0.34375 -1.140625 -0.546875q-0.609375 -0.21875 -1.15625 -0.21875q-1.09375 0 -1.765625 0.765625q-0.671875 0.75 -0.671875 2.09375zm15.508118 0.265625l-6.046875 0q0.125 1.171875 0.828125 1.859375q0.71875 0.671875 1.8125 0.671875q1.53125 0 2.78125 -1.171875l0.484375 0.84375q-0.53125 0.625 -1.359375 1.015625q-0.8125 0.375 -1.84375 0.375q-1.15625 0 -2.109375 -0.484375q-0.953125 -0.484375 -1.5 -1.359375q-0.53125 -0.890625 -0.53125 -2.03125q0 -1.15625 0.515625 -2.03125q0.515625 -0.890625 1.390625 -1.359375q0.890625 -0.484375 1.96875 -0.484375q1.6875 0 2.640625 1.03125q0.96875 1.015625 0.96875 2.765625l0 0.359375zm-1.375 -0.859375q0 -1.0625 -0.625 -1.671875q-0.625 -0.625 -1.609375 -0.625q-0.96875 0 -1.640625 0.625q-0.671875 0.609375 -0.796875 1.671875l4.671875 0zm7.334961 -3.1875q0.71875 0 1.5 0.375l-0.34375 1.25q-0.625 -0.421875 -1.28125 -0.421875q-0.75 0 -1.25 0.609375q-0.484375 0.609375 -0.484375 1.671875l-0.015625 2.953125l1.296875 0l0 0.984375l-4.078125 0l0 -0.984375l1.421875 0l0 -5.359375l-1.421875 0l0 -0.984375l2.78125 0l0 1.34375q0.59375 -1.4375 1.875 -1.4375zm6.716919 3.171875q0.859375 0.203125 1.375 0.4375q0.515625 0.234375 0.828125 0.6875q0.3125 0.4375 0.3125 1.1875q0 1.046875 -0.828125 1.59375q-0.8125 0.53125 -1.96875 0.53125q-0.703125 0 -1.34375 -0.21875q-0.625 -0.234375 -1.0 -0.609375l0 0.640625l-1.078125 0l0 -2.53125l0.96875 0l0.078125 0.796875q0.3125 0.46875 0.90625 0.71875q0.609375 0.25 1.28125 0.25q0.734375 0 1.203125 -0.28125q0.46875 -0.296875 0.46875 -0.78125q0 -0.5625 -0.359375 -0.796875q-0.359375 -0.25 -1.328125 -0.453125l-1.015625 -0.21875q-1.140625 -0.28125 -1.6875 -0.734375q-0.546875 -0.46875 -0.546875 -1.4375q0 -0.953125 0.75 -1.5q0.765625 -0.546875 1.96875 -0.546875q0.578125 0 1.171875 0.1875q0.609375 0.1875 0.96875 0.515625l0 -0.5625l1.09375 0l0 2.53125l-0.96875 0l-0.125 -0.921875q-0.28125 -0.328125 -0.828125 -0.546875q-0.546875 -0.21875 -1.09375 -0.21875q-0.65625 0 -1.109375 0.265625q-0.4375 0.265625 -0.4375 0.765625q0 0.40625 0.3125 0.640625q0.3125 0.21875 1.078125 0.40625l0.953125 0.203125zm1.328125 -1.140625l-0.015625 -0.03125l0.015625 0.03125zm-4.21875 3.1875q0 0.03125 0.015625 0.0625l-0.015625 -0.0625z" fill-rule="nonzero"></path><path fill="#3f3f3f" fill-opacity="0.8" d="m415.97375 162.07114l0 0c0 -7.5407867 6.1130066 -13.653809 13.653809 -13.653809l172.09393 0c3.6212158 0 7.094116 1.4385223 9.654724 3.9990997c2.560608 2.5605927 3.9990845 6.033493 3.9990845 9.654709l0 54.613632c0 7.5407867 -6.112976 13.653809 -13.653809 13.653809l-172.09393 0c-7.540802 0 -13.653809 -6.113022 -13.653809 -13.653809z" fill-rule="evenodd"></path><path fill="#fcfcfc" d="m469.33316 182.46982q-1.171875 3.0 -4.921875 3.03125q-1.625 0 -2.875 -0.6875q-1.25 -0.703125 -1.9375 -1.9375q-0.6875 -1.234375 -0.6875 -2.84375q0 -1.5625 0.671875 -2.796875q0.6875 -1.234375 1.9375 -1.921875q1.265625 -0.703125 2.90625 -0.703125q1.171875 0 2.109375 0.4375q0.9375 0.4375 1.453125 1.203125l0 -1.453125l1.125 0l0 3.171875l-1.015625 0.03125q-0.578125 -1.1875 -1.453125 -1.734375q-0.875 -0.546875 -2.140625 -0.546875q-1.21875 0 -2.140625 0.578125q-0.921875 0.5625 -1.4375 1.53125q-0.5 0.96875 -0.5 2.1875q0 1.3125 0.515625 2.296875q0.53125 0.984375 1.46875 1.53125q0.9375 0.53125 2.09375 0.53125q1.265625 0 2.265625 -0.59375q1.0 -0.59375 1.4375 -1.875l1.125 0.5625zm5.4845276 3.046875q-1.171875 0 -2.078125 -0.484375q-0.890625 -0.484375 -1.390625 -1.359375q-0.484375 -0.890625 -0.484375 -2.046875q0 -1.15625 0.484375 -2.03125q0.5 -0.875 1.390625 -1.34375q0.90625 -0.484375 2.078125 -0.484375q1.171875 0 2.078125 0.484375q0.90625 0.46875 1.40625 1.34375q0.5 0.875 0.5 2.015625q0 1.15625 -0.5 2.046875q-0.5 0.890625 -1.40625 1.375q-0.90625 0.484375 -2.078125 0.484375zm0 -1.078125q1.15625 0 1.859375 -0.765625q0.71875 -0.78125 0.71875 -2.0625q0 -1.25 -0.71875 -2.0q-0.703125 -0.765625 -1.859375 -0.765625q-1.15625 0 -1.84375 0.765625q-0.6875 0.765625 -0.6875 2.015625q0 1.265625 0.6875 2.046875q0.703125 0.765625 1.84375 0.765625zm14.067871 -0.125l0 0.984375l-3.9375 0l0 -0.984375l1.21875 0l0 -3.828125q0 -0.765625 -0.375 -1.1875q-0.375 -0.4375 -1.03125 -0.4375q-0.546875 0 -1.09375 0.203125q-0.546875 0.1875 -1.203125 0.578125l0 4.671875l1.328125 0l0 0.984375l-4.109375 0l0 -0.984375l1.421875 0l0 -5.359375l-1.421875 0l0 -0.984375l2.78125 0l0 0.71875q1.453125 -0.90625 2.65625 -0.90625q1.046875 0 1.71875 0.640625q0.6875 0.640625 0.6875 1.796875l0 4.09375l1.359375 0zm4.207794 0.984375l-2.796875 -6.34375l-1.25 0l0 -0.984375l3.921875 0l0 0.984375l-1.1875 0l2.046875 4.921875l2.03125 -4.921875l-1.171875 0l0 -0.984375l3.6875 0l0 0.984375l-1.171875 0l-2.859375 6.34375l-1.25 0zm13.370544 -3.375l-6.046875 0q0.125 1.171875 0.828125 1.859375q0.71875 0.671875 1.8125 0.671875q1.53125 0 2.78125 -1.171875l0.484375 0.84375q-0.53125 0.625 -1.359375 1.015625q-0.8125 0.375 -1.84375 0.375q-1.15625 0 -2.109375 -0.484375q-0.953125 -0.484375 -1.5 -1.359375q-0.53125 -0.890625 -0.53125 -2.03125q0 -1.15625 0.515625 -2.03125q0.515625 -0.890625 1.390625 -1.359375q0.890625 -0.484375 1.96875 -0.484375q1.6875 0 2.640625 1.03125q0.96875 1.015625 0.96875 2.765625l0 0.359375zm-1.375 -0.859375q0 -1.0625 -0.625 -1.671875q-0.625 -0.625 -1.609375 -0.625q-0.96875 0 -1.640625 0.625q-0.671875 0.609375 -0.796875 1.671875l4.671875 0zm7.3349304 -3.1875q0.71875 0 1.5 0.375l-0.34375 1.25q-0.625 -0.421875 -1.28125 -0.421875q-0.75 0 -1.25 0.609375q-0.484375 0.609375 -0.484375 1.671875l-0.015625 2.953125l1.296875 0l0 0.984375l-4.078125 0l0 -0.984375l1.421875 0l0 -5.359375l-1.421875 0l0 -0.984375l2.78125 0l0 1.34375q0.59375 -1.4375 1.875 -1.4375zm6.716919 3.171875q0.859375 0.203125 1.375 0.4375q0.515625 0.234375 0.828125 0.6875q0.3125 0.4375 0.3125 1.1875q0 1.046875 -0.828125 1.59375q-0.8125 0.53125 -1.96875 0.53125q-0.703125 0 -1.34375 -0.21875q-0.625 -0.234375 -1.0 -0.609375l0 0.640625l-1.078125 0l0 -2.53125l0.96875 0l0.078125 0.796875q0.3125 0.46875 0.90625 0.71875q0.609375 0.25 1.28125 0.25q0.734375 0 1.203125 -0.28125q0.46875 -0.296875 0.46875 -0.78125q0 -0.5625 -0.359375 -0.796875q-0.359375 -0.25 -1.328125 -0.453125l-1.015625 -0.21875q-1.140625 -0.28125 -1.6875 -0.734375q-0.546875 -0.46875 -0.546875 -1.4375q0 -0.953125 0.75 -1.5q0.765625 -0.546875 1.96875 -0.546875q0.578125 0 1.171875 0.1875q0.609375 0.1875 0.96875 0.515625l0 -0.5625l1.09375 0l0 2.53125l-0.96875 0l-0.125 -0.921875q-0.28125 -0.328125 -0.828125 -0.546875q-0.546875 -0.21875 -1.09375 -0.21875q-0.65625 0 -1.109375 0.265625q-0.4375 0.265625 -0.4375 0.765625q0 0.40625 0.3125 0.640625q0.3125 0.21875 1.078125 0.40625l0.953125 0.203125zm1.328125 -1.140625l-0.015625 -0.03125l0.015625 0.03125zm-4.21875 3.1875q0 0.03125 0.015625 0.0625l-0.015625 -0.0625zm14.356384 1.21875l0 0.984375l-2.375 0l-0.078125 -0.65625q-0.59375 0.453125 -1.1875 0.65625q-0.59375 0.203125 -1.34375 0.203125q-1.125 0 -1.828125 -0.625q-0.6875 -0.625 -0.6875 -1.5625q0 -1.1875 0.796875 -1.734375q0.8125 -0.546875 2.140625 -0.546875q0.953125 0 2.03125 0.234375l0 -0.765625q0 -0.84375 -0.453125 -1.265625q-0.453125 -0.4375 -1.28125 -0.4375q-0.53125 0 -1.234375 0.1875q-0.703125 0.171875 -1.28125 0.484375l-0.40625 -0.890625q0.609375 -0.390625 1.421875 -0.59375q0.8125 -0.203125 1.53125 -0.203125q1.421875 0 2.25 0.703125q0.828125 0.6875 0.828125 1.890625l0 3.9375l1.15625 0zm-6.203125 -1.0625q0 0.578125 0.375 0.9375q0.390625 0.359375 1.046875 0.359375q1.09375 0 2.25 -0.796875l0 -1.6875q-0.984375 -0.21875 -1.9375 -0.21875q-0.75 0 -1.25 0.328125q-0.484375 0.328125 -0.484375 1.078125zm10.194763 2.046875q-2.140625 0 -2.140625 -2.171875l0 -4.171875l-1.203125 0l0 -0.984375l1.203125 0l0 -2.5l1.390625 -0.546875l0 3.046875l1.9375 0l0 0.984375l-1.9375 0l0 4.109375q0 0.6875 0.21875 0.96875q0.234375 0.28125 0.765625 0.28125l1.125 0l0 0.984375l-1.359375 0zm4.2249146 -8.9375q-0.421875 0 -0.71875 -0.265625q-0.28125 -0.28125 -0.28125 -0.6875q0 -0.40625 0.28125 -0.671875q0.296875 -0.28125 0.71875 -0.28125q0.4375 0 0.71875 0.28125q0.296875 0.265625 0.296875 0.671875q0 0.40625 -0.296875 0.6875q-0.28125 0.265625 -0.71875 0.265625zm-1.921875 8.9375l0 -0.984375l1.421875 0l0 -5.359375l-1.40625 0l0 -0.984375l2.765625 0l0 6.34375l1.328125 0l0 0.984375l-4.109375 0zm8.996826 0.21875q-1.171875 0 -2.078125 -0.484375q-0.890625 -0.484375 -1.390625 -1.359375q-0.484375 -0.890625 -0.484375 -2.046875q0 -1.15625 0.484375 -2.03125q0.5 -0.875 1.390625 -1.34375q0.90625 -0.484375 2.078125 -0.484375q1.171875 0 2.078125 0.484375q0.90625 0.46875 1.40625 1.34375q0.5 0.875 0.5 2.015625q0 1.15625 -0.5 2.046875q-0.5 0.890625 -1.40625 1.375q-0.90625 0.484375 -2.078125 0.484375zm0 -1.078125q1.15625 0 1.859375 -0.765625q0.71875 -0.78125 0.71875 -2.0625q0 -1.25 -0.71875 -2.0q-0.703125 -0.765625 -1.859375 -0.765625q-1.15625 0 -1.84375 0.765625q-0.6875 0.765625 -0.6875 2.015625q0 1.265625 0.6875 2.046875q0.703125 0.765625 1.84375 0.765625zm14.067871 -0.125l0 0.984375l-3.9375 0l0 -0.984375l1.21875 0l0 -3.828125q0 -0.765625 -0.375 -1.1875q-0.375 -0.4375 -1.03125 -0.4375q-0.546875 0 -1.09375 0.203125q-0.546875 0.1875 -1.203125 0.578125l0 4.671875l1.328125 0l0 0.984375l-4.109375 0l0 -0.984375l1.421875 0l0 -5.359375l-1.421875 0l0 -0.984375l2.78125 0l0 0.71875q1.453125 -0.90625 2.65625 -0.90625q1.046875 0 1.71875 0.640625q0.6875 0.640625 0.6875 1.796875l0 4.09375l1.359375 0zm8.270264 0l0 0.984375l-2.375 0l-0.078125 -0.65625q-0.59375 0.453125 -1.1875 0.65625q-0.59375 0.203125 -1.34375 0.203125q-1.125 0 -1.828125 -0.625q-0.6875 -0.625 -0.6875 -1.5625q0 -1.1875 0.796875 -1.734375q0.8125 -0.546875 2.140625 -0.546875q0.953125 0 2.03125 0.234375l0 -0.765625q0 -0.84375 -0.453125 -1.265625q-0.453125 -0.4375 -1.28125 -0.4375q-0.53125 0 -1.234375 0.1875q-0.703125 0.171875 -1.28125 0.484375l-0.40625 -0.890625q0.609375 -0.390625 1.421875 -0.59375q0.8125 -0.203125 1.53125 -0.203125q1.421875 0 2.25 0.703125q0.828125 0.6875 0.828125 1.890625l0 3.9375l1.15625 0zm-6.203125 -1.0625q0 0.578125 0.375 0.9375q0.390625 0.359375 1.046875 0.359375q1.09375 0 2.25 -0.796875l0 -1.6875q-0.984375 -0.21875 -1.9375 -0.21875q-0.75 0 -1.25 0.328125q-0.484375 0.328125 -0.484375 1.078125zm6.976013 2.046875l0 -0.984375l1.359375 0l0 -8.734375l-1.3125 0l0 -0.96875l2.703125 0l0 9.703125l1.1875 0l0 0.984375l-3.9375 0z" fill-rule="nonzero"></path><path fill="#fcfcfc" d="m492.097 206.31357l0 0.984375l-3.9375 0l0 -0.984375l1.203125 0l0 -3.828125q0 -0.765625 -0.359375 -1.1875q-0.359375 -0.4375 -1.015625 -0.4375q-1.125 0 -2.421875 0.859375l0 4.59375l1.1875 0l0 0.984375l-3.9375 0l0 -0.984375l1.359375 0l0 -8.734375l-1.328125 0l0 -0.96875l2.71875 0l0 4.171875q1.515625 -1.0 2.765625 -1.0q1.03125 0 1.71875 0.640625q0.703125 0.640625 0.703125 1.796875l0 4.09375l1.34375 0zm8.454285 0l0 0.984375l-2.375 0l-0.078125 -0.65625q-0.59375 0.453125 -1.1875 0.65625q-0.59375 0.203125 -1.34375 0.203125q-1.125 0 -1.828125 -0.625q-0.6875 -0.625 -0.6875 -1.5625q0 -1.1875 0.796875 -1.734375q0.8125 -0.546875 2.140625 -0.546875q0.953125 0 2.03125 0.234375l0 -0.765625q0 -0.84375 -0.453125 -1.265625q-0.453125 -0.4375 -1.28125 -0.4375q-0.53125 0 -1.234375 0.1875q-0.703125 0.171875 -1.28125 0.484375l-0.40625 -0.890625q0.609375 -0.390625 1.421875 -0.59375q0.8125 -0.203125 1.53125 -0.203125q1.421875 0 2.25 0.703125q0.828125 0.6875 0.828125 1.890625l0 3.9375l1.15625 0zm-6.203125 -1.0625q0 0.578125 0.375 0.9375q0.390625 0.359375 1.046875 0.359375q1.09375 0 2.25 -0.796875l0 -1.6875q-0.984375 -0.21875 -1.9375 -0.21875q-0.75 0 -1.25 0.328125q-0.484375 0.328125 -0.484375 1.078125zm16.085388 1.0625l0 0.984375l-3.9375 0l0 -0.984375l1.21875 0l0 -3.828125q0 -0.765625 -0.375 -1.1875q-0.375 -0.4375 -1.03125 -0.4375q-0.546875 0 -1.09375 0.203125q-0.546875 0.1875 -1.203125 0.578125l0 4.671875l1.328125 0l0 0.984375l-4.109375 0l0 -0.984375l1.421875 0l0 -5.359375l-1.421875 0l0 -0.984375l2.78125 0l0 0.71875q1.453125 -0.90625 2.65625 -0.90625q1.046875 0 1.71875 0.640625q0.6875 0.640625 0.6875 1.796875l0 4.09375l1.359375 0zm9.176514 0l0 0.984375l-2.53125 0l0 -0.515625q-1.03125 0.71875 -2.34375 0.71875q-1.015625 0 -1.875 -0.46875q-0.859375 -0.46875 -1.375 -1.34375q-0.5 -0.890625 -0.5 -2.0625q0 -1.203125 0.484375 -2.078125q0.5 -0.875 1.3125 -1.3125q0.828125 -0.453125 1.8125 -0.453125q0.625 0 1.28125 0.203125q0.65625 0.1875 1.203125 0.5625l0 -2.96875l-1.3125 0l0 -0.96875l2.6875 0l0 9.703125l1.15625 0zm-7.1875 -2.578125q0 1.265625 0.734375 2.0q0.75 0.71875 1.890625 0.71875q1.0625 0 2.03125 -0.671875l0 -4.25q-0.53125 -0.328125 -1.109375 -0.515625q-0.578125 -0.1875 -1.09375 -0.1875q-1.109375 0 -1.78125 0.765625q-0.671875 0.765625 -0.671875 2.140625zm8.117554 3.5625l0 -0.984375l1.359375 0l0 -8.734375l-1.3125 0l0 -0.96875l2.703125 0l0 9.703125l1.1875 0l0 0.984375l-3.9375 0zm12.303772 -3.375l-6.046875 0q0.125 1.171875 0.828125 1.859375q0.71875 0.671875 1.8125 0.671875q1.53125 0 2.78125 -1.171875l0.484375 0.84375q-0.53125 0.625 -1.359375 1.015625q-0.8125 0.375 -1.84375 0.375q-1.15625 0 -2.109375 -0.484375q-0.953125 -0.484375 -1.5 -1.359375q-0.53125 -0.890625 -0.53125 -2.03125q0 -1.15625 0.515625 -2.03125q0.515625 -0.890625 1.390625 -1.359375q0.890625 -0.484375 1.96875 -0.484375q1.6875 0 2.640625 1.03125q0.96875 1.015625 0.96875 2.765625l0 0.359375zm-1.375 -0.859375q0 -1.0625 -0.625 -1.671875q-0.625 -0.625 -1.609375 -0.625q-0.96875 0 -1.640625 0.625q-0.671875 0.609375 -0.796875 1.671875l4.671875 0zm7.3349 -3.1875q0.71875 0 1.5 0.375l-0.34375 1.25q-0.625 -0.421875 -1.28125 -0.421875q-0.75 0 -1.25 0.609375q-0.484375 0.609375 -0.484375 1.671875l-0.015625 2.953125l1.296875 0l0 0.984375l-4.078125 0l0 -0.984375l1.421875 0l0 -5.359375l-1.421875 0l0 -0.984375l2.78125 0l0 1.34375q0.59375 -1.4375 1.875 -1.4375zm6.716919 3.171875q0.859375 0.203125 1.375 0.4375q0.515625 0.234375 0.828125 0.6875q0.3125 0.4375 0.3125 1.1875q0 1.046875 -0.828125 1.59375q-0.8125 0.53125 -1.96875 0.53125q-0.703125 0 -1.34375 -0.21875q-0.625 -0.234375 -1.0 -0.609375l0 0.640625l-1.078125 0l0 -2.53125l0.96875 0l0.078125 0.796875q0.3125 0.46875 0.90625 0.71875q0.609375 0.25 1.28125 0.25q0.734375 0 1.203125 -0.28125q0.46875 -0.296875 0.46875 -0.78125q0 -0.5625 -0.359375 -0.796875q-0.359375 -0.25 -1.328125 -0.453125l-1.015625 -0.21875q-1.140625 -0.28125 -1.6875 -0.734375q-0.546875 -0.46875 -0.546875 -1.4375q0 -0.953125 0.75 -1.5q0.765625 -0.546875 1.96875 -0.546875q0.578125 0 1.171875 0.1875q0.609375 0.1875 0.96875 0.515625l0 -0.5625l1.09375 0l0 2.53125l-0.96875 0l-0.125 -0.921875q-0.28125 -0.328125 -0.828125 -0.546875q-0.546875 -0.21875 -1.09375 -0.21875q-0.65625 0 -1.109375 0.265625q-0.4375 0.265625 -0.4375 0.765625q0 0.40625 0.3125 0.640625q0.3125 0.21875 1.078125 0.40625l0.953125 0.203125zm1.328125 -1.140625l-0.015625 -0.03125l0.015625 0.03125zm-4.21875 3.1875q0 0.03125 0.015625 0.0625l-0.015625 -0.0625z" fill-rule="nonzero"></path><path fill="#fcfcfc" d="m78.08924 162.07114l0 0c0 -7.5407867 6.113022 -13.653809 13.653816 -13.653809l172.09395 0c3.6212158 0 7.094116 1.4385223 9.654694 3.9990997c2.5605774 2.5605927 3.999115 6.033493 3.999115 9.654709l0 54.613632c0 7.5407867 -6.113037 13.653809 -13.653809 13.653809l-172.09395 0c-7.5407944 0 -13.653816 -6.113022 -13.653816 -13.653809z" fill-rule="evenodd"></path><path fill="#3f3f3f" d="m135.8109 174.29794l0 -0.984375l1.453125 0l0 -8.53125l-1.453125 0l0 -0.984375l4.4375 0l0 0.984375l-1.453125 0l0 8.53125l4.359375 0l0 -3.234375l1.234375 0l0 4.21875l-8.578125 0zm17.29454 -0.984375l0 0.984375l-2.375 0l-0.078125 -0.65625q-0.59375 0.453125 -1.1875 0.65625q-0.59375 0.203125 -1.34375 0.203125q-1.125 0 -1.828125 -0.625q-0.6875 -0.625 -0.6875 -1.5625q0 -1.1875 0.796875 -1.734375q0.8125 -0.546875 2.140625 -0.546875q0.953125 0 2.03125 0.234375l0 -0.765625q0 -0.84375 -0.453125 -1.265625q-0.453125 -0.4375 -1.28125 -0.4375q-0.53125 0 -1.234375 0.1875q-0.703125 0.171875 -1.28125 0.484375l-0.40625 -0.890625q0.609375 -0.390625 1.421875 -0.59375q0.8125 -0.203125 1.53125 -0.203125q1.421875 0 2.25 0.703125q0.828125 0.6875 0.828125 1.890625l0 3.9375l1.15625 0zm-6.203125 -1.0625q0 0.578125 0.375 0.9375q0.390625 0.359375 1.046875 0.359375q1.09375 0 2.25 -0.796875l0 -1.6875q-0.984375 -0.21875 -1.9375 -0.21875q-0.75 0 -1.25 0.328125q-0.484375 0.328125 -0.484375 1.078125zm16.085373 1.0625l0 0.984375l-3.9375 0l0 -0.984375l1.21875 0l0 -3.828125q0 -0.765625 -0.375 -1.1875q-0.375 -0.4375 -1.03125 -0.4375q-0.546875 0 -1.09375 0.203125q-0.546875 0.1875 -1.203125 0.578125l0 4.671875l1.328125 0l0 0.984375l-4.109375 0l0 -0.984375l1.421875 0l0 -5.359375l-1.421875 0l0 -0.984375l2.78125 0l0 0.71875q1.453125 -0.90625 2.65625 -0.90625q1.046875 0 1.71875 0.640625q0.6875 0.640625 0.6875 1.796875l0 4.09375l1.359375 0zm9.426529 -6.34375l0 0.984375l-1.234375 0l0 6.515625q0 1.6875 -1.03125 2.5q-1.03125 0.828125 -2.734375 0.828125q-1.3125 0 -2.765625 -0.4375l0.28125 -1.078125q1.421875 0.421875 2.4375 0.421875q1.15625 0 1.78125 -0.53125q0.640625 -0.53125 0.640625 -1.609375l0 -1.015625q-0.515625 0.390625 -1.15625 0.609375q-0.640625 0.203125 -1.28125 0.203125q-1.046875 0 -1.90625 -0.453125q-0.859375 -0.46875 -1.359375 -1.328125q-0.484375 -0.859375 -0.484375 -2.015625q0 -1.1875 0.484375 -2.03125q0.484375 -0.859375 1.328125 -1.296875q0.859375 -0.4375 1.90625 -0.4375q0.625 0 1.296875 0.21875q0.671875 0.203125 1.15625 0.609375l0 -0.65625l2.640625 0zm-7.375 3.6875q0 1.25 0.71875 1.96875q0.734375 0.703125 1.875 0.703125q0.546875 0 1.109375 -0.1875q0.5625 -0.1875 1.046875 -0.546875l-0.015625 -4.03125q-0.53125 -0.34375 -1.140625 -0.546875q-0.609375 -0.21875 -1.15625 -0.21875q-1.09375 0 -1.765625 0.765625q-0.671875 0.75 -0.671875 2.09375zm16.867538 2.65625l0 0.984375l-2.6875 0l-0.046875 -0.890625q-1.328125 1.078125 -2.703125 1.078125q-1.21875 0 -1.828125 -0.6875q-0.609375 -0.6875 -0.609375 -1.78125l0 -4.0625l-1.234375 0l0 -0.984375l2.609375 0l0 4.90625q0 0.703125 0.34375 1.109375q0.34375 0.390625 1.046875 0.390625q1.265625 0 2.375 -1.015625l0 -4.40625l-1.3125 0l0 -0.984375l2.6875 0l0 6.34375l1.359375 0zm8.436569 0l0 0.984375l-2.375 0l-0.078125 -0.65625q-0.59375 0.453125 -1.1875 0.65625q-0.59375 0.203125 -1.34375 0.203125q-1.125 0 -1.828125 -0.625q-0.6875 -0.625 -0.6875 -1.5625q0 -1.1875 0.796875 -1.734375q0.8125 -0.546875 2.140625 -0.546875q0.953125 0 2.03125 0.234375l0 -0.765625q0 -0.84375 -0.453125 -1.265625q-0.453125 -0.4375 -1.28125 -0.4375q-0.53125 0 -1.234375 0.1875q-0.703125 0.171875 -1.28125 0.484375l-0.40625 -0.890625q0.609375 -0.390625 1.421875 -0.59375q0.8125 -0.203125 1.53125 -0.203125q1.421875 0 2.25 0.703125q0.828125 0.6875 0.828125 1.890625l0 3.9375l1.15625 0zm-6.203125 -1.0625q0 0.578125 0.375 0.9375q0.390625 0.359375 1.046875 0.359375q1.09375 0 2.25 -0.796875l0 -1.6875q-0.984375 -0.21875 -1.9375 -0.21875q-0.75 0 -1.25 0.328125q-0.484375 0.328125 -0.484375 1.078125zm15.866623 -5.28125l0 0.984375l-1.234375 0l0 6.515625q0 1.6875 -1.03125 2.5q-1.03125 0.828125 -2.734375 0.828125q-1.3125 0 -2.765625 -0.4375l0.28125 -1.078125q1.421875 0.421875 2.4375 0.421875q1.15625 0 1.78125 -0.53125q0.640625 -0.53125 0.640625 -1.609375l0 -1.015625q-0.515625 0.390625 -1.15625 0.609375q-0.640625 0.203125 -1.28125 0.203125q-1.046875 0 -1.90625 -0.453125q-0.859375 -0.46875 -1.359375 -1.328125q-0.484375 -0.859375 -0.484375 -2.015625q0 -1.1875 0.484375 -2.03125q0.484375 -0.859375 1.328125 -1.296875q0.859375 -0.4375 1.90625 -0.4375q0.625 0 1.296875 0.21875q0.671875 0.203125 1.15625 0.609375l0 -0.65625l2.640625 0zm-7.375 3.6875q0 1.25 0.71875 1.96875q0.734375 0.703125 1.875 0.703125q0.546875 0 1.109375 -0.1875q0.5625 -0.1875 1.046875 -0.546875l-0.015625 -4.03125q-0.53125 -0.34375 -1.140625 -0.546875q-0.609375 -0.21875 -1.15625 -0.21875q-1.09375 0 -1.765625 0.765625q-0.671875 0.75 -0.671875 2.09375zm15.508163 0.265625l-6.046875 0q0.125 1.171875 0.828125 1.859375q0.71875 0.671875 1.8125 0.671875q1.53125 0 2.78125 -1.171875l0.484375 0.84375q-0.53125 0.625 -1.359375 1.015625q-0.8125 0.375 -1.84375 0.375q-1.15625 0 -2.109375 -0.484375q-0.953125 -0.484375 -1.5 -1.359375q-0.53125 -0.890625 -0.53125 -2.03125q0 -1.15625 0.515625 -2.03125q0.515625 -0.890625 1.390625 -1.359375q0.890625 -0.484375 1.96875 -0.484375q1.6875 0 2.640625 1.03125q0.96875 1.015625 0.96875 2.765625l0 0.359375zm-1.375 -0.859375q0 -1.0625 -0.625 -1.671875q-0.625 -0.625 -1.609375 -0.625q-0.96875 0 -1.640625 0.625q-0.671875 0.609375 -0.796875 1.671875l4.671875 0zm7.90007 6.84375l5.21875 -13.671875l1.171875 0l-5.21875 13.671875l-1.171875 0z" fill-rule="nonzero"></path><path fill="#3f3f3f" d="m133.25278 189.84482q-1.1875 0 -1.953125 0.765625q-0.765625 0.765625 -0.765625 1.9375q0 1.265625 0.75 2.0625q0.75 0.796875 1.9375 0.796875q0.890625 0 1.5 -0.34375q0.625 -0.34375 1.203125 -1.0l0.578125 0.828125q-0.578125 0.75 -1.4375 1.171875q-0.859375 0.421875 -1.96875 0.421875q-1.15625 0 -2.0625 -0.5q-0.90625 -0.515625 -1.421875 -1.390625q-0.515625 -0.890625 -0.515625 -2.015625q0 -1.109375 0.484375 -1.96875q0.5 -0.875 1.375 -1.359375q0.890625 -0.484375 1.984375 -0.484375q0.828125 0 1.453125 0.296875q0.640625 0.296875 0.96875 0.796875l0 -0.9375l1.15625 0l0 2.640625l-1.046875 0q-0.15625 -0.8125 -0.765625 -1.265625q-0.59375 -0.453125 -1.453125 -0.453125zm8.531036 6.671875q-1.171875 0 -2.078125 -0.484375q-0.890625 -0.484375 -1.390625 -1.359375q-0.484375 -0.890625 -0.484375 -2.046875q0 -1.15625 0.484375 -2.03125q0.5 -0.875 1.390625 -1.34375q0.90625 -0.484375 2.078125 -0.484375q1.171875 0 2.078125 0.484375q0.90625 0.46875 1.40625 1.34375q0.5 0.875 0.5 2.015625q0 1.15625 -0.5 2.046875q-0.5 0.890625 -1.40625 1.375q-0.90625 0.484375 -2.078125 0.484375zm0 -1.078125q1.15625 0 1.859375 -0.765625q0.71875 -0.78125 0.71875 -2.0625q0 -1.25 -0.71875 -2.0q-0.703125 -0.765625 -1.859375 -0.765625q-1.15625 0 -1.84375 0.765625q-0.6875 0.765625 -0.6875 2.015625q0 1.265625 0.6875 2.046875q0.703125 0.765625 1.84375 0.765625zm14.067871 -0.125l0 0.984375l-3.9375 0l0 -0.984375l1.21875 0l0 -3.828125q0 -0.765625 -0.375 -1.1875q-0.375 -0.4375 -1.03125 -0.4375q-0.546875 0 -1.09375 0.203125q-0.546875 0.1875 -1.203125 0.578125l0 4.671875l1.328125 0l0 0.984375l-4.109375 0l0 -0.984375l1.421875 0l0 -5.359375l-1.421875 0l0 -0.984375l2.78125 0l0 0.71875q1.453125 -0.90625 2.65625 -0.90625q1.046875 0 1.71875 0.640625q0.6875 0.640625 0.6875 1.796875l0 4.09375l1.359375 0zm4.207779 0.984375l-2.796875 -6.34375l-1.25 0l0 -0.984375l3.921875 0l0 0.984375l-1.1875 0l2.046875 4.921875l2.03125 -4.921875l-1.171875 0l0 -0.984375l3.6875 0l0 0.984375l-1.171875 0l-2.859375 6.34375l-1.25 0zm13.37056 -3.375l-6.046875 0q0.125 1.171875 0.828125 1.859375q0.71875 0.671875 1.8125 0.671875q1.53125 0 2.78125 -1.171875l0.484375 0.84375q-0.53125 0.625 -1.359375 1.015625q-0.8125 0.375 -1.84375 0.375q-1.15625 0 -2.109375 -0.484375q-0.953125 -0.484375 -1.5 -1.359375q-0.53125 -0.890625 -0.53125 -2.03125q0 -1.15625 0.515625 -2.03125q0.515625 -0.890625 1.390625 -1.359375q0.890625 -0.484375 1.96875 -0.484375q1.6875 0 2.640625 1.03125q0.96875 1.015625 0.96875 2.765625l0 0.359375zm-1.375 -0.859375q0 -1.0625 -0.625 -1.671875q-0.625 -0.625 -1.609375 -0.625q-0.96875 0 -1.640625 0.625q-0.671875 0.609375 -0.796875 1.671875l4.671875 0zm7.334915 -3.1875q0.71875 0 1.5 0.375l-0.34375 1.25q-0.625 -0.421875 -1.28125 -0.421875q-0.75 0 -1.25 0.609375q-0.484375 0.609375 -0.484375 1.671875l-0.015625 2.953125l1.296875 0l0 0.984375l-4.078125 0l0 -0.984375l1.421875 0l0 -5.359375l-1.421875 0l0 -0.984375l2.78125 0l0 1.34375q0.59375 -1.4375 1.875 -1.4375zm6.716934 3.171875q0.859375 0.203125 1.375 0.4375q0.515625 0.234375 0.828125 0.6875q0.3125 0.4375 0.3125 1.1875q0 1.046875 -0.828125 1.59375q-0.8125 0.53125 -1.96875 0.53125q-0.703125 0 -1.34375 -0.21875q-0.625 -0.234375 -1.0 -0.609375l0 0.640625l-1.078125 0l0 -2.53125l0.96875 0l0.078125 0.796875q0.3125 0.46875 0.90625 0.71875q0.609375 0.25 1.28125 0.25q0.734375 0 1.203125 -0.28125q0.46875 -0.296875 0.46875 -0.78125q0 -0.5625 -0.359375 -0.796875q-0.359375 -0.25 -1.328125 -0.453125l-1.015625 -0.21875q-1.140625 -0.28125 -1.6875 -0.734375q-0.546875 -0.46875 -0.546875 -1.4375q0 -0.953125 0.75 -1.5q0.765625 -0.546875 1.96875 -0.546875q0.578125 0 1.171875 0.1875q0.609375 0.1875 0.96875 0.515625l0 -0.5625l1.09375 0l0 2.53125l-0.96875 0l-0.125 -0.921875q-0.28125 -0.328125 -0.828125 -0.546875q-0.546875 -0.21875 -1.09375 -0.21875q-0.65625 0 -1.109375 0.265625q-0.4375 0.265625 -0.4375 0.765625q0 0.40625 0.3125 0.640625q0.3125 0.21875 1.078125 0.40625l0.953125 0.203125zm1.328125 -1.140625l-0.015625 -0.03125l0.015625 0.03125zm-4.21875 3.1875q0 0.03125 0.015625 0.0625l-0.015625 -0.0625zm14.356384 1.21875l0 0.984375l-2.375 0l-0.078125 -0.65625q-0.59375 0.453125 -1.1875 0.65625q-0.59375 0.203125 -1.34375 0.203125q-1.125 0 -1.828125 -0.625q-0.6875 -0.625 -0.6875 -1.5625q0 -1.1875 0.796875 -1.734375q0.8125 -0.546875 2.140625 -0.546875q0.953125 0 2.03125 0.234375l0 -0.765625q0 -0.84375 -0.453125 -1.265625q-0.453125 -0.4375 -1.28125 -0.4375q-0.53125 0 -1.234375 0.1875q-0.703125 0.171875 -1.28125 0.484375l-0.40625 -0.890625q0.609375 -0.390625 1.421875 -0.59375q0.8125 -0.203125 1.53125 -0.203125q1.421875 0 2.25 0.703125q0.828125 0.6875 0.828125 1.890625l0 3.9375l1.15625 0zm-6.203125 -1.0625q0 0.578125 0.375 0.9375q0.390625 0.359375 1.046875 0.359375q1.09375 0 2.25 -0.796875l0 -1.6875q-0.984375 -0.21875 -1.9375 -0.21875q-0.75 0 -1.25 0.328125q-0.484375 0.328125 -0.484375 1.078125zm10.194748 2.046875q-2.140625 0 -2.140625 -2.171875l0 -4.171875l-1.203125 0l0 -0.984375l1.203125 0l0 -2.5l1.390625 -0.546875l0 3.046875l1.9375 0l0 0.984375l-1.9375 0l0 4.109375q0 0.6875 0.21875 0.96875q0.234375 0.28125 0.765625 0.28125l1.125 0l0 0.984375l-1.359375 0zm4.2249146 -8.9375q-0.421875 0 -0.71875 -0.265625q-0.28125 -0.28125 -0.28125 -0.6875q0 -0.40625 0.28125 -0.671875q0.296875 -0.28125 0.71875 -0.28125q0.4375 0 0.71875 0.28125q0.296875 0.265625 0.296875 0.671875q0 0.40625 -0.296875 0.6875q-0.28125 0.265625 -0.71875 0.265625zm-1.921875 8.9375l0 -0.984375l1.421875 0l0 -5.359375l-1.40625 0l0 -0.984375l2.765625 0l0 6.34375l1.328125 0l0 0.984375l-4.109375 0zm8.996826 0.21875q-1.171875 0 -2.078125 -0.484375q-0.89060974 -0.484375 -1.3906097 -1.359375q-0.484375 -0.890625 -0.484375 -2.046875q0 -1.15625 0.484375 -2.03125q0.5 -0.875 1.3906097 -1.34375q0.90625 -0.484375 2.078125 -0.484375q1.171875 0 2.078125 0.484375q0.90625 0.46875 1.40625 1.34375q0.5 0.875 0.5 2.015625q0 1.15625 -0.5 2.046875q-0.5 0.890625 -1.40625 1.375q-0.90625 0.484375 -2.078125 0.484375zm0 -1.078125q1.15625 0 1.859375 -0.765625q0.71875 -0.78125 0.71875 -2.0625q0 -1.25 -0.71875 -2.0q-0.703125 -0.765625 -1.859375 -0.765625q-1.15625 0 -1.84375 0.765625q-0.6875 0.765625 -0.6875 2.015625q0 1.265625 0.6875 2.046875q0.703125 0.765625 1.84375 0.765625zm14.067871 -0.125l0 0.984375l-3.9375 0l0 -0.984375l1.21875 0l0 -3.828125q0 -0.765625 -0.375 -1.1875q-0.375 -0.4375 -1.03125 -0.4375q-0.546875 0 -1.09375 0.203125q-0.546875 0.1875 -1.203125 0.578125l0 4.671875l1.328125 0l0 0.984375l-4.109375 0l0 -0.984375l1.421875 0l0 -5.359375l-1.421875 0l0 -0.984375l2.78125 0l0 0.71875q1.453125 -0.90625 2.65625 -0.90625q1.046875 0 1.71875 0.640625q0.6875 0.640625 0.6875 1.796875l0 4.09375l1.359375 0z" fill-rule="nonzero"></path><path fill="#3f3f3f" d="m145.68205 210.78232q1.015625 0 1.8125 0.4375q0.8125 0.4375 1.28125 1.296875q0.46875 0.84375 0.46875 2.015625q0 1.203125 -0.515625 2.109375q-0.515625 0.890625 -1.390625 1.375q-0.859375 0.46875 -1.875 0.46875q-0.65625 0 -1.25 -0.203125q-0.578125 -0.203125 -0.953125 -0.546875l-0.015625 2.484375l1.4375 0l0 0.984375l-4.125 0l0 -0.984375l1.3125 0l0 -8.265625l-1.28125 0l0 -0.984375l2.578125 0l0.015625 0.6875q0.546875 -0.4375 1.1875 -0.65625q0.640625 -0.21875 1.3125 -0.21875zm-0.46875 6.671875q1.15625 0 1.875 -0.734375q0.71875 -0.734375 0.71875 -2.078125q0 -1.3125 -0.703125 -2.046875q-0.6875 -0.75 -1.796875 -0.75q-0.4375 0 -1.03125 0.1875q-0.59375 0.1875 -1.03125 0.5625l0.015625 4.15625q0.421875 0.328125 0.9375 0.515625q0.515625 0.1875 1.015625 0.1875zm9.848877 -6.578125q0.71875 0 1.5 0.375l-0.34375 1.25q-0.625 -0.421875 -1.28125 -0.421875q-0.75 0 -1.25 0.609375q-0.484375 0.609375 -0.484375 1.671875l-0.015625 2.953125l1.296875 0l0 0.984375l-4.078125 0l0 -0.984375l1.421875 0l0 -5.359375l-1.421875 0l0 -0.984375l2.78125 0l0 1.34375q0.59375 -1.4375 1.875 -1.4375zm6.310684 7.640625q-1.171875 0 -2.078125 -0.484375q-0.890625 -0.484375 -1.390625 -1.359375q-0.484375 -0.890625 -0.484375 -2.046875q0 -1.15625 0.484375 -2.03125q0.5 -0.875 1.390625 -1.34375q0.90625 -0.484375 2.078125 -0.484375q1.171875 0 2.078125 0.484375q0.90625 0.46875 1.40625 1.34375q0.5 0.875 0.5 2.015625q0 1.15625 -0.5 2.046875q-0.5 0.890625 -1.40625 1.375q-0.90625 0.484375 -2.078125 0.484375zm0 -1.078125q1.15625 0 1.859375 -0.765625q0.71875 -0.78125 0.71875 -2.0625q0 -1.25 -0.71875 -2.0q-0.703125 -0.765625 -1.859375 -0.765625q-1.15625 0 -1.84375 0.765625q-0.6875 0.765625 -0.6875 2.015625q0 1.265625 0.6875 2.046875q0.703125 0.765625 1.84375 0.765625zm9.099121 -5.59375q-1.1875 0 -1.953125 0.765625q-0.765625 0.765625 -0.765625 1.9375q0 1.265625 0.75 2.0625q0.75 0.796875 1.9375 0.796875q0.890625 0 1.5 -0.34375q0.625 -0.34375 1.203125 -1.0l0.578125 0.828125q-0.578125 0.75 -1.4375 1.171875q-0.859375 0.421875 -1.96875 0.421875q-1.15625 0 -2.0625 -0.5q-0.90625 -0.515625 -1.421875 -1.390625q-0.515625 -0.890625 -0.515625 -2.015625q0 -1.109375 0.484375 -1.96875q0.5 -0.875 1.375 -1.359375q0.890625 -0.484375 1.984375 -0.484375q0.828125 0 1.453125 0.296875q0.640625 0.296875 0.96875 0.796875l0 -0.9375l1.15625 0l0 2.640625l-1.046875 0q-0.15625 -0.8125 -0.765625 -1.265625q-0.59375 -0.453125 -1.453125 -0.453125zm12.062286 3.078125l-6.046875 0q0.125 1.171875 0.828125 1.859375q0.71875 0.671875 1.8125 0.671875q1.53125 0 2.78125 -1.171875l0.484375 0.84375q-0.53125 0.625 -1.359375 1.015625q-0.8125 0.375 -1.84375 0.375q-1.15625 0 -2.109375 -0.484375q-0.953125 -0.484375 -1.5 -1.359375q-0.53125 -0.890625 -0.53125 -2.03125q0 -1.15625 0.515625 -2.03125q0.515625 -0.890625 1.390625 -1.359375q0.890625 -0.484375 1.96875 -0.484375q1.6875 0 2.640625 1.03125q0.96875 1.015625 0.96875 2.765625l0 0.359375zm-1.375 -0.859375q0 -1.0625 -0.625 -1.671875q-0.625 -0.625 -1.609375 -0.625q-0.96875 0 -1.640625 0.625q-0.671875 0.609375 -0.796875 1.671875l4.671875 0zm6.85054 -0.015625q0.859375 0.203125 1.375 0.4375q0.515625 0.234375 0.828125 0.6875q0.3125 0.4375 0.3125 1.1875q0 1.046875 -0.828125 1.59375q-0.8125 0.53125 -1.96875 0.53125q-0.703125 0 -1.34375 -0.21875q-0.625 -0.234375 -1.0 -0.609375l0 0.640625l-1.078125 0l0 -2.53125l0.96875 0l0.078125 0.796875q0.3125 0.46875 0.90625 0.71875q0.609375 0.25 1.28125 0.25q0.734375 0 1.203125 -0.28125q0.46875 -0.296875 0.46875 -0.78125q0 -0.5625 -0.359375 -0.796875q-0.359375 -0.25 -1.328125 -0.453125l-1.015625 -0.21875q-1.140625 -0.28125 -1.6875 -0.734375q-0.546875 -0.46875 -0.546875 -1.4375q0 -0.953125 0.75 -1.5q0.765625 -0.546875 1.96875 -0.546875q0.578125 0 1.171875 0.1875q0.609375 0.1875 0.96875 0.515625l0 -0.5625l1.09375 0l0 2.53125l-0.96875 0l-0.125 -0.921875q-0.28125 -0.328125 -0.828125 -0.546875q-0.546875 -0.21875 -1.09375 -0.21875q-0.65625 0 -1.109375 0.265625q-0.4375 0.265625 -0.4375 0.765625q0 0.40625 0.3125 0.640625q0.3125 0.21875 1.078125 0.40625l0.953125 0.203125zm1.328125 -1.140625l-0.015625 -0.03125l0.015625 0.03125zm-4.21875 3.1875q0 0.03125 0.015625 0.0625l-0.015625 -0.0625zm10.950134 -2.046875q0.859375 0.203125 1.375 0.4375q0.515625 0.234375 0.828125 0.6875q0.3125 0.4375 0.3125 1.1875q0 1.046875 -0.828125 1.59375q-0.8125 0.53125 -1.96875 0.53125q-0.703125 0 -1.34375 -0.21875q-0.625 -0.234375 -1.0 -0.609375l0 0.640625l-1.078125 0l0 -2.53125l0.96875 0l0.078125 0.796875q0.3125 0.46875 0.90625 0.71875q0.609375 0.25 1.28125 0.25q0.734375 0 1.203125 -0.28125q0.46875 -0.296875 0.46875 -0.78125q0 -0.5625 -0.359375 -0.796875q-0.359375 -0.25 -1.328125 -0.453125l-1.015625 -0.21875q-1.140625 -0.28125 -1.6875 -0.734375q-0.546875 -0.46875 -0.546875 -1.4375q0 -0.953125 0.75 -1.5q0.765625 -0.546875 1.96875 -0.546875q0.578125 0 1.171875 0.1875q0.609375 0.1875 0.96875 0.515625l0 -0.5625l1.09375 0l0 2.53125l-0.96875 0l-0.125 -0.921875q-0.28125 -0.328125 -0.828125 -0.546875q-0.546875 -0.21875 -1.09375 -0.21875q-0.65625 0 -1.109375 0.265625q-0.4375 0.265625 -0.4375 0.765625q0 0.40625 0.3125 0.640625q0.3125 0.21875 1.078125 0.40625l0.953125 0.203125zm1.328125 -1.140625l-0.015625 -0.03125l0.015625 0.03125zm-4.21875 3.1875q0 0.03125 0.015625 0.0625l-0.015625 -0.0625zm10.543884 2.421875q-1.171875 0 -2.078125 -0.484375q-0.890625 -0.484375 -1.390625 -1.359375q-0.484375 -0.890625 -0.484375 -2.046875q0 -1.15625 0.484375 -2.03125q0.5 -0.875 1.390625 -1.34375q0.90625 -0.484375 2.078125 -0.484375q1.171875 0 2.078125 0.484375q0.90625 0.46875 1.40625 1.34375q0.5 0.875 0.5 2.015625q0 1.15625 -0.5 2.046875q-0.5 0.890625 -1.40625 1.375q-0.90625 0.484375 -2.078125 0.484375zm0 -1.078125q1.15625 0 1.859375 -0.765625q0.71875 -0.78125 0.71875 -2.0625q0 -1.25 -0.71875 -2.0q-0.703125 -0.765625 -1.859375 -0.765625q-1.15625 0 -1.84375 0.765625q-0.6875 0.765625 -0.6875 2.015625q0 1.265625 0.6875 2.046875q0.703125 0.765625 1.84375 0.765625zm9.770996 -6.5625q0.71875 0 1.5 0.375l-0.34375 1.25q-0.625 -0.421875 -1.28125 -0.421875q-0.75 0 -1.25 0.609375q-0.484375 0.609375 -0.484375 1.671875l-0.015625 2.953125l1.296875 0l0 0.984375l-4.078125 0l0 -0.984375l1.421875 0l0 -5.359375l-1.421875 0l0 -0.984375l2.78125 0l0 1.34375q0.59375 -1.4375 1.875 -1.4375z" fill-rule="nonzero"></path><path fill="#fcfcfc" d="m78.08793 325.91367l0 0c0 -7.540802 6.113022 -13.653809 13.653816 -13.653809l172.09395 0c3.6212158 0 7.094116 1.4385071 9.654694 3.9990845c2.5605774 2.560608 3.999115 6.0335083 3.999115 9.654724l0 54.613617c0 7.540802 -6.113037 13.653809 -13.653809 13.653809l-172.09395 0c-7.5407944 0 -13.653816 -6.1130066 -13.653816 -13.653809z" fill-rule="evenodd"></path><path fill="#3f3f3f" d="m121.59372 348.1561l0 0.984375l-2.375 0l-0.078125 -0.65625q-0.59375 0.453125 -1.1875 0.65625q-0.59375 0.203125 -1.34375 0.203125q-1.125 0 -1.828125 -0.625q-0.6875 -0.625 -0.6875 -1.5625q0 -1.1875 0.796875 -1.734375q0.8125 -0.546875 2.140625 -0.546875q0.953125 0 2.03125 0.234375l0 -0.765625q0 -0.84375 -0.453125 -1.265625q-0.453125 -0.4375 -1.28125 -0.4375q-0.53125 0 -1.234375 0.1875q-0.703125 0.171875 -1.28125 0.484375l-0.40625 -0.890625q0.609375 -0.390625 1.421875 -0.59375q0.8125 -0.203125 1.53125 -0.203125q1.421875 0 2.25 0.703125q0.828125 0.6875 0.828125 1.890625l0 3.9375l1.15625 0zm-6.203125 -1.0625q0 0.578125 0.375 0.9375q0.390625 0.359375 1.046875 0.359375q1.09375 0 2.25 -0.796875l0 -1.6875q-0.984375 -0.21875 -1.9375 -0.21875q-0.75 0 -1.25 0.328125q-0.484375 0.328125 -0.484375 1.078125zm11.960373 -5.46875q1.015625 0 1.8125 0.4375q0.8125 0.4375 1.28125 1.296875q0.46875 0.84375 0.46875 2.015625q0 1.203125 -0.515625 2.109375q-0.515625 0.890625 -1.390625 1.375q-0.859375 0.46875 -1.875 0.46875q-0.65625 0 -1.25 -0.203125q-0.578125 -0.203125 -0.953125 -0.546875l-0.015625 2.484375l1.4375 0l0 0.984375l-4.125 0l0 -0.984375l1.3125 0l0 -8.265625l-1.28125 0l0 -0.984375l2.578125 0l0.015625 0.6875q0.546875 -0.4375 1.1875 -0.65625q0.640625 -0.21875 1.3125 -0.21875zm-0.46875 6.671875q1.15625 0 1.875 -0.734375q0.71875 -0.734375 0.71875 -2.078125q0 -1.3125 -0.703125 -2.046875q-0.6875 -0.75 -1.796875 -0.75q-0.4375 0 -1.03125 0.1875q-0.59375 0.1875 -1.03125 0.5625l0.015625 4.15625q0.421875 0.328125 0.9375 0.515625q0.515625 0.1875 1.015625 0.1875zm10.020752 -6.671875q1.015625 0 1.8125 0.4375q0.8125 0.4375 1.28125 1.296875q0.46875 0.84375 0.46875 2.015625q0 1.203125 -0.515625 2.109375q-0.515625 0.890625 -1.390625 1.375q-0.859375 0.46875 -1.875 0.46875q-0.65625 0 -1.25 -0.203125q-0.578125 -0.203125 -0.953125 -0.546875l-0.015625 2.484375l1.4375 0l0 0.984375l-4.125 0l0 -0.984375l1.3125 0l0 -8.265625l-1.28125 0l0 -0.984375l2.578125 0l0.015625 0.6875q0.546875 -0.4375 1.1875 -0.65625q0.640625 -0.21875 1.3125 -0.21875zm-0.46875 6.671875q1.15625 0 1.875 -0.734375q0.71875 -0.734375 0.71875 -2.078125q0 -1.3125 -0.703125 -2.046875q-0.6875 -0.75 -1.796875 -0.75q-0.4375 0 -1.03125 0.1875q-0.59375 0.1875 -1.03125 0.5625l0.015625 4.15625q0.421875 0.328125 0.9375 0.515625q0.515625 0.1875 1.015625 0.1875zm10.414032 3.453125l5.21875 -13.671875l1.171875 0l-5.21875 13.671875l-1.171875 0zm14.9817505 -2.609375l-2.3125 -6.34375l-0.96875 0l0 -0.984375l3.3125 0l0 0.984375l-1.0 0l1.734375 4.984375l1.734375 -4.984375l-1.046875 0l0 -0.984375l3.59375 0l0 0.984375l-1.0625 0l1.8125 5.0l1.609375 -5.0l-1.03125 0l0 -0.984375l3.3125 0l0 0.984375l-1.03125 0l-2.203125 6.34375l-1.34375 0l-1.890625 -5.203125l-1.875 5.203125l-1.34375 0zm17.839218 -3.375l-6.046875 0q0.125 1.171875 0.828125 1.859375q0.71875 0.671875 1.8125 0.671875q1.53125 0 2.78125 -1.171875l0.484375 0.84375q-0.53125 0.625 -1.359375 1.015625q-0.8125 0.375 -1.84375 0.375q-1.15625 0 -2.109375 -0.484375q-0.953125 -0.484375 -1.5 -1.359375q-0.53125 -0.890625 -0.53125 -2.03125q0 -1.15625 0.515625 -2.03125q0.515625 -0.890625 1.390625 -1.359375q0.890625 -0.484375 1.96875 -0.484375q1.6875 0 2.640625 1.03125q0.96875 1.015625 0.96875 2.765625l0 0.359375zm-1.375 -0.859375q0 -1.0625 -0.625 -1.671875q-0.625 -0.625 -1.609375 -0.625q-0.96875 0 -1.640625 0.625q-0.671875 0.609375 -0.796875 1.671875l4.671875 0zm7.72554 -3.28125q1.015625 0 1.828125 0.4375q0.8125 0.4375 1.265625 1.296875q0.46875 0.84375 0.46875 2.015625q0 1.203125 -0.515625 2.109375q-0.5 0.890625 -1.375 1.375q-0.875 0.46875 -1.90625 0.46875q-1.34375 0 -2.265625 -0.796875l0 0.609375l-2.734375 0l0 -0.984375l1.359375 0l0 -8.734375l-1.328125 0l0 -0.96875l2.703125 0l0 4.015625q0.5625 -0.421875 1.21875 -0.625q0.65625 -0.21875 1.28125 -0.21875zm-0.484375 6.671875q1.15625 0 1.875 -0.734375q0.734375 -0.734375 0.734375 -2.078125q0 -1.3125 -0.703125 -2.046875q-0.6875 -0.75 -1.796875 -0.75q-0.515625 0 -1.078125 0.203125q-0.5625 0.203125 -1.046875 0.59375l0 4.078125q0.453125 0.34375 0.984375 0.546875q0.53125 0.1875 1.03125 0.1875zm10.397476 3.453125l5.21875 -13.671875l1.171875 0l-5.21875 13.671875l-1.171875 0zm19.763 -3.59375l0 0.984375l-2.375 0l-0.078125 -0.65625q-0.59375 0.453125 -1.1875 0.65625q-0.59375 0.203125 -1.34375 0.203125q-1.125 0 -1.828125 -0.625q-0.6875 -0.625 -0.6875 -1.5625q0 -1.1875 0.796875 -1.734375q0.8125 -0.546875 2.140625 -0.546875q0.953125 0 2.03125 0.234375l0 -0.765625q0 -0.84375 -0.453125 -1.265625q-0.453125 -0.4375 -1.28125 -0.4375q-0.53125 0 -1.234375 0.1875q-0.703125 0.171875 -1.28125 0.484375l-0.40625 -0.890625q0.609375 -0.390625 1.421875 -0.59375q0.8125 -0.203125 1.53125 -0.203125q1.421875 0 2.25 0.703125q0.828125 0.6875 0.828125 1.890625l0 3.9375l1.15625 0zm-6.203125 -1.0625q0 0.578125 0.375 0.9375q0.390625 0.359375 1.046875 0.359375q1.09375 0 2.25 -0.796875l0 -1.6875q-0.984375 -0.21875 -1.9375 -0.21875q-0.75 0 -1.25 0.328125q-0.484375 0.328125 -0.484375 1.078125zm11.960373 -5.46875q1.015625 0 1.8125 0.4375q0.8125 0.4375 1.28125 1.296875q0.46875 0.84375 0.46875 2.015625q0 1.203125 -0.515625 2.109375q-0.515625 0.890625 -1.390625 1.375q-0.859375 0.46875 -1.875 0.46875q-0.65625 0 -1.25 -0.203125q-0.578125 -0.203125 -0.953125 -0.546875l-0.015625 2.484375l1.4375 0l0 0.984375l-4.125 0l0 -0.984375l1.3125 0l0 -8.265625l-1.28125 0l0 -0.984375l2.578125 0l0.015625 0.6875q0.546875 -0.4375 1.1875 -0.65625q0.640625 -0.21875 1.3125 -0.21875zm-0.46875 6.671875q1.15625 0 1.875 -0.734375q0.71875 -0.734375 0.71875 -2.078125q0 -1.3125 -0.703125 -2.046875q-0.6875 -0.75 -1.796875 -0.75q-0.4375 0 -1.03125 0.1875q-0.59375 0.1875 -1.03125 0.5625l0.015625 4.15625q0.421875 0.328125 0.9375 0.515625q0.515625 0.1875 1.015625 0.1875zm6.864502 -8.09375q-0.421875 0 -0.71875 -0.265625q-0.28125 -0.28125 -0.28125 -0.6875q0 -0.40625 0.28125 -0.671875q0.296875 -0.28125 0.71875 -0.28125q0.4375 0 0.71875 0.28125q0.296875 0.265625 0.296875 0.671875q0 0.40625 -0.296875 0.6875q-0.28125 0.265625 -0.71875 0.265625zm-1.921875 8.9375l0 -0.984375l1.421875 0l0 -5.359375l-1.40625 0l0 -0.984375l2.765625 0l0 6.34375l1.328125 0l0 0.984375l-4.109375 0zm10.452621 2.609375l5.21875 -13.671875l1.171875 0l-5.21875 13.671875l-1.171875 0z" fill-rule="nonzero"></path><path fill="#3f3f3f" d="m161.55998 371.14047l-2.796875 -6.34375l-1.25 0l0 -0.984375l3.921875 0l0 0.984375l-1.1875 0l2.046875 4.921875l2.03125 -4.921875l-1.171875 0l0 -0.984375l3.6875 0l0 0.984375l-1.171875 0l-2.859375 6.34375l-1.25 0zm9.83931 0.21875q-1.171875 0 -2.078125 -0.484375q-0.890625 -0.484375 -1.390625 -1.359375q-0.484375 -0.890625 -0.484375 -2.046875q0 -1.15625 0.484375 -2.03125q0.5 -0.875 1.390625 -1.34375q0.90625 -0.484375 2.078125 -0.484375q1.171875 0 2.078125 0.484375q0.90625 0.46875 1.40625 1.34375q0.5 0.875 0.5 2.015625q0 1.15625 -0.5 2.046875q-0.5 0.890625 -1.40625 1.375q-0.90625 0.484375 -2.078125 0.484375zm0 -1.078125q1.15625 0 1.859375 -0.765625q0.71875 -0.78125 0.71875 -2.0625q0 -1.25 -0.71875 -2.0q-0.703125 -0.765625 -1.859375 -0.765625q-1.15625 0 -1.84375 0.765625q-0.6875 0.765625 -0.6875 2.015625q0 1.265625 0.6875 2.046875q0.703125 0.765625 1.84375 0.765625zm6.786621 -8.078125q-0.421875 0 -0.71875 -0.265625q-0.28125 -0.28125 -0.28125 -0.6875q0 -0.40625 0.28125 -0.671875q0.296875 -0.28125 0.71875 -0.28125q0.4375 0 0.71875 0.28125q0.296875 0.265625 0.296875 0.671875q0 0.40625 -0.296875 0.6875q-0.28125 0.265625 -0.71875 0.265625zm-1.921875 8.9375l0 -0.984375l1.421875 0l0 -5.359375l-1.40625 0l0 -0.984375l2.765625 0l0 6.34375l1.328125 0l0 0.984375l-4.109375 0zm9.215591 -6.453125q-1.1875 0 -1.953125 0.765625q-0.765625 0.765625 -0.765625 1.9375q0 1.265625 0.75 2.0625q0.75 0.796875 1.9375 0.796875q0.890625 0 1.5 -0.34375q0.625 -0.34375 1.203125 -1.0l0.578125 0.828125q-0.578125 0.75 -1.4375 1.171875q-0.859375 0.421875 -1.96875 0.421875q-1.15625 0 -2.0625 -0.5q-0.90625 -0.515625 -1.421875 -1.390625q-0.515625 -0.890625 -0.515625 -2.015625q0 -1.109375 0.484375 -1.96875q0.5 -0.875 1.375 -1.359375q0.890625 -0.484375 1.984375 -0.484375q0.828125 0 1.453125 0.296875q0.640625 0.296875 0.96875 0.796875l0 -0.9375l1.15625 0l0 2.640625l-1.046875 0q-0.15625 -0.8125 -0.765625 -1.265625q-0.59375 -0.453125 -1.453125 -0.453125zm12.062286 3.078125l-6.046875 0q0.125 1.171875 0.828125 1.859375q0.71875 0.671875 1.8125 0.671875q1.53125 0 2.78125 -1.171875l0.484375 0.84375q-0.53125 0.625 -1.359375 1.015625q-0.8125 0.375 -1.84375 0.375q-1.15625 0 -2.109375 -0.484375q-0.953125 -0.484375 -1.5 -1.359375q-0.53125 -0.890625 -0.53125 -2.03125q0 -1.15625 0.515625 -2.03125q0.515625 -0.890625 1.390625 -1.359375q0.890625 -0.484375 1.96875 -0.484375q1.6875 0 2.640625 1.03125q0.96875 1.015625 0.96875 2.765625l0 0.359375zm-1.375 -0.859375q0 -1.0625 -0.625 -1.671875q-0.625 -0.625 -1.609375 -0.625q-0.96875 0 -1.640625 0.625q-0.671875 0.609375 -0.796875 1.671875l4.671875 0z" fill-rule="nonzero"></path><path fill="#fcfcfc" d="m135.28491 554.8801c-7.16185 -17.100708 -1.9449005 -36.87976 12.719528 -48.223602c14.664429 -11.343811 35.11978 -11.423828 49.872498 -0.19506836c14.752716 11.22879 20.124237 30.9664 13.0963745 48.12265z" fill-rule="evenodd"></path><path stroke="#000000" stroke-width="1.0" stroke-linejoin="round" stroke-linecap="butt" d="m135.28491 554.8801c-7.16185 -17.100708 -1.9449005 -36.87976 12.719528 -48.223602c14.664429 -11.343811 35.11978 -11.423828 49.872498 -0.19506836c14.752716 11.22879 20.124237 30.9664 13.0963745 48.12265z" fill-rule="evenodd"></path><path fill="#fcfcfc" d="m148.81627 498.42783l0 0c0 -13.393982 10.857986 -24.251984 24.251968 -24.251984l0 0c6.432022 0 12.600616 2.5551147 17.148743 7.103241c4.548126 4.548126 7.1032257 10.716705 7.1032257 17.148743l0 0c0 13.393982 -10.857971 24.251984 -24.251968 24.251984l0 0c-13.393982 0 -24.251968 -10.858002 -24.251968 -24.251984z" fill-rule="evenodd"></path><path stroke="#000000" stroke-width="1.0" stroke-linejoin="round" stroke-linecap="butt" d="m148.81627 498.42783l0 0c0 -13.393982 10.857986 -24.251984 24.251968 -24.251984l0 0c6.432022 0 12.600616 2.5551147 17.148743 7.103241c4.548126 4.548126 7.1032257 10.716705 7.1032257 17.148743l0 0c0 13.393982 -10.857971 24.251984 -24.251968 24.251984l0 0c-13.393982 0 -24.251968 -10.858002 -24.251968 -24.251984z" fill-rule="evenodd"></path><path fill="#000000" fill-opacity="0.0" d="m412.98688 180.55258c-10.437897 -5.3075256 -41.751984 -30.960632 -62.62729 -31.845139c-20.875336 -0.8845215 -52.187225 22.115051 -62.624695 26.538055" fill-rule="evenodd"></path><path stroke="#5effa9" stroke-width="1.0" stroke-linejoin="round" stroke-linecap="butt" d="m412.98688 180.55258c-10.437866 -5.3075256 -41.751984 -30.960632 -62.62729 -31.845139c-10.437683 -0.44226074 -23.484497 5.086502 -35.226562 11.278702c-5.8710327 3.0960999 -11.415863 6.3580627 -16.145294 9.122437c-1.182373 0.6910858 -2.3137512 1.3510895 -3.3865662 1.9696198c-0.53637695 0.30924988 -1.058136 0.6081543 -1.56427 0.89538574c-0.25305176 0.14361572 -0.5022278 0.28433228 -0.7473755 0.42196655l-0.21240234 0.118499756" fill-rule="evenodd"></path><path fill="#5effa9" stroke="#5effa9" stroke-width="1.0" stroke-linecap="butt" d="m292.32516 171.0434l-3.2886353 3.5365753l4.792511 -0.5952759z" fill-rule="evenodd"></path><path fill="#000000" fill-opacity="0.0" d="m288.7953 200.72179c10.791779 5.130356 45.11328 28.305328 64.75064 30.78215c19.63736 2.476822 44.227905 -13.267715 53.073486 -15.921265" fill-rule="evenodd"></path><path stroke="#5effa9" stroke-width="1.0" stroke-linejoin="round" stroke-linecap="butt" d="m288.7953 200.72179c10.791748 5.130356 45.11328 28.305344 64.75064 30.78215c9.818665 1.2383881 20.875671 -2.078537 30.58368 -6.036743c4.8539734 -1.9791107 9.370728 -4.1185455 13.226868 -5.9290466c0.9640198 -0.45263672 1.8867493 -0.8847046 2.763153 -1.288559l0.93392944 -0.42616272" fill-rule="evenodd"></path><path fill="#5effa9" stroke="#5effa9" stroke-width="1.0" stroke-linecap="butt" d="m401.6704 219.35565l3.5928955 -3.2270203l-4.8266296 0.1625824z" fill-rule="evenodd"></path><path fill="#000000" fill-opacity="0.0" d="m194.23753 241.3937l0 59.811005" fill-rule="evenodd"></path><path stroke="#5effa9" stroke-width="1.0" stroke-linejoin="round" stroke-linecap="butt" d="m194.23753 241.3937l0 53.811005" fill-rule="evenodd"></path><path fill="#5effa9" stroke="#5effa9" stroke-width="1.0" stroke-linecap="butt" d="m192.5858 295.2047l1.6517334 4.5381165l1.6517334 -4.5381165z" fill-rule="evenodd"></path><path fill="#000000" fill-opacity="0.0" d="m161.34251 241.3937l0 59.811005" fill-rule="evenodd"></path><path stroke="#5effa9" stroke-width="1.0" stroke-linejoin="round" stroke-linecap="butt" d="m161.34251 247.3937l0 53.811005" fill-rule="evenodd"></path><path fill="#5effa9" stroke="#5effa9" stroke-width="1.0" stroke-linecap="butt" d="m162.99425 247.3937l-1.6517334 -4.538101l-1.6517334 4.538101z" fill-rule="evenodd"></path><path fill="#000000" fill-opacity="0.0" d="m189.51575 405.2362l0 59.811035" fill-rule="evenodd"></path><path stroke="#5effa9" stroke-width="1.0" stroke-linejoin="round" stroke-linecap="butt" d="m189.51575 405.2362l0 53.811035" fill-rule="evenodd"></path><path fill="#5effa9" stroke="#5effa9" stroke-width="1.0" stroke-linecap="butt" d="m187.86401 459.04724l1.6517334 4.538086l1.6517334 -4.538086z" fill-rule="evenodd"></path><path fill="#000000" fill-opacity="0.0" d="m156.62073 405.2362l0 59.811035" fill-rule="evenodd"></path><path stroke="#5effa9" stroke-width="1.0" stroke-linejoin="round" stroke-linecap="butt" d="m156.62073 411.2362l0 53.811035" fill-rule="evenodd"></path><path fill="#5effa9" stroke="#5effa9" stroke-width="1.0" stroke-linecap="butt" d="m158.27246 411.2362l-1.6517334 -4.538086l-1.6517181 4.538086z" fill-rule="evenodd"></path><path fill="#000000" fill-opacity="0.0" d="m407.67978 51.052494c-12.383636 3.0074348 -52.364807 3.3608932 -74.30182 18.04462c-21.937012 14.683723 -47.766846 58.381447 -57.32022 70.05775" fill-rule="evenodd"></path><path stroke="#5effa9" stroke-width="1.0" stroke-linejoin="round" stroke-linecap="butt" d="m407.67978 51.052494c-12.383636 3.0074387 -52.364807 3.3608932 -74.30182 18.04462c-10.968506 7.3418655 -22.910217 21.937218 -33.303986 36.156662c-5.196869 7.1097107 -10.006744 14.12545 -14.114502 20.093521c-2.053894 2.9840317 -3.9322205 5.706154 -5.595642 8.047157c-0.20791626 0.2926178 -0.4125061 0.57928467 -0.61364746 0.8597717l-0.07952881 0.1103363" fill-rule="evenodd"></path><path fill="#5effa9" stroke="#5effa9" stroke-width="1.0" stroke-linecap="butt" d="m278.35193 133.36998l-1.4139099 4.6177216l4.051361 -2.62854z" fill-rule="evenodd"></path></g></svg>

