<?xml version="1.0" standalone="yes"?>

<svg version="1.1" viewBox="0.0 0.0 706.0 672.0" fill="none" stroke="none" stroke-linecap="square" stroke-miterlimit="10" xmlns="http://www.w3.org/2000/svg" xmlns:xlink="http://www.w3.org/1999/xlink"><clipPath id="p.0"><path d="m0 0l706.0 0l0 672.0l-706.0 0l0 -672.0z" clip-rule="nonzero"></path></clipPath><g clip-path="url(#p.0)"><path fill="#000000" fill-opacity="0.0" d="m0 0l706.0 0l0 672.0l-706.0 0z" fill-rule="evenodd"></path><path fill="#000000" fill-opacity="0.0" d="m283.60477 157.3631l0.03149414 -128.28346l57.637787 0l-0.03149414 128.28346z" fill-rule="evenodd"></path><path fill="#fcfcfc" d="m320.96817 138.97247l-8.702667 -1.84375q-0.42208862 0.921875 -0.6097717 1.6875q-0.1876831 0.75 -0.26602173 1.53125q1.4685974 0.671875 3.0153198 1.25q1.5467529 0.5625 3.0153809 0.984375q1.4530334 0.40625 2.7342224 0.640625q1.265564 0.234375 2.203064 0.234375q0.578125 0 0.8750305 -0.09375q0.29690552 -0.09375 0.46881104 -0.234375q-1.2207031E-4 0.484375 -0.04711914 1.046875q-0.047027588 0.546875 -0.29714966 1.046875q-0.23449707 0.484375 -0.7501831 0.8125q-0.51571655 0.3125 -1.4532166 0.3125q-0.796875 0 -1.906189 -0.25q-1.124939 -0.25 -2.406067 -0.71875q-1.2811279 -0.46875 -2.6716003 -1.109375q-1.4060974 -0.65625 -2.7809143 -1.453125q0.07785034 1.140625 0.35894775 1.859375q0.2654419 0.71875 0.89038086 0.953125q3.0517578E-5 -0.09375 0.23440552 -0.203125q0.23440552 -0.109375 0.5156555 -0.109375q0.421875 0 0.68740845 0.390625q0.24990845 0.390625 0.24978638 0.953125q-9.1552734E-5 0.3125 -0.09390259 0.59375q-0.093811035 0.265625 -0.25012207 0.46875q-0.17193604 0.1875 -0.43759155 0.3125q-0.265625 0.109375 -0.625 0.109375q-0.609375 0 -1.140564 -0.359375q-0.5467529 -0.375 -0.93722534 -1.03125q-0.4060974 -0.65625 -0.6402588 -1.546875q-0.23413086 -0.90625 -0.23388672 -1.953125q1.2207031E-4 -0.5 0.078430176 -1.25q-1.4372864 -0.921875 -2.7182617 -1.9375q-1.2966309 -1.015625 -2.2495117 -2.09375q-0.96847534 -1.078125 -1.5307007 -2.171875q-0.57785034 -1.09375 -0.5776062 -2.140625q1.2207031E-4 -0.421875 0.07836914 -0.9375q0.06262207 -0.53125 0.26583862 -0.96875l17.655334 3.765625l-8.544922E-4 3.453125zm-16.29602 -3.453125q0.28112793 0.53125 0.82785034 1.09375q0.5467529 0.5625 1.2966003 1.109375q0.7342529 0.53125 1.6560059 1.078125q0.9060974 0.53125 1.9059753 1.046875q0.1408081 -0.734375 0.3441162 -1.484375q0.2033081 -0.75 0.4847412 -1.453125l-6.5152893 -1.390625zm16.297424 -2.265625l-11.999359 -2.546875l8.544922E-4 -3.4687424l1.4842834 0.3125q-0.28115845 -0.3125 -0.5467224 -0.640625q-0.26553345 -0.328125 -0.4685669 -0.6875q-0.21865845 -0.359375 -0.3435669 -0.75q-0.12490845 -0.390625 -0.12478638 -0.8125q9.1552734E-5 -0.421875 0.15640259 -0.71875q0.14071655 -0.3125 0.39074707 -0.515625q0.25006104 -0.21875 0.57821655 -0.328125q0.32815552 -0.109375 0.6719055 -0.109375q0.328125 0 0.6405945 0.109375q0.29684448 0.109375 0.54678345 0.328125q0.24996948 0.203125 0.40612793 0.53125q0.15618896 0.328125 0.1560669 0.765625q-9.1552734E-5 0.34375 -0.10949707 0.53125q-0.12506104 0.171875 -0.29693604 0.265625q-0.17190552 0.09375 -0.37506104 0.140625q-0.21875 0.03125 -0.390625 0.078125q-0.17190552 0.046875 -0.28128052 0.125q-0.12503052 0.078125 -0.12506104 0.25q-1.5258789E-4 0.5625 0.24975586 0.9375q0.24990845 0.375 0.6560669 0.8125l9.124512 1.9218674l-8.544922E-4 3.46875zm-9.119232 -23.42968q0.7498169 0.703125 1.2651672 1.8125q0.51535034 1.109375 0.73379517 2.4375q1.6562195 0.140625 2.9998474 0.640625q1.3280029 0.5 2.2652893 1.265625q0.9373169 0.75 1.4526978 1.734375q0.49978638 0.984375 0.49951172 2.09375q-2.1362305E-4 0.828125 -0.20352173 1.546875q-0.2033081 0.703125 -0.6565552 1.21875q-0.45324707 0.5 -1.1720581 0.78125q-0.71881104 0.296875 -1.750061 0.296875q-0.703125 0 -1.5937195 -0.15625q-0.9062195 -0.140625 -1.8592529 -0.453125q-0.95306396 -0.328125 -1.8591919 -0.84375q-0.9061279 -0.515625 -1.6090698 -1.234375q-0.7185669 -0.734375 -1.1558228 -1.6875q-0.45288086 -0.96875 -0.45257568 -2.203125q7.324219E-4 -3.078125 3.8444824 -3.078125l0.015625 0q0.031280518 -0.0625 0.031280518 -0.109375q3.0517578E-5 -0.0625 3.0517578E-5 -0.15625q1.2207031E-4 -0.421875 -0.12475586 -0.90625q-0.12487793 -0.484375 -0.32788086 -0.96875q-0.20300293 -0.5 -0.45291138 -0.96875q-0.26550293 -0.46875 -0.5466614 -0.859375l0.65631104 -0.203125zm2.0609741 6.234375q-0.09384155 0.375 -0.35949707 0.515625q-0.28131104 0.140625 -0.64068604 0.140625q-0.5 0 -0.82806396 -0.203125q-0.32806396 -0.21875 -0.46862793 -0.546875q-0.390625 0.015625 -0.65625 0.078125q-0.26565552 0.0625 -0.43756104 0.171875q-0.171875 0.09375 -0.23443604 0.25q-0.07815552 0.15625 -0.07821655 0.40625q-9.1552734E-5 0.4375 0.34353638 0.84375q0.32803345 0.390625 0.8904419 0.75q0.54678345 0.359375 1.2498474 0.65625q0.70306396 0.296875 1.4530029 0.515625q0.74993896 0.203125 1.4842834 0.328125q0.7343445 0.109375 1.3280945 0.109375q0.609375 0 0.9844055 -0.0625q0.375 -0.0625 0.59381104 -0.203125q0.20315552 -0.15625 0.29696655 -0.390625q0.078186035 -0.234375 0.07824707 -0.578125q1.2207031E-4 -0.4375 -0.39041138 -0.875q-0.39050293 -0.4375 -1.0466614 -0.8125q-0.67178345 -0.375 -1.5779724 -0.65625q-0.92178345 -0.296875 -1.9842529 -0.4375zm2.7696533 -16.410156q0.96865845 0.34375 1.6873169 0.75q0.70303345 0.390625 1.2029114 0.8125q0.48428345 0.421875 0.7966614 0.875q0.29678345 0.4375 0.46853638 0.859375q0.17178345 0.421875 0.2185669 0.8125q0.062408447 0.390625 0.062316895 0.703125q-2.4414062E-4 1.03125 -0.5628967 1.640625q-0.5782776 0.609375 -1.7189331 0.734375q0.7498779 0.46875 1.2028809 0.9375q0.43740845 0.46875 0.6872864 0.921875q0.23425293 0.453125 0.31228638 0.890625q0.07800293 0.4375 0.07791138 0.8125q-1.2207031E-4 0.53125 -0.15649414 1.0q-0.17199707 0.46875 -0.5158081 0.8125q-0.35946655 0.34375 -0.8907776 0.546875q-0.5469055 0.203125 -1.3125305 0.203125q-0.328125 0 -0.71875 -0.046875q-0.390625 -0.046875 -0.8437195 -0.140625l-7.7027283 -1.625l8.544922E-4 -3.46875l8.155823 1.734375q0.375 0.0625 0.671875 0.0625q0.421875 0 0.7031555 -0.140625q0.28128052 -0.15625 0.28137207 -0.578125q9.1552734E-5 -0.34375 -0.1560669 -0.640625q-0.15618896 -0.296875 -0.43737793 -0.53125q-0.28118896 -0.234375 -0.67178345 -0.421875q-0.39056396 -0.1875 -0.84365845 -0.328125l-7.7027283 -1.625l8.544922E-4 -3.453125l8.155823 1.71875q0.20309448 0.0625 0.39059448 0.09375q0.1875 0.015625 0.375 0.015625q0.515625 0 0.70318604 -0.234375q0.18756104 -0.25 0.1876831 -0.75q9.1552734E-5 -0.359375 -0.15609741 -0.65625q-0.15615845 -0.296875 -0.4373474 -0.53125q-0.28118896 -0.25 -0.67178345 -0.4375q-0.39056396 -0.1875 -0.84365845 -0.328125l2.4414062E-4 -1.0zm0.0022277832 -9.1640625q1.0779114 0.9375 1.7964172 1.890625q0.7029114 0.9375 1.2026978 1.78125q0.39053345 0.375 0.6716614 0.84375q0.26553345 0.453125 0.43725586 0.953125q0.17175293 0.5 0.24975586 1.015625q0.07800293 0.5 0.07791138 0.953125q-2.4414062E-4 0.90625 -0.26602173 1.578125q-0.2814026 0.65625 -0.71902466 1.09375q-0.45321655 0.421875 -0.9845276 0.625q-0.54693604 0.21875 -1.109436 0.21875q-0.421875 0 -0.7655945 -0.125q-0.35934448 -0.109375 -0.64053345 -0.28125q-0.28121948 -0.171875 -0.48428345 -0.40625q-0.21868896 -0.234375 -0.32800293 -0.46875q-1.8122559 -1.015625 -3.5621033 -1.703125q-1.7654419 -0.6875 -3.5465698 -1.25l-0.467865 -3.5625q1.5469055 -0.0625 2.7031555 -0.125q1.1406555 -0.0625 1.9844055 -0.125q0.8281555 -0.0625 1.4219055 -0.109375q0.578125 -0.046875 1.0312805 -0.078125q0.453125 -0.046875 0.828125 -0.0625q0.359375 -0.015625 0.75 -0.015625q0.28125 0 0.5 0.015625q0.21875 0.015625 0.42184448 0.078125q-0.3123474 -0.53125 -0.60913086 -0.953125q-0.29675293 -0.4375 -0.5935669 -0.78125l2.4414062E-4 -1.0zm0.85702515 9.671875q0.84375 0 1.265686 -0.328125q0.40634155 -0.34375 0.40652466 -1.140625q1.2207031E-4 -0.40625 -0.10916138 -0.78125q-0.10928345 -0.375 -0.3748474 -0.65625q-0.26556396 -0.296875 -0.6873779 -0.46875q-0.42184448 -0.1875 -1.0468445 -0.1875q-0.3125 0 -0.59375 0.03125q-0.28125 0.015625 -0.609375 0.046875q-0.328125 0.015625 -0.7187805 0.0625q-0.40625 0.03125 -0.9219055 0.09375q-0.53125 0.046875 -1.21875 0.109375q-0.7031555 0.046875 -1.6250305 0.125q1.1717834 0.359375 2.2810364 0.859375q1.0936279 0.484375 2.2497253 1.078125q0.14068604 -0.234375 0.34384155 -0.390625q0.18753052 -0.15625 0.5000305 -0.15625q0.21875 0 0.4375 0.078125q0.20309448 0.0625 0.37493896 0.203125q0.17184448 0.140625 0.26553345 0.34375q0.09371948 0.1875 0.09365845 0.421875q-6.1035156E-5 0.203125 -0.046966553 0.390625q-0.062561035 0.171875 -0.26568604 0.265625zm-0.85391235 -22.289062q0.96865845 0.328125 1.6873169 0.734375q0.70303345 0.390625 1.2029114 0.828125q0.48428345 0.421875 0.7966614 0.875q0.29678345 0.4375 0.46853638 0.859375q0.17178345 0.421875 0.2185669 0.8125q0.062408447 0.390625 0.062316895 0.703125q-2.4414062E-4 1.015625 -0.5472717 1.625q-0.5626526 0.59375 -1.6564331 0.734375q0.40618896 0.28125 0.7967224 0.640625q0.39053345 0.34375 0.7029419 0.78125q0.31237793 0.4375 0.51538086 0.96875q0.18737793 0.53125 0.18722534 1.171875q-1.5258789E-4 0.625 -0.20343018 1.203125q-0.20327759 0.578125 -0.65649414 1.03125q-0.45324707 0.4375 -1.1876831 0.703125q-0.75006104 0.265625 -1.812561 0.265625q-0.8125 0 -1.7499695 -0.171875q-0.93743896 -0.15625 -1.8748779 -0.484375q-0.93740845 -0.34375 -1.7966614 -0.859375q-0.8748779 -0.515625 -1.5309448 -1.1875q-0.6560974 -0.6875 -1.0465088 -1.546875q-0.40603638 -0.875 -0.40576172 -1.921875q2.4414062E-4 -1.015625 0.3597107 -1.484375q0.34387207 -0.46875 0.8594971 -0.46875l0.1875 0l-1.281189 -0.25l8.544922E-4 -3.453125l8.155823 1.71875q0.203125 0.0625 0.39059448 0.09375q0.1875 0.015625 0.375 0.015625q1.03125 0 1.0314941 -0.984375q9.1552734E-5 -0.359375 -0.1716919 -0.65625q-0.18743896 -0.296875 -0.48425293 -0.546875q-0.31243896 -0.25 -0.71865845 -0.4375q-0.42181396 -0.1875 -0.87490845 -0.3125l2.4414062E-4 -1.0zm-5.4233704 6.046875q-0.109375 0 -0.265625 0.046875q-0.15625 0.046875 -0.29690552 0.15625q-0.15628052 0.109375 -0.25009155 0.296875q-0.09378052 0.1875 -0.09387207 0.484375q-1.2207031E-4 0.5 0.32791138 0.953125q0.32800293 0.453125 0.8747864 0.828125q0.53115845 0.375 1.2342224 0.671875q0.68740845 0.28125 1.4217529 0.484375q0.73431396 0.203125 1.4374084 0.3125q0.7030945 0.109375 1.2655945 0.109375q0.703125 0 1.0781555 -0.125q0.37506104 -0.140625 0.56259155 -0.3125q0.17190552 -0.1875 0.20321655 -0.390625q0.031311035 -0.21875 0.031341553 -0.375q6.1035156E-5 -0.28125 -0.12484741 -0.578125q-0.14056396 -0.296875 -0.40612793 -0.5625q-0.26553345 -0.28125 -0.6561279 -0.5q-0.40618896 -0.234375 -0.92178345 -0.359375l-5.4216003 -1.140625zm5.4249573 -12.464844q0.96865845 0.34375 1.6872864 0.765625q0.70303345 0.40625 1.2029419 0.859375q0.48425293 0.453125 0.79663086 0.9375q0.29675293 0.46875 0.46853638 0.921875q0.17175293 0.4375 0.21853638 0.84375q0.062408447 0.390625 0.062316895 0.71875q-1.2207031E-4 0.53125 -0.15649414 1.0q-0.17199707 0.46875 -0.5158386 0.8125q-0.35943604 0.34375 -0.8907471 0.546875q-0.54693604 0.203125 -1.312561 0.203125q-0.328125 0 -0.7187195 -0.046875q-0.390625 -0.046875 -0.8437195 -0.140625l-12.030609 -2.5625l-0.4835205 -3.5625l12.968079 2.765625q0.203125 0.046875 0.39059448 0.078125q0.1875 0.015625 0.375 0.015625q0.515625 0 0.70318604 -0.234375q0.18756104 -0.234375 0.1876831 -0.75q9.1552734E-5 -0.34375 -0.1560669 -0.671875q-0.15618896 -0.34375 -0.4373474 -0.625q-0.28118896 -0.28125 -0.6717529 -0.5q-0.39059448 -0.21875 -0.84368896 -0.359375l2.746582E-4 -1.015625z" fill-rule="nonzero"></path><path fill="#000000" fill-opacity="0.0" d="m17.041456 486.804l111.1181 -64.12598l28.818909 49.921234l-111.11812 64.12598z" fill-rule="evenodd"></path><path fill="#fcfcfc" d="m45.47794 513.5297l-4.817295 -14.845276l2.8511963 -2.186615l4.2223816 13.095917q0.8027458 0.077941895 1.4252701 -0.28131104q0.62252426 -0.35928345 0.9315834 -1.0427551q0.3147812 -0.704834 0.3650627 -1.6177979q0.063812256 -0.9208069 -0.11344147 -2.0091858q-0.16372299 -1.0961609 -0.5060158 -2.251648q-0.3501053 -1.1690063 -0.8454437 -2.308319q-0.50315094 -1.1528625 -1.1124763 -2.2083435q-0.6093254 -1.0555115 -1.2690392 -1.6669922q-0.6539955 -0.632843 -1.325592 -0.8586426q-0.6658745 -0.24713135 -1.3457222 -0.14343262q-0.6876602 0.09017944 -1.3778496 0.48846436q-1.1503181 0.6638489 -1.9486618 1.5936279q-0.7926216 0.90841675 -1.1406288 1.9932251q-0.3558197 1.0712891 -0.23632812 2.2471008q0.11949158 1.1758118 0.80693436 2.3666382q0.22654343 0.39242554 0.4155693 0.62609863q0.19474792 0.21234131 0.33480835 0.32995605q0.14006424 0.117614746 0.22753525 0.175354q0.08747101 0.057769775 0.11871719 0.11190796q-1.0420494 0.6013489 -1.8874893 0.5119629q-0.83190155 -0.09719849 -1.441227 -1.1526794q-0.41402817 -0.7171936 -0.53395844 -1.5499878q-0.11420822 -0.8541565 0.034980774 -1.7520752q0.16272736 -0.9057007 0.56959915 -1.8260498q0.42040634 -0.9281311 1.0620728 -1.7855225q0.64738846 -0.87872314 1.5181274 -1.6518555q0.8629265 -0.7866211 1.9185104 -1.3957825q1.0014534 -0.5779419 1.9327087 -0.8086853q0.92344666 -0.24429321 1.780323 -0.1975708q0.8490677 0.033172607 1.602417 0.33807373q0.76688004 0.2970581 1.4203224 0.8039551q0.6669769 0.49905396 1.2397728 1.1787415q0.57279587 0.6796875 1.0258827 1.4645386q0.6874428 1.1908264 1.1661682 2.5201416q0.47091293 1.3157654 0.7247467 2.6305542q0.25383377 1.3147583 0.25933838 2.5744019q0.019039154 1.251831 -0.21080399 2.3225708q-0.22983932 1.0707092 -0.7262726 1.898407q-0.4907112 0.80636597 -1.2621002 1.2515259q-0.6089897 0.35144043 -1.4012833 0.44787598q-0.7709503 0.102142334 -1.7835159 -0.0892334l0.30840302 0.94052124l-2.9772873 1.7182007zm18.938152 -21.46466q-0.23402405 1.0009766 -0.9370842 2.0020447q-0.70306015 1.0010681 -1.7440109 1.8543396q0.7062607 1.5046997 0.94501877 2.9183655q0.2309494 1.4001465 0.03653717 2.594757q-0.18087769 1.1867981 -0.7756767 2.1253662q-0.6026039 0.9250488 -1.5634575 1.4795532q-0.71725464 0.41394043 -1.4413338 0.5972595q-0.7105446 0.17553711 -1.3836823 0.04083252q-0.6596031 -0.14248657 -1.2625465 -0.62438965q-0.61647415 -0.47409058 -1.1320572 -1.3671875q-0.35153198 -0.60894775 -0.66147995 -1.458374q-0.33128738 -0.8551636 -0.5371475 -1.836792q-0.1923294 -0.98947144 -0.19882202 -2.0320435q-0.0064964294 -1.0426025 0.26449585 -2.0108032q0.2767105 -0.9895325 0.88349915 -1.8448486q0.6125107 -0.87661743 1.6816254 -1.4936218q2.666027 -1.5385437 4.5877457 1.7903137l0.0078125 0.013549805q0.069755554 -0.004180908 0.11035538 -0.027618408q0.054130554 -0.031219482 0.1353302 -0.07809448q0.3653946 -0.21087646 0.72242737 -0.56121826q0.35703278 -0.3503723 0.67500305 -0.7684021q0.33150482 -0.4258423 0.6125107 -0.87664795q0.27319336 -0.46432495 0.4709053 -0.9031677l0.50403214 0.4668274zm-4.368553 4.9023743q-0.37166595 0.10626221 -0.6262665 -0.053497314q-0.26241302 -0.17327881 -0.44208527 -0.4845276q-0.24998093 -0.43301392 -0.23809814 -0.8187256q0.025413513 -0.39352417 0.23930359 -0.6793213q-0.20882797 -0.33047485 -0.3957634 -0.52926636q-0.18693542 -0.19882202 -0.36759567 -0.29299927q-0.16712952 -0.101989746 -0.33370972 -0.07803345q-0.17438889 0.010437012 -0.39091873 0.1354065q-0.37892914 0.21868896 -0.55892944 0.7194519q-0.17427826 0.47940063 -0.20431137 1.1461792q-0.037849426 0.6532593 0.0565567 1.4105835q0.09440231 0.7573242 0.27990723 1.5162048q0.19903946 0.7510681 0.45793152 1.4495544q0.2724266 0.6906738 0.5692749 1.204895q0.3046646 0.5277405 0.5462799 0.82128906q0.24161911 0.29351807 0.47278214 0.4126892q0.23688507 0.09780884 0.48675537 0.06185913q0.24205399 -0.04949951 0.5397835 -0.22131348q0.37892914 -0.21868896 0.5625572 -0.7756653q0.1836319 -0.5569763 0.18032837 -1.3127441q-0.011112213 -0.7693176 -0.22060394 -1.6947632q-0.20376968 -0.94677734 -0.61317825 -1.9372559zm20.738457 -8.774994q0.28771973 1.5297546 0.23226929 2.5900269q-0.06326294 1.0467834 -0.34316254 1.7495117q-0.28771973 0.689209 -0.7046051 1.0921631q-0.41688538 0.40292358 -0.8364105 0.64505005q-0.6901932 0.39831543 -1.2732162 0.48220825q-0.577301 0.062561035 -1.0489807 -0.09820557q-0.4794922 -0.17428589 -0.8569946 -0.51568604q-0.3639679 -0.34921265 -0.6217575 -0.79577637q-0.3046646 -0.5277405 -0.5620117 -1.3173218q-0.26516724 -0.8031006 -0.5246124 -1.627533q-0.25371552 -0.8457947 -0.50325775 -1.6218567q-0.24954224 -0.7760315 -0.53858185 -1.2767029q-0.6171341 -1.0690308 -1.3614578 -0.63949585q-0.28419495 0.16400146 -0.4340515 0.46697998q-0.15766144 0.2894287 -0.2122345 0.6636963q-0.05457306 0.37423706 -0.01386261 0.8197937q0.04071045 0.44555664 0.1454544 0.90826416l2.430275 7.491333l-2.9908218 1.7260132l-2.6110458 -8.054504q-0.08647919 -0.2748108 -0.25052643 -0.5589905q-0.10155487 -0.17590332 -0.22236633 -0.32269287q-0.12080383 -0.14675903 -0.27231598 -0.22167969q-0.15931702 -0.08847046 -0.32017517 -0.08584595q-0.15513611 -0.018707275 -0.33106232 0.08282471q-0.31126404 0.17962646 -0.48246002 0.47686768q-0.17120361 0.2972412 -0.23149109 0.6928406q-0.05457306 0.37426758 -0.00605011 0.8333435q0.04071045 0.44555664 0.1454544 0.90826416l2.4438019 7.4835205l-3.0043564 1.7338257l-3.7936058 -11.665619l3.0043526 -1.7337952l0.38707733 1.2017822q0.12740326 -0.5606079 0.31939697 -0.9780884q0.20552826 -0.42529297 0.46001434 -0.7345276q0.24668121 -0.3227539 0.5209732 -0.53515625q0.28001404 -0.23376465 0.564209 -0.3977661q0.40599823 -0.23431396 0.82035065 -0.32910156q0.40654755 -0.1083374 0.8022003 -0.048034668q0.4013672 0.038970947 0.7861328 0.26794434q0.384758 0.22894287 0.74718475 0.6692505q0.050827026 -0.7870178 0.24018097 -1.3653564q0.18935394 -0.5783081 0.4667282 -0.9729004q0.26956177 -0.4081421 0.57663727 -0.6575012q0.31280518 -0.27072144 0.5970001 -0.4347229q0.5007248 -0.28897095 0.99837494 -0.39575195q0.48983002 -0.12033081 0.9651413 -0.015777588q0.47531128 0.104522705 0.8955002 0.45736694q0.43372345 0.34503174 0.79306793 0.9674988q0.24216461 0.41949463 0.44219208 0.9535217q0.20574951 0.5126648 0.38652802 1.0758057q0.18077087 0.5631714 0.3344803 1.1419678q0.16723633 0.5709839 0.32457733 1.0935364q0.1495285 0.5090332 0.29486847 0.94833374q0.15888214 0.43145752 0.33074188 0.729187q0.21873474 0.37887573 0.5352783 0.52093506q0.31654358 0.14202881 0.7901993 -0.13131714q0.33833313 -0.19525146 0.51161957 -0.45761108q0.17900848 -0.2836914 0.24139404 -0.6444397q0.06238556 -0.36071777 0.02948761 -0.7927246q-0.019371033 -0.43984985 -0.09132385 -0.93951416l0.87965393 -0.5076599zm-1.1819305 -11.891937q0.19529724 0.33831787 0.23963928 0.7276306q0.03652954 0.37582397 -0.06855011 0.72509766q-0.10507202 0.34927368 -0.32468414 0.6564026q-0.22741699 0.29360962 -0.5657501 0.48886108q-0.35186005 0.20306396 -0.7198944 0.25308228q-0.37584686 0.036499023 -0.7309036 -0.04724121q-0.3415146 -0.091552734 -0.6487045 -0.31115723q-0.30147552 -0.24093628 -0.49677277 -0.57922363q-0.20310974 -0.35183716 -0.2531662 -0.71984863q-0.03652954 -0.37579346 0.047195435 -0.73080444q0.09725952 -0.36279297 0.32468414 -0.6564026q0.21961212 -0.30715942 0.57147217 -0.5102234q0.3383255 -0.19522095 0.71417236 -0.23171997q0.36803436 -0.050048828 0.7309036 0.04724121q0.36286163 0.09725952 0.6700592 0.316864q0.30718994 0.21960449 0.5102997 0.57144165zm6.730507 8.68988q0.18660736 1.0108032 0.18055725 1.8441467q-3.2043457E-4 0.8119812 -0.142807 1.4714966q-0.15029144 0.6459961 -0.41358185 1.1587524q-0.25756836 0.49139404 -0.56409454 0.86672974q-0.29299927 0.3675232 -0.62142944 0.61117554q-0.3070755 0.24938965 -0.59127045 0.4133911q-0.46012878 0.26553345 -0.9442444 0.36453247q-0.49192047 0.08544922 -0.9615097 -0.04046631q-0.47740173 -0.1394043 -0.9189377 -0.49795532q-0.44934845 -0.37210083 -0.8321228 -1.0351562q-0.16405487 -0.2841797 -0.31874847 -0.64590454q-0.15470123 -0.36172485 -0.3000412 -0.8010254l-2.4438019 -7.4835205l3.0043564 -1.7337952l2.5756073 7.930603q0.060958862 0.19934082 0.12763214 0.37734985q0.080207825 0.17019653 0.1739502 0.33258057q0.25779724 0.44656372 0.5545349 0.49179077q0.29673767 0.04522705 0.7433319 -0.2124939q0.2977295 -0.17181396 0.50380707 -0.47113037q0.21960449 -0.30715942 0.3225937 -0.6913147q0.10298157 -0.38415527 0.09714508 -0.8317871q-0.0058288574 -0.44763184 -0.110572815 -0.9103699l0.8796463 -0.5076294zm10.491562 -6.054657q0.30125427 1.5219421 0.24580383 2.5822144q-0.06326294 1.0467529 -0.34316254 1.7495117q-0.28771973 0.689209 -0.71813965 1.0999451q-0.41688538 0.4029541 -0.8364105 0.64505005q-0.69018555 0.39831543 -1.2732162 0.48220825q-0.577301 0.062561035 -1.0489807 -0.09820557q-0.4794922 -0.17428589 -0.8434601 -0.523468q-0.3639679 -0.34921265 -0.6217575 -0.79577637q-0.3046646 -0.5277405 -0.57554626 -1.3095093q-0.26516724 -0.8031006 -0.5110779 -1.635376q-0.25371552 -0.84576416 -0.50325775 -1.6218262q-0.24954224 -0.7760315 -0.53858185 -1.2767334q-0.6171341 -1.0690308 -1.3749924 -0.63165283q-0.28419495 0.16400146 -0.43404388 0.46697998q-0.15766907 0.2894287 -0.21224213 0.6636658q-0.05457306 0.37426758 -0.01386261 0.8198242q0.04071045 0.44555664 0.14546204 0.90826416l2.4438019 7.4835205l-3.0043564 1.7337952l-3.7936096 -11.665588l3.0043564 -1.7338257l0.3870697 1.2018127q0.12741089 -0.5606079 0.3194046 -0.9781189q0.20552826 -0.42529297 0.4464798 -0.7266846q0.24095917 -0.30142212 0.48818207 -0.49822998q0.26076508 -0.20458984 0.5043564 -0.34518433q0.5007248 -0.28897095 0.99837494 -0.39575195q0.50336456 -0.1281128 0.97867584 -0.023590088q0.47531128 0.10455322 0.8955002 0.45739746q0.43372345 0.34503174 0.79306793 0.9674988q0.24216461 0.41949463 0.44219208 0.9534912q0.20574951 0.5126648 0.38652802 1.0758362q0.18077087 0.5631714 0.3344803 1.1419678q0.16723633 0.57095337 0.3110428 1.1013489q0.1495285 0.5090332 0.2948761 0.9483032q0.15887451 0.43148804 0.33073425 0.729187q0.21873474 0.37890625 0.5352783 0.52093506q0.31654358 0.14205933 0.8037338 -0.13909912q0.32479858 -0.18743896 0.51161957 -0.45761108q0.17900848 -0.28372192 0.24139404 -0.6444397q0.06238556 -0.36071777 0.02948761 -0.7927551q-0.019371033 -0.43981934 -0.09132385 -0.93948364l0.8661194 -0.4998474zm10.928001 -6.3065186q0.20013428 1.0029907 0.20761871 1.8285217q0.013206482 0.8041992 -0.115737915 1.4559021q-0.12322998 0.6303406 -0.3594513 1.1274719q-0.23049927 0.47579956 -0.509964 0.83551025q-0.27946472 0.3597107 -0.59436035 0.59558105q-0.30708313 0.24935913 -0.57774353 0.4055481q-0.87965393 0.5076599 -1.6808624 0.33862305q-0.79548645 -0.19036865 -1.4641113 -1.0673218q-0.040489197 0.49240112 -0.156456 1.0103455q-0.10243225 0.5101013 -0.32511902 0.99942017q-0.2226944 0.48931885 -0.5812607 0.93078613q-0.3663864 0.42791748 -0.92124176 0.7481384q-0.54132843 0.31237793 -1.1436081 0.42544556q-0.60227966 0.11303711 -1.221283 -0.052886963q-0.6054764 -0.17376709 -1.2026901 -0.67700195q-0.6050339 -0.51675415 -1.1362457 -1.4369507q-0.40621185 -0.7036438 -0.72605896 -1.601471q-0.33338165 -0.89004517 -0.51789856 -1.8659668q-0.17098236 -0.98373413 -0.15403748 -1.9857178q0.009124756 -1.0155334 0.2629547 -1.9197083q0.26735687 -0.9119873 0.81638336 -1.6798096q0.55474854 -0.7891846 1.4614639 -1.3124695q0.87965393 -0.5076294 1.4653244 -0.43069458q0.57785034 0.06338501 0.83563995 0.50994873l0.09374237 0.16238403l-0.42404175 -1.2345886l2.9908218 -1.7259827l2.5891495 7.9227905q0.047424316 0.20718384 0.114097595 0.38516235q0.080207825 0.17019653 0.1739502 0.33258057q0.5155792 0.89312744 1.3681717 0.40109253q0.31126404 -0.17962646 0.48246002 -0.47686768q0.16338348 -0.3107605 0.23149109 -0.6928406q0.060295105 -0.39559937 0.019584656 -0.841156q-0.04852295 -0.45907593 -0.16680145 -0.91397095l0.8661194 -0.4998474zm-7.948036 -1.6731567q-0.0546875 -0.09472656 -0.17340088 -0.20663452q-0.11872101 -0.11187744 -0.28376007 -0.1789856q-0.17285156 -0.08065796 -0.38211823 -0.06814575q-0.20926666 0.012542725 -0.46640015 0.16091919q-0.4330597 0.24990845 -0.6614685 0.7605896q-0.22840881 0.51065063 -0.2797928 1.1717224q-0.059188843 0.647522 0.035217285 1.4048462q0.100120544 0.73599243 0.29135132 1.4735107q0.19122314 0.7375488 0.44802856 1.4011536q0.2567978 0.66360474 0.5380249 1.1507568q0.35153198 0.60894775 0.64728546 0.87124634q0.3092804 0.25445557 0.5518875 0.33093262q0.24832916 0.055145264 0.43988037 -0.019317627q0.20509338 -0.08227539 0.34042358 -0.16036987q0.24359131 -0.14059448 0.4382248 -0.3972168q0.18682861 -0.27020264 0.28408813 -0.6329956q0.11079407 -0.370636 0.10496521 -0.8182678q-1.1444092E-4 -0.46899414 -0.14964294 -0.97802734l-1.7227936 -5.2657166zm18.446358 -4.3854065q0.30125427 1.5219421 0.24580383 2.5822144q-0.06326294 1.0467834 -0.34316254 1.7495117q-0.2877121 0.689209 -0.718132 1.0999451q-0.41688538 0.4029541 -0.83641815 0.64508057q-0.69018555 0.3982849 -1.2732086 0.48217773q-0.57730865 0.062561035 -1.0489883 -0.09817505q-0.4794922 -0.1743164 -0.8434601 -0.52349854q-0.36396027 -0.34921265 -0.6217575 -0.79577637q-0.30465698 -0.5277405 -0.57554626 -1.3095093q-0.2651596 -0.8031006 -0.51107025 -1.6353455q-0.25372314 -0.8457947 -0.5032654 -1.6218567q-0.24954224 -0.7760315 -0.53858185 -1.2767029q-0.6171341 -1.0690308 -1.3749847 -0.63168335q-0.28420258 0.16400146 -0.4340515 0.46697998q-0.15766907 0.2894287 -0.21224213 0.6636658q-0.05456543 0.37426758 -0.0138549805 0.8198242q0.04071045 0.44555664 0.1454544 0.90826416l2.4438019 7.4835205l-3.0043564 1.7337952l-3.7936096 -11.665588l3.0043564 -1.7338257l0.38707733 1.2018127q0.12740326 -0.5606079 0.31939697 -0.9780884q0.20552826 -0.42529297 0.4464798 -0.7267151q0.24095917 -0.30142212 0.48818207 -0.49822998q0.26076508 -0.20458984 0.5043564 -0.34518433q0.5007324 -0.28894043 0.99837494 -0.39575195q0.50336456 -0.1281128 0.97867584 -0.023590088q0.47531128 0.10455322 0.8955002 0.45739746q0.43372345 0.34503174 0.79306793 0.9674988q0.24217224 0.41949463 0.4421997 0.9534912q0.20574951 0.5126953 0.3865204 1.0758362q0.18077087 0.5631714 0.3344803 1.1419678q0.16724396 0.57095337 0.3110428 1.1013489q0.1495285 0.5090332 0.2948761 0.9483032q0.15887451 0.43148804 0.33074188 0.729187q0.21872711 0.37890625 0.5352707 0.5209656q0.31654358 0.14202881 0.80374146 -0.13912964q0.32479095 -0.18743896 0.51161194 -0.45761108q0.17901611 -0.2836914 0.24139404 -0.6444397q0.06238556 -0.36071777 0.02948761 -0.7927246q-0.019363403 -0.43984985 -0.09132385 -0.93951416l0.8661194 -0.4998474zm7.815384 -4.5102234q-0.011222839 0.98065186 -0.18120575 1.9987793q-0.156456 1.0103455 -0.56124115 1.9655457q-0.39905548 0.9338684 -1.0563507 1.7641907q-0.6651001 0.816803 -1.6936188 1.4103699q-0.7443161 0.4295349 -1.4491425 0.58374023q-0.70482635 0.1541748 -1.3644257 0.011657715q-0.6460724 -0.15032959 -1.2354813 -0.64001465q-0.5972214 -0.50323486 -1.1049957 -1.3828125q-0.34371948 -0.59542847 -0.6750107 -1.4505615q-0.33128357 -0.8551636 -0.5371475 -1.836792q-0.20586395 -0.98165894 -0.23942566 -2.0086365q-0.02783966 -1.0483093 0.24315643 -2.0164795q0.2767105 -0.989563 0.8699646 -1.8370361q0.59897614 -0.86883545 1.6545639 -1.4780273q0.69018555 -0.3982849 1.2383347 -0.48010254q0.5403366 -0.095336914 0.95370483 0.026885986q0.42689514 0.11444092 0.7247391 0.4116211q0.30355835 0.27581787 0.4988556 0.6141052q0.22654724 0.39245605 0.2958603 0.7312927q0.075042725 0.31750488 0.04335022 0.6063843q-0.039497375 0.2753601 -0.1878128 0.48721313q-0.1561203 0.19836426 -0.3861847 0.33111572q-0.35186005 0.20306396 -0.87140656 0.17816162q-0.1256485 -0.8114624 -0.45374298 -1.3797913q-0.21873474 -0.37890625 -0.50040436 -0.5230408q-0.27593994 -0.16546631 -0.57366943 0.0063476562q-0.32479858 0.18743896 -0.4777298 0.6725769q-0.15293884 0.48513794 -0.1694336 1.144104q-0.01650238 0.6589966 0.09352112 1.4433899q0.115753174 0.763031 0.31687927 1.5489807q0.2011261 0.7859497 0.48345947 1.5250244q0.28232574 0.7390747 0.6182327 1.3209534q0.3046646 0.5277405 0.59469604 0.81137085q0.2900238 0.28363037 0.5966644 0.37728882q0.29883575 0.08010864 0.6163635 0.0050964355q0.32325745 -0.096343994 0.7021866 -0.31503296q0.62252045 -0.35925293 1.0295105 -0.8106079q0.40698242 -0.45135498 0.67598724 -0.9854431q0.282547 -0.54190063 0.4427414 -1.1394653q0.16591644 -0.618927 0.32192993 -1.2862549l0.7037277 -0.4060974zm7.977783 -4.6039734q-0.011230469 0.98065186 -0.18121338 1.9988098q-0.15644836 1.0103455 -0.5612335 1.9655457q-0.3990631 0.9338684 -1.0563507 1.7641907q-0.6651001 0.816803 -1.6936188 1.4103394q-0.74432373 0.42956543 -1.4491425 0.58374023q-0.704834 0.15420532 -1.3644333 0.011688232q-0.6460724 -0.15032959 -1.2354813 -0.64004517q-0.5972214 -0.50323486 -1.1049881 -1.3828125q-0.34371948 -0.59539795 -0.6750107 -1.4505615q-0.3312912 -0.85513306 -0.5428772 -1.8154297q-0.20585632 -0.98165894 -0.22588348 -2.016449q-0.02783966 -1.0483093 0.2353363 -2.0300293q0.26317596 -0.98172 0.8699646 -1.8370361q0.6125107 -0.87664795 1.681633 -1.4936218q0.69018555 -0.39831543 1.2383347 -0.48013306q0.5403366 -0.095336914 0.9615097 0.04046631q0.41337585 0.12225342 0.71902466 0.43292236q0.2978363 0.29718018 0.51657104 0.6760864q0.5233917 0.9066162 0.5840149 1.9179688q0.052825928 0.99783325 -0.2879181 1.9701843q-0.33503723 0.9510498 -0.9902344 1.8162537q-0.6494751 0.84384155 -1.5520172 1.4368591q0.11355591 0.2591858 0.2171936 0.47000122q0.103652954 0.21078491 0.2130127 0.40023804q0.30465698 0.5277405 0.59469604 0.81137085q0.2900238 0.28363037 0.5966644 0.3772583q0.29882812 0.08010864 0.6163635 0.0050964355q0.32325745 -0.096343994 0.70217896 -0.31500244q0.6225281 -0.35925293 1.0295105 -0.8106079q0.40698242 -0.45135498 0.6759949 -0.9854431q0.282547 -0.54190063 0.44273376 -1.1394958q0.16592407 -0.6188965 0.32192993 -1.2862244l0.70373535 -0.40612793zm-6.521881 1.7973938q0.55848694 -0.37643433 0.927948 -0.98654175q0.38301086 -0.6179199 0.53692627 -1.3200989q0.14611816 -0.71572876 0.03817749 -1.4652405q-0.09440613 -0.75735474 -0.4693756 -1.4068909q-0.21873474 -0.37887573 -0.47332764 -0.53863525q-0.24887848 -0.18109131 -0.546608 -0.009277344q-0.39246368 0.22647095 -0.5448456 0.83758545q-0.1601944 0.5975647 -0.14698792 1.4017639q0.013198853 0.8041992 0.20134735 1.7239075q0.180336 0.90618896 0.4767456 1.7634277z" fill-rule="nonzero"></path><path fill="#000000" fill-opacity="0.0" d="m585.86316 455.13922l111.118164 64.15747l-28.818909 49.921265l-111.1181 -64.15747z" fill-rule="evenodd"></path><path fill="#fcfcfc" d="m576.9403 493.12894l10.446716 -11.595703l3.319519 1.3753662l-5.482422 6.0903015q0.55114746 0.26412964 1.1654053 0.29397583q0.6141968 0.029876709 1.2388916 -0.11462402q0.6324463 -0.15805054 1.2384644 -0.45770264q0.61376953 -0.3131714 1.1505737 -0.74298096q0.55029297 -0.42199707 1.0079956 -0.93356323q0.45770264 -0.51153564 0.77801514 -1.0663757q0.33587646 -0.58184814 0.48388672 -1.1820068q0.16156006 -0.5923462 0.07684326 -1.1644897q-0.08465576 -0.57211304 -0.46032715 -1.0776978q-0.35437012 -0.511322 -1.0309448 -0.901947q-1.2719116 -0.7344055 -2.4763794 -0.9607239q-1.1965942 -0.23983765 -2.2616577 0.011230469q-1.0651245 0.25109863 -1.9772949 0.98739624q-0.9043579 0.7227478 -1.5917969 1.9135742q-0.2265625 0.39242554 -0.3343506 0.67297363q-0.08648682 0.2748108 -0.11834717 0.45492554q-0.031799316 0.18011475 -0.038024902 0.284729q-0.006286621 0.104644775 -0.03753662 0.15875244q-0.527771 -0.3046875 -0.8847046 -0.65515137q-0.35699463 -0.35043335 -0.5083618 -0.7445679q-0.13781738 -0.3862915 -0.06793213 -0.85113525q0.077697754 -0.47836304 0.40576172 -1.0466919q0.3984375 -0.690155 1.0789185 -1.1813354q0.68829346 -0.5046997 1.5597534 -0.79541016q0.8792114 -0.30426025 1.8718872 -0.39868164q1.0004883 -0.107940674 2.0097656 -0.012359619q1.0228271 0.10342407 2.0195312 0.40826416q1.0045776 0.2913208 1.8705444 0.7913513q1.2855225 0.742218 2.010376 1.6117859q0.7247925 0.8695679 1.0056152 1.7894897q0.28082275 0.9199219 0.13537598 1.8282471q-0.13769531 0.8948059 -0.5986328 1.6931763q-0.57806396 1.0013733 -1.5756226 1.7605591q-0.9761963 0.7534485 -2.2219238 1.0986938q-1.2243652 0.33953857 -2.6229858 0.19955444q-1.3986206 -0.13995361 -2.8059082 -0.95248413l-0.10821533 -0.0625l-4.6936035 5.1925964l-2.9768677 -1.718811zm18.528076 5.7361145q-0.78204346 0.66708374 -1.5067139 1.0786133q-0.70336914 0.40582275 -1.3457642 0.61227417q-0.6345825 0.19293213 -1.2102661 0.22137451q-0.5543823 0.022705078 -1.0327148 -0.055023193q-0.46484375 -0.069885254 -0.8400879 -0.23242188q-0.36950684 -0.14120483 -0.6536865 -0.30526733q-0.460083 -0.265625 -0.78790283 -0.63534546q-0.32000732 -0.38323975 -0.44586182 -0.8528137q-0.11798096 -0.48312378 -0.028320312 -1.0447693q0.09753418 -0.5751953 0.48028564 -1.2382507q0.1640625 -0.2841797 0.39996338 -0.59906006q0.23590088 -0.31484985 0.54364014 -0.6604004l8.234253 -9.138367l3.3273315 1.3618469l-8.878906 9.848694q-0.14215088 0.15249634 -0.26293945 0.29925537q-0.10723877 0.15457153 -0.20098877 0.31695557q-0.2578125 0.4465332 -0.14855957 0.72613525q0.109191895 0.27957153 0.5557251 0.53738403q0.2977295 0.171875 0.65997314 0.20062256q0.3758545 0.03656006 0.76000977 -0.06637573q0.38415527 -0.10293579 0.7689209 -0.33187866q0.3847046 -0.22891235 0.7330322 -0.5510254l0.87957764 0.507843zm7.811035 4.5099487q-0.8548584 0.4807129 -1.8215942 0.8427124q-0.95318604 0.369812 -1.9827881 0.49700928q-1.0083008 0.12145996 -2.0560913 -0.032440186q-1.039978 -0.16741943 -2.0683594 -0.76119995q-0.7442627 -0.42971802 -1.2302856 -0.96292114q-0.48602295 -0.5332031 -0.69244385 -1.1756592q-0.19293213 -0.63461304 -0.06365967 -1.3899231q0.137146 -0.7687988 0.64489746 -1.6483765q0.34375 -0.59542847 0.91864014 -1.309967q0.5748291 -0.7145386 1.3006592 -1.3780212q0.74713135 -0.66918945 1.6332397 -1.2040405q0.8939209 -0.54837036 1.8756714 -0.8114624q0.9818115 -0.26309204 2.026001 -0.16540527q1.0654907 0.09197998 2.1344604 0.709198q0.6901245 0.3984375 1.0350952 0.83218384q0.3527832 0.42019653 0.44586182 0.8528137q0.10083008 0.4190979 -0.015380859 0.83914185q-0.10839844 0.40652466 -0.3270874 0.7854309q-0.5234375 0.9066467 -1.3688965 1.4649353q-0.8377075 0.54473877 -1.8502197 0.7359619q-0.99108887 0.18551636 -2.0680542 0.050872803q-1.055603 -0.14038086 -2.0205078 -0.6253357q-0.16766357 0.22796631 -0.29840088 0.42312622q-0.13067627 0.19515991 -0.24005127 0.38461304q-0.3046875 0.5277405 -0.4052124 0.92074585q-0.10058594 0.39297485 -0.028320312 0.7053528q0.080078125 0.29882812 0.303833 0.5362549q0.24505615 0.23175049 0.6239624 0.4505005q0.6224365 0.359375 1.2168579 0.48608398q0.5944214 0.12667847 1.1914673 0.0925293q0.6105957 -0.026367188 1.2081909 -0.18649292q0.6189575 -0.16586304 1.2749023 -0.36450195l0.7036133 0.40628052zm-4.8181763 -4.7485657q0.60528564 0.29534912 1.3184204 0.31015015q0.72662354 0.022644043 1.4116821 -0.19525146q0.6929321 -0.23144531 1.2880249 -0.69973755q0.6086426 -0.46051025 0.98358154 -1.1100464q0.21875 -0.37887573 0.22973633 -0.67926025q0.032409668 -0.3060608 -0.26531982 -0.4779358q-0.39239502 -0.22659302 -0.99780273 -0.05291748q-0.59765625 0.16012573 -1.2874756 0.573761q-0.68981934 0.41363525 -1.3921509 1.036499q-0.6945801 0.6093445 -1.2886963 1.2947388zm15.907227 11.151154q-0.76849365 0.67492676 -1.4796753 1.0942688q-0.68981934 0.41360474 -1.3186646 0.62786865q-0.60754395 0.20855713 -1.156189 0.2526245q-0.5272827 0.038360596 -0.97857666 -0.023742676q-0.45129395 -0.06210327 -0.8129883 -0.2168274q-0.36956787 -0.14117432 -0.64019775 -0.29745483q-0.8795166 -0.5078125 -1.1338501 -1.2861328q-0.23297119 -0.7840576 0.19207764 -1.8016052q-0.44665527 0.21121216 -0.95318604 0.369812q-0.49298096 0.16641235 -1.0280762 0.21829224q-0.53515625 0.051879883 -1.0967407 -0.037841797q-0.553833 -0.10324097 -1.1086426 -0.42358398q-0.54125977 -0.3125 -0.94036865 -0.77749634q-0.3991089 -0.46499634 -0.5649414 -1.0839844q-0.15234375 -0.61117554 -0.015258789 -1.3800049q0.1449585 -0.78234863 0.67614746 -1.7025452q0.40625 -0.7036438 1.0238037 -1.4296265q0.6040039 -0.73379517 1.3568726 -1.3816528q0.76641846 -0.64004517 1.6425781 -1.1264648q0.8840332 -0.49996948 1.7940063 -0.73236084q0.9234619 -0.22460938 1.8629761 -0.13317871q0.96087646 0.08566284 1.8674927 0.60913086q0.8795166 0.507843 1.105835 1.0534668q0.23406982 0.532074 -0.023742676 0.9786377l-0.09375 0.16238403l0.8571167 -0.98461914l2.9904175 1.7266235l-5.566223 6.204315q-0.15570068 0.14465332 -0.27648926 0.29141235q-0.107299805 0.15457153 -0.2010498 0.31695557q-0.51556396 0.89312744 0.33691406 1.385315q0.31121826 0.1796875 0.65423584 0.17929077q0.3508911 -0.013946533 0.7158203 -0.14605713q0.3727417 -0.14562988 0.7382202 -0.40368652q0.37329102 -0.27163696 0.70806885 -0.6015625l0.86602783 0.5000305zm-2.526001 -7.7191772q0.0546875 -0.09472656 0.09222412 -0.253479q0.03753662 -0.15875244 0.013122559 -0.3352356q-0.016601562 -0.19000244 -0.13208008 -0.36495972q-0.11553955 -0.17492676 -0.37261963 -0.32339478q-0.43304443 -0.25 -0.98950195 -0.19238281q-0.5564575 0.05758667 -1.154602 0.34368896q-0.59039307 0.272583 -1.1989746 0.73309326q-0.5873413 0.45477295 -1.1303711 0.9892273q-0.5430908 0.5344238 -0.98931885 1.0886841q-0.44628906 0.55422974 -0.727478 1.0414124q-0.3515625 0.60891724 -0.43078613 0.9961853q-0.06567383 0.39508057 -0.010620117 0.6434326q0.07647705 0.24258423 0.23675537 0.37121582q0.17382812 0.13644409 0.30914307 0.21456909q0.24353027 0.14065552 0.5631714 0.18081665q0.32739258 0.026672363 0.6902466 -0.07055664q0.37634277 -0.089416504 0.7611084 -0.31832886q0.4060669 -0.23464966 0.7720947 -0.6187134l3.6984863 -4.1252747zm10.465576 12.303345q-1.3508911 0.46496582 -2.5356445 0.61083984q-1.1634521 0.14013672 -2.144104 0.15130615q-0.52008057 0.15075684 -1.0666504 0.15997314q-0.5252075 0.003479004 -1.0441284 -0.09765625q-0.5189209 -0.10119629 -1.0045166 -0.2913208q-0.47210693 -0.18237305 -0.86450195 -0.40893555q-0.7848511 -0.453125 -1.2338867 -1.019165q-0.42767334 -0.5717163 -0.5878296 -1.1693726q-0.13879395 -0.60336304 -0.0491333 -1.1650085q0.083984375 -0.5830078 0.36523438 -1.0701599q0.21087646 -0.36535645 0.49102783 -0.6005554q0.27435303 -0.25656128 0.5638428 -0.41418457q0.2894287 -0.15765381 0.59399414 -0.21636963q0.3123169 -0.07223511 0.5699463 -0.04977417q1.7857666 -1.0618896 3.2560425 -2.2337036q1.4781494 -1.1853638 2.855835 -2.4467468l3.319519 1.3753662q-0.7192383 1.3709106 -1.2432251 2.403534q-0.5161133 1.0190735 -0.8838501 1.7810669q-0.35986328 0.7484436 -0.6161499 1.2861023q-0.24841309 0.5241394 -0.447937 0.93218994q-0.18591309 0.41586304 -0.35986328 0.7484436q-0.1661377 0.31903076 -0.3614502 0.65734863q-0.140625 0.24359131 -0.26348877 0.42523193q-0.122924805 0.18157959 -0.2786255 0.32629395q0.616333 -0.005004883 1.130127 -0.051208496q0.5272827 -0.038330078 0.9733887 -0.123535156l0.86602783 0.5zm-8.805603 -4.091858q-0.421875 0.7307129 -0.3486328 1.2601624q0.09460449 0.52371216 0.78466797 0.92214966q0.35186768 0.203125 0.7312622 0.29589844q0.37945557 0.09283447 0.75579834 0.0034179688q0.3899536 -0.081604004 0.7496948 -0.36102295q0.37329102 -0.27160645 0.685791 -0.81292725q0.15618896 -0.27062988 0.2697754 -0.5298157q0.1270752 -0.2514038 0.2640381 -0.5512085q0.1505127 -0.2919922 0.30523682 -0.65371704q0.17602539 -0.36746216 0.3796997 -0.8452759q0.22503662 -0.4835205 0.51464844 -1.1101685q0.3109131 -0.63238525 0.7041626 -1.4698486q-0.8970947 0.8352051 -1.8847656 1.54599q-0.9663086 0.7050171 -2.0585938 1.4095154q0.13269043 0.23898315 0.16644287 0.49301147q0.04156494 0.24050903 -0.11468506 0.51116943q-0.109375 0.18945312 -0.28637695 0.33981323q-0.15570068 0.14468384 -0.36340332 0.22320557q-0.20770264 0.078552246 -0.43048096 0.058166504q-0.20922852 -0.012542725 -0.41223145 -0.12976074q-0.17590332 -0.1015625 -0.31481934 -0.23590088q-0.117614746 -0.14007568 -0.097229004 -0.362854zm19.299255 10.150696q-0.78204346 0.66711426 -1.4931641 1.0864258q-0.68981934 0.41363525 -1.3051758 0.6357422q-0.60754395 0.2084961 -1.156189 0.25256348q-0.5272827 0.038391113 -0.97857666 -0.023742676q-0.45129395 -0.062072754 -0.8129883 -0.21679688q-0.36950684 -0.14117432 -0.6401367 -0.29742432q-0.89312744 -0.51568604 -1.1395874 -1.3074951q-0.2387085 -0.8054199 0.22332764 -1.8557739q-0.7809448 0.41516113 -1.4133911 0.5732422q-0.6246948 0.14447021 -1.1420898 0.13446045q-0.5095825 -0.023620605 -0.92755127 -0.17474365q-0.4179077 -0.15106201 -0.7426758 -0.338562q-0.460083 -0.265625 -0.78790283 -0.635376q-0.32000732 -0.38323975 -0.44586182 -0.8527832q-0.11804199 -0.4831543 -0.028320312 -1.0447998q0.09753418 -0.5751953 0.48028564 -1.2382812q0.1640625 -0.28411865 0.39996338 -0.598999q0.23590088 -0.31488037 0.5435791 -0.6604004l5.258545 -5.8587646l3.0039673 1.734436l-5.579773 6.196472q-0.24157715 0.29351807 -0.39001465 0.5506592q-0.2109375 0.36535645 -0.22973633 0.67926025q-0.0053100586 0.3217163 0.3600464 0.5326538q0.29766846 0.171875 0.63287354 0.18499756q0.33520508 0.013122559 0.678833 -0.11328125q0.3435669 -0.12640381 0.7012329 -0.37091064q0.35766602 -0.24456787 0.70599365 -0.5666504l5.258545 -5.8587646l2.9904175 1.7266235l-5.566223 6.2042847q-0.15570068 0.14465332 -0.27648926 0.29144287q-0.107299805 0.15454102 -0.20098877 0.31695557q-0.2578125 0.4465332 -0.14855957 0.72613525q0.1227417 0.28735352 0.5557251 0.53741455q0.31121826 0.1796875 0.6464844 0.19281006q0.33520508 0.013122559 0.678772 -0.11328125q0.3571167 -0.11859131 0.7147827 -0.36309814q0.35766602 -0.24456787 0.70599365 -0.5666504l0.86602783 0.5zm-3.819397 2.7564087l8.205139 -9.11908l3.0039673 1.734436l-1.0127563 1.1292725q0.41125488 -0.08728027 0.8282471 -0.15325928q0.41693115 -0.065979004 0.8297119 -0.062194824q0.42059326 -0.009765625 0.8213501 0.07727051q0.40081787 0.08709717 0.7661743 0.29803467q0.36535645 0.2109375 0.5443115 0.49468994q0.20031738 0.27807617 0.2512207 0.5961304q0.064453125 0.3258667 -0.0048828125 0.6647339q-0.0692749 0.3388672 -0.2411499 0.6365967q-0.1640625 0.2841797 -0.41503906 0.5001221q-0.24310303 0.20239258 -0.55755615 0.3095703q-0.30090332 0.1149292 -0.663208 0.08618164q-0.36224365 -0.028747559 -0.7411499 -0.24749756q-0.29766846 -0.171875 -0.4053955 -0.36035156q-0.08630371 -0.19421387 -0.081604004 -0.3899536q0.004760742 -0.19573975 0.06573486 -0.39508057q0.08227539 -0.20507812 0.12762451 -0.37738037q0.04534912 -0.17230225 0.032348633 -0.3060913q-0.005126953 -0.14727783 -0.1539917 -0.23321533q-0.48712158 -0.28131104 -0.93688965 -0.2522583q-0.44970703 0.0289917 -1.0317383 0.16204834l-6.2265015 6.9417114l-3.0039673 -1.734436zm19.448242 6.267395q-0.8548584 0.4807129 -1.8215942 0.8427124q-0.95318604 0.369812 -1.9827881 0.49700928q-1.0083008 0.12145996 -2.0560913 -0.032409668q-1.039978 -0.16748047 -2.0683594 -0.76123047q-0.7442627 -0.4296875 -1.2302856 -0.9628906q-0.48602295 -0.53326416 -0.69244385 -1.1756592q-0.19293213 -0.63464355 -0.06365967 -1.3899536q0.137146 -0.7687988 0.64489746 -1.6483765q0.34375 -0.59539795 0.91864014 -1.3099365q0.5748291 -0.7145386 1.3006592 -1.3780518q0.74713135 -0.66918945 1.6332397 -1.2040405q0.8939209 -0.5484009 1.8756714 -0.8114624q0.9818115 -0.26306152 2.026001 -0.16540527q1.0654907 0.09197998 2.1344604 0.7091675q0.6901245 0.39849854 1.0350952 0.83221436q0.3527832 0.42022705 0.44586182 0.85284424q0.10083008 0.41906738 -0.015380859 0.8391113q-0.10839844 0.40655518 -0.3270874 0.7854004q-0.5234375 0.90667725 -1.3688965 1.4649658q-0.8377075 0.54473877 -1.8502197 0.7359619q-0.99108887 0.18554688 -2.0680542 0.05090332q-1.055603 -0.14038086 -2.0205078 -0.6253662q-0.16766357 0.22796631 -0.29840088 0.42315674q-0.13067627 0.1951294 -0.24005127 0.38458252q-0.3046875 0.527771 -0.4052124 0.92071533q-0.10058594 0.39300537 -0.028320312 0.7053833q0.080078125 0.29882812 0.303833 0.5362549q0.24505615 0.23175049 0.6239624 0.4505005q0.6224365 0.359375 1.2168579 0.48608398q0.5944214 0.12670898 1.1914673 0.0925293q0.6105957 -0.026367188 1.2081909 -0.1864624q0.6189575 -0.16589355 1.2749023 -0.36450195l0.7036133 0.40625zm-4.8181763 -4.748596q0.60528564 0.29541016 1.3184204 0.31018066q0.72662354 0.022644043 1.4116821 -0.19525146q0.6929321 -0.23144531 1.2880249 -0.69976807q0.6086426 -0.46044922 0.98358154 -1.1099854q0.21875 -0.37890625 0.22973633 -0.67926025q0.032409668 -0.3060913 -0.26531982 -0.4779663q-0.39239502 -0.2265625 -0.99780273 -0.05291748q-0.59765625 0.16015625 -1.2874756 0.5737915q-0.68981934 0.41357422 -1.3921509 1.036499q-0.6945801 0.60931396 -1.2886963 1.2946777z" fill-rule="nonzero"></path><path fill="#000000" fill-opacity="0.0" d="m328.98163 16.0l0 166.99213" fill-rule="evenodd"></path><path stroke="#5effa9" stroke-width="1.0" stroke-linejoin="round" stroke-linecap="butt" d="m328.98163 22.0l0 160.99213" fill-rule="evenodd"></path><path fill="#5effa9" stroke="#5effa9" stroke-width="1.0" stroke-linecap="butt" d="m330.63336 22.0l-1.6517334 -4.5380974l-1.6517334 4.5380974z" fill-rule="evenodd"></path><path fill="#000000" fill-opacity="0.0" d="m683.3097 566.53546l-120.22046 -69.41736" fill-rule="evenodd"></path><path stroke="#5effa9" stroke-width="1.0" stroke-linejoin="round" stroke-linecap="butt" d="m678.1137 563.5352l-115.024475 -66.417114" fill-rule="evenodd"></path><path fill="#5effa9" stroke="#5effa9" stroke-width="1.0" stroke-linecap="butt" d="m677.2878 564.9656l4.7559204 0.8388672l-3.104065 -3.699646z" fill-rule="evenodd"></path><path fill="#000000" fill-opacity="0.0" d="m18.797901 541.65094l127.18111 -73.41736" fill-rule="evenodd"></path><path stroke="#5effa9" stroke-width="1.0" stroke-linejoin="round" stroke-linecap="butt" d="m23.994244 538.65125l121.98476 -70.41766" fill-rule="evenodd"></path><path fill="#5effa9" stroke="#5effa9" stroke-width="1.0" stroke-linecap="butt" d="m23.168467 537.22076l-3.104475 3.6992798l4.756027 -0.8383179z" fill-rule="evenodd"></path><path fill="#000000" fill-opacity="0.0" d="m558.60895 287.94226l-205.63782 -118.708664" fill-rule="evenodd"></path><path stroke="#fcfcfc" stroke-width="1.0" stroke-linejoin="round" stroke-linecap="butt" d="m558.60895 287.94226l-205.63782 -118.708664" fill-rule="evenodd"></path><path fill="#000000" fill-opacity="0.0" d="m147.33333 287.94226l205.6378 -118.708664" fill-rule="evenodd"></path><path stroke="#fcfcfc" stroke-width="1.0" stroke-linejoin="round" stroke-linecap="butt" d="m147.33333 287.94226l205.6378 -118.708664" fill-rule="evenodd"></path><path fill="#000000" fill-opacity="0.0" d="m352.97113 406.6509l-205.6378 -118.70865" fill-rule="evenodd"></path><path stroke="#fcfcfc" stroke-width="1.0" stroke-linejoin="round" stroke-linecap="butt" d="m352.97113 406.6509l-205.6378 -118.70865" fill-rule="evenodd"></path><path fill="#000000" fill-opacity="0.0" d="m352.97113 406.6509l205.63782 -118.70865" fill-rule="evenodd"></path><path stroke="#fcfcfc" stroke-width="1.0" stroke-linejoin="round" stroke-linecap="butt" d="m352.97113 406.6509l205.63782 -118.70865" fill-rule="evenodd"></path><path fill="#000000" fill-opacity="0.0" d="m147.98032 287.94226l0 235.05511" fill-rule="evenodd"></path><path stroke="#fcfcfc" stroke-width="1.0" stroke-linejoin="round" stroke-linecap="butt" d="m147.98032 287.94226l0 235.05511" fill-rule="evenodd"></path><path fill="#000000" fill-opacity="0.0" d="m352.96982 406.6509l0 235.05515" fill-rule="evenodd"></path><path stroke="#fcfcfc" stroke-width="1.0" stroke-linejoin="round" stroke-linecap="butt" d="m352.96982 406.6509l0 235.05515" fill-rule="evenodd"></path><path fill="#000000" fill-opacity="0.0" d="m558.6076 287.94226l0 235.05511" fill-rule="evenodd"></path><path stroke="#fcfcfc" stroke-width="1.0" stroke-linejoin="round" stroke-linecap="butt" d="m558.6076 287.94226l0 235.05511" fill-rule="evenodd"></path><path fill="#000000" fill-opacity="0.0" d="m352.97113 641.70605l205.63782 -118.70868" fill-rule="evenodd"></path><path stroke="#fcfcfc" stroke-width="1.0" stroke-linejoin="round" stroke-linecap="butt" d="m352.97113 641.70605l205.63782 -118.70868" fill-rule="evenodd"></path><path fill="#000000" fill-opacity="0.0" d="m352.97113 641.70605l-205.6378 -118.70868" fill-rule="evenodd"></path><path stroke="#fcfcfc" stroke-width="1.0" stroke-linejoin="round" stroke-linecap="butt" d="m352.97113 641.70605l-205.6378 -118.70868" fill-rule="evenodd"></path><path fill="#000000" fill-opacity="0.0" d="m216.31015 327.72308l0 235.05511" fill-rule="evenodd"></path><path stroke="#fcfcfc" stroke-width="1.0" stroke-linejoin="round" stroke-linecap="butt" d="m216.31015 327.72308l0 235.05511" fill-rule="evenodd"></path><path fill="#000000" fill-opacity="0.0" d="m284.63998 367.22308l0 235.05511" fill-rule="evenodd"></path><path stroke="#fcfcfc" stroke-width="1.0" stroke-linejoin="round" stroke-linecap="butt" d="m284.63998 367.22308l0 235.05511" fill-rule="evenodd"></path><path fill="#000000" fill-opacity="0.0" d="m216.30971 327.7244l205.6378 -118.70865" fill-rule="evenodd"></path><path stroke="#fcfcfc" stroke-width="1.0" stroke-linejoin="round" stroke-linecap="butt" d="m216.30971 327.7244l205.6378 -118.70865" fill-rule="evenodd"></path><path fill="#000000" fill-opacity="0.0" d="m284.6404 367.22308l205.63782 -118.70865" fill-rule="evenodd"></path><path stroke="#fcfcfc" stroke-width="1.0" stroke-linejoin="round" stroke-linecap="butt" d="m284.6404 367.22308l205.63782 -118.70865" fill-rule="evenodd"></path><path fill="#000000" fill-opacity="0.0" d="m490.06168 327.7244l0 235.05515" fill-rule="evenodd"></path><path stroke="#fcfcfc" stroke-width="1.0" stroke-linejoin="round" stroke-linecap="butt" d="m490.06168 327.7244l0 235.05515" fill-rule="evenodd"></path><path fill="#000000" fill-opacity="0.0" d="m421.51575 367.2244l0 235.05515" fill-rule="evenodd"></path><path stroke="#fcfcfc" stroke-width="1.0" stroke-linejoin="round" stroke-linecap="butt" d="m421.51575 367.2244l0 235.05515" fill-rule="evenodd"></path><path fill="#000000" fill-opacity="0.0" d="m490.27823 327.7244l-205.63782 -118.70865" fill-rule="evenodd"></path><path stroke="#fcfcfc" stroke-width="1.0" stroke-linejoin="round" stroke-linecap="butt" d="m490.27823 327.7244l-205.63782 -118.70865" fill-rule="evenodd"></path><path fill="#000000" fill-opacity="0.0" d="m421.84122 367.22308l-205.6378 -118.70865" fill-rule="evenodd"></path><path stroke="#fcfcfc" stroke-width="1.0" stroke-linejoin="round" stroke-linecap="butt" d="m421.84122 367.22308l-205.6378 -118.70865" fill-rule="evenodd"></path><path fill="#000000" fill-opacity="0.0" d="m352.97113 485.00262l-205.6378 -118.70865" fill-rule="evenodd"></path><path stroke="#fcfcfc" stroke-width="1.0" stroke-linejoin="round" stroke-linecap="butt" d="m352.97113 485.00262l-205.6378 -118.70865" fill-rule="evenodd"></path><path fill="#000000" fill-opacity="0.0" d="m352.97113 563.3543l-205.6378 -118.70865" fill-rule="evenodd"></path><path stroke="#fcfcfc" stroke-width="1.0" stroke-linejoin="round" stroke-linecap="butt" d="m352.97113 563.3543l-205.6378 -118.70865" fill-rule="evenodd"></path><path fill="#000000" fill-opacity="0.0" d="m352.97113 484.7152l205.63782 -118.70865" fill-rule="evenodd"></path><path stroke="#fcfcfc" stroke-width="1.0" stroke-linejoin="round" stroke-linecap="butt" d="m352.97113 484.7152l205.63782 -118.70865" fill-rule="evenodd"></path><path fill="#000000" fill-opacity="0.0" d="m352.97113 563.353l205.63782 -118.70868" fill-rule="evenodd"></path><path stroke="#fcfcfc" stroke-width="1.0" stroke-linejoin="round" stroke-linecap="butt" d="m352.97113 563.353l205.63782 -118.70868" fill-rule="evenodd"></path><path fill="#000000" fill-opacity="0.0" d="m551.27545 305.61926l84.0 0l0 51.370087l-84.0 0z" fill-rule="evenodd"></path><path fill="#fcfcfc" d="m574.34015 335.39618q-1.171875 3.0 -4.921875 3.03125q-1.625 0 -2.875 -0.6875q-1.25 -0.703125 -1.9375 -1.9375q-0.6875 -1.234375 -0.6875 -2.84375q0 -1.5625 0.671875 -2.796875q0.6875 -1.234375 1.9375 -1.921875q1.265625 -0.703125 2.90625 -0.703125q1.171875 0 2.109375 0.4375q0.9375 0.4375 1.453125 1.203125l0 -1.453125l1.125 0l0 3.171875l-1.015625 0.03125q-0.578125 -1.1875 -1.453125 -1.734375q-0.875 -0.546875 -2.140625 -0.546875q-1.21875 0 -2.140625 0.578125q-0.921875 0.5625 -1.4375 1.53125q-0.5 0.96875 -0.5 2.1875q0 1.3125 0.515625 2.296875q0.53125 0.984375 1.46875 1.53125q0.9375 0.53125 2.09375 0.53125q1.265625 0 2.265625 -0.59375q1.0 -0.59375 1.4375 -1.875l1.125 0.5625zm10.375122 1.84375l0 0.984375l-2.6875 0l-0.046875 -0.890625q-1.328125 1.078125 -2.703125 1.078125q-1.21875 0 -1.828125 -0.6875q-0.609375 -0.6875 -0.609375 -1.78125l0 -4.0625l-1.234375 0l0 -0.984375l2.609375 0l0 4.90625q0 0.703125 0.34375 1.109375q0.34375 0.390625 1.046875 0.390625q1.265625 0 2.375 -1.015625l0 -4.40625l-1.3125 0l0 -0.984375l2.6875 0l0 6.34375l1.359375 0zm5.5147095 -6.4375q0.71875 0 1.5 0.375l-0.34375 1.25q-0.625 -0.421875 -1.28125 -0.421875q-0.75 0 -1.25 0.609375q-0.484375 0.609375 -0.484375 1.671875l-0.015625 2.953125l1.296875 0l0 0.984375l-4.078125 0l0 -0.984375l1.421875 0l0 -5.359375l-1.421875 0l0 -0.984375l2.78125 0l0 1.34375q0.59375 -1.4375 1.875 -1.4375zm4.216919 -1.515625q-0.421875 0 -0.71875 -0.265625q-0.28125 -0.28125 -0.28125 -0.6875q0 -0.40625 0.28125 -0.671875q0.296875 -0.28125 0.71875 -0.28125q0.4375 0 0.71875 0.28125q0.296875 0.265625 0.296875 0.671875q0 0.40625 -0.296875 0.6875q-0.28125 0.265625 -0.71875 0.265625zm-1.921875 8.9375l0 -0.984375l1.421875 0l0 -5.359375l-1.40625 0l0 -0.984375l2.765625 0l0 6.34375l1.328125 0l0 0.984375l-4.109375 0zm8.996826 0.21875q-1.171875 0 -2.078125 -0.484375q-0.890625 -0.484375 -1.390625 -1.359375q-0.484375 -0.890625 -0.484375 -2.046875q0 -1.15625 0.484375 -2.03125q0.5 -0.875 1.390625 -1.34375q0.90625 -0.484375 2.078125 -0.484375q1.171875 0 2.078125 0.484375q0.90625 0.46875 1.40625 1.34375q0.5 0.875 0.5 2.015625q0 1.15625 -0.5 2.046875q-0.5 0.890625 -1.40625 1.375q-0.90625 0.484375 -2.078125 0.484375zm0 -1.078125q1.15625 0 1.859375 -0.765625q0.71875 -0.78125 0.71875 -2.0625q0 -1.25 -0.71875 -2.0q-0.703125 -0.765625 -1.859375 -0.765625q-1.15625 0 -1.84375 0.765625q-0.6875 0.765625 -0.6875 2.015625q0 1.265625 0.6875 2.046875q0.703125 0.765625 1.84375 0.765625zm13.770996 -0.125l0 0.984375l-2.6875 0l-0.046875 -0.890625q-1.328125 1.078125 -2.703125 1.078125q-1.21875 0 -1.828125 -0.6875q-0.609375 -0.6875 -0.609375 -1.78125l0 -4.0625l-1.234375 0l0 -0.984375l2.609375 0l0 4.90625q0 0.703125 0.34375 1.109375q0.34375 0.390625 1.046875 0.390625q1.265625 0 2.375 -1.015625l0 -4.40625l-1.3125 0l0 -0.984375l2.6875 0l0 6.34375l1.359375 0zm5.0303345 -3.265625q0.859375 0.203125 1.375 0.4375q0.515625 0.234375 0.828125 0.6875q0.3125 0.4375 0.3125 1.1875q0 1.046875 -0.828125 1.59375q-0.8125 0.53125 -1.96875 0.53125q-0.703125 0 -1.34375 -0.21875q-0.625 -0.234375 -1.0 -0.609375l0 0.640625l-1.078125 0l0 -2.53125l0.96875 0l0.078125 0.796875q0.3125 0.46875 0.90625 0.71875q0.609375 0.25 1.28125 0.25q0.734375 0 1.203125 -0.28125q0.46875 -0.296875 0.46875 -0.78125q0 -0.5625 -0.359375 -0.796875q-0.359375 -0.25 -1.328125 -0.453125l-1.015625 -0.21875q-1.140625 -0.28125 -1.6875 -0.734375q-0.546875 -0.46875 -0.546875 -1.4375q0 -0.953125 0.75 -1.5q0.765625 -0.546875 1.96875 -0.546875q0.578125 0 1.171875 0.1875q0.609375 0.1875 0.96875 0.515625l0 -0.5625l1.09375 0l0 2.53125l-0.96875 0l-0.125 -0.921875q-0.28125 -0.328125 -0.828125 -0.546875q-0.546875 -0.21875 -1.09375 -0.21875q-0.65625 0 -1.109375 0.265625q-0.4375 0.265625 -0.4375 0.765625q0 0.40625 0.3125 0.640625q0.3125 0.21875 1.078125 0.40625l0.953125 0.203125zm1.328125 -1.140625l-0.015625 -0.03125l0.015625 0.03125zm-4.21875 3.1875q0 0.03125 0.015625 0.0625l-0.015625 -0.0625z" fill-rule="nonzero"></path><path fill="#000000" fill-opacity="0.0" d="m311.97113 337.67453l84.0 0l0 51.370087l-84.0 0z" fill-rule="evenodd"></path><path fill="#fcfcfc" d="m325.81628 370.27957l0 -0.984375l1.453125 0l0 -8.53125l-1.453125 0l0 -0.984375l9.140625 0l0 3.109375l-1.1875 0l0 -2.125l-4.96875 0l0 3.5625l3.265625 0l0 -1.234375l0.765625 0l0 3.515625l-0.765625 0l0 -1.25l-3.265625 0l0 3.9375l5.0625 0l0 -2.1875l1.1875 0l0 3.171875l-9.234375 0zm10.576691 0l0 -0.984375l1.09375 0l2.453125 -2.765625l-2.328125 -2.59375l-1.1875 0l0 -0.984375l3.6875 0l0 0.984375l-1.09375 0l1.671875 1.9375l1.6875 -1.9375l-1.109375 0l0 -0.984375l3.6875 0l0 0.984375l-1.3125 0l-2.25 2.53125l2.5 2.828125l1.09375 0l0 0.984375l-3.75 0l0 -0.984375l1.25 0l-1.875 -2.09375l-1.8125 2.09375l1.140625 0l0 0.984375l-3.546875 0zm13.5902405 -6.453125q-1.1875 0 -1.953125 0.765625q-0.765625 0.765625 -0.765625 1.9375q0 1.265625 0.75 2.0625q0.75 0.796875 1.9375 0.796875q0.890625 0 1.5 -0.34375q0.625 -0.34375 1.203125 -1.0l0.578125 0.828125q-0.578125 0.75 -1.4375 1.171875q-0.859375 0.421875 -1.96875 0.421875q-1.15625 0 -2.0625 -0.5q-0.90625 -0.515625 -1.421875 -1.390625q-0.515625 -0.890625 -0.515625 -2.015625q0 -1.109375 0.484375 -1.96875q0.5 -0.875 1.375 -1.359375q0.890625 -0.484375 1.984375 -0.484375q0.828125 0 1.453125 0.296875q0.640625 0.296875 0.96875 0.796875l0 -0.9375l1.15625 0l0 2.640625l-1.046875 0q-0.15625 -0.8125 -0.765625 -1.265625q-0.59375 -0.453125 -1.453125 -0.453125zm6.4372864 -2.484375q-0.421875 0 -0.71875 -0.265625q-0.28125 -0.28125 -0.28125 -0.6875q0 -0.40625 0.28125 -0.671875q0.296875 -0.28125 0.71875 -0.28125q0.4375 0 0.71875 0.28125q0.296875 0.265625 0.296875 0.671875q0 0.40625 -0.296875 0.6875q-0.28125 0.265625 -0.71875 0.265625zm-1.921875 8.9375l0 -0.984375l1.421875 0l0 -5.359375l-1.40625 0l0 -0.984375l2.765625 0l0 6.34375l1.328125 0l0 0.984375l-4.109375 0zm8.293732 0q-2.140625 0 -2.140625 -2.171875l0 -4.171875l-1.203125 0l0 -0.984375l1.203125 0l0 -2.5l1.390625 -0.546875l0 3.046875l1.9375 0l0 0.984375l-1.9375 0l0 4.109375q0 0.6875 0.21875 0.96875q0.234375 0.28125 0.765625 0.28125l1.125 0l0 0.984375l-1.359375 0zm9.849915 -3.375l-6.046875 0q0.125 1.171875 0.828125 1.859375q0.71875 0.671875 1.8125 0.671875q1.53125 0 2.78125 -1.171875l0.484375 0.84375q-0.53125 0.625 -1.359375 1.015625q-0.8125 0.375 -1.84375 0.375q-1.15625 0 -2.109375 -0.484375q-0.953125 -0.484375 -1.5 -1.359375q-0.53125 -0.890625 -0.53125 -2.03125q0 -1.15625 0.515625 -2.03125q0.515625 -0.890625 1.390625 -1.359375q0.890625 -0.484375 1.96875 -0.484375q1.6875 0 2.640625 1.03125q0.96875 1.015625 0.96875 2.765625l0 0.359375zm-1.375 -0.859375q0 -1.0625 -0.625 -1.671875q-0.625 -0.625 -1.609375 -0.625q-0.96875 0 -1.640625 0.625q-0.671875 0.609375 -0.796875 1.671875l4.671875 0zm11.163025 3.25l0 0.984375l-2.53125 0l0 -0.515625q-1.03125 0.71875 -2.34375 0.71875q-1.015625 0 -1.875 -0.46875q-0.859375 -0.46875 -1.375 -1.34375q-0.5 -0.890625 -0.5 -2.0625q0 -1.203125 0.484375 -2.078125q0.5 -0.875 1.3125 -1.3125q0.828125 -0.453125 1.8125 -0.453125q0.625 0 1.28125 0.203125q0.65625 0.1875 1.203125 0.5625l0 -2.96875l-1.3125 0l0 -0.96875l2.6875 0l0 9.703125l1.15625 0zm-7.1875 -2.578125q0 1.265625 0.734375 2.0q0.75 0.71875 1.890625 0.71875q1.0625 0 2.03125 -0.671875l0 -4.25q-0.53125 -0.328125 -1.109375 -0.515625q-0.578125 -0.1875 -1.09375 -0.1875q-1.109375 0 -1.78125 0.765625q-0.671875 0.765625 -0.671875 2.140625z" fill-rule="nonzero"></path><path fill="#000000" fill-opacity="0.0" d="m516.6088 523.77936l84.0 0l0 51.370117l-84.0 0z" fill-rule="evenodd"></path><path fill="#fcfcfc" d="m538.4089 550.3375q1.9375 0.34375 2.78125 1.03125q0.859375 0.671875 0.859375 2.125q0 0.84375 -0.390625 1.546875q-0.390625 0.6875 -1.15625 1.109375q-0.765625 0.421875 -1.8125 0.421875q-0.96875 0 -1.765625 -0.390625q-0.78125 -0.390625 -1.296875 -1.078125l0 1.28125l-1.203125 0l0 -3.546875l1.109375 0q0.125 1.171875 0.953125 1.921875q0.828125 0.734375 2.15625 0.734375q0.96875 0 1.5 -0.46875q0.546875 -0.46875 0.546875 -1.3125q0 -0.671875 -0.25 -1.046875q-0.234375 -0.390625 -0.765625 -0.59375q-0.53125 -0.21875 -1.515625 -0.390625l-0.453125 -0.078125q-1.59375 -0.25 -2.46875 -1.0q-0.875 -0.765625 -0.875 -2.046875q0 -1.375 0.890625 -2.125q0.90625 -0.75 2.421875 -0.75q0.84375 0 1.546875 0.296875q0.703125 0.28125 1.125 0.8125l0 -0.90625l1.203125 0l0 2.96875l-1.109375 0q-0.34375 -2.09375 -2.703125 -2.09375q-0.953125 0 -1.484375 0.453125q-0.53125 0.4375 -0.53125 1.1875q0 0.78125 0.5625 1.21875q0.5625 0.4375 1.703125 0.640625l0.421875 0.078125zm4.9260864 6.046875l0 -0.984375l1.359375 0l0 -8.734375l-1.3125 0l0 -0.96875l2.703125 0l0 9.703125l1.1875 0l0 0.984375l-3.9375 0zm12.303711 -3.375l-6.046875 0q0.125 1.171875 0.828125 1.859375q0.71875 0.671875 1.8125 0.671875q1.53125 0 2.78125 -1.171875l0.484375 0.84375q-0.53125 0.625 -1.359375 1.015625q-0.8125 0.375 -1.84375 0.375q-1.15625 0 -2.109375 -0.484375q-0.953125 -0.484375 -1.5 -1.359375q-0.53125 -0.890625 -0.53125 -2.03125q0 -1.15625 0.515625 -2.03125q0.515625 -0.890625 1.390625 -1.359375q0.890625 -0.484375 1.96875 -0.484375q1.6875 0 2.640625 1.03125q0.96875 1.015625 0.96875 2.765625l0 0.359375zm-1.375 -0.859375q0 -1.0625 -0.625 -1.671875q-0.625 -0.625 -1.609375 -0.625q-0.96875 0 -1.640625 0.625q-0.671875 0.609375 -0.796875 1.671875l4.671875 0zm9.975586 0.859375l-6.046875 0q0.125 1.171875 0.828125 1.859375q0.71875 0.671875 1.8125 0.671875q1.53125 0 2.78125 -1.171875l0.484375 0.84375q-0.53125 0.625 -1.359375 1.015625q-0.8125 0.375 -1.84375 0.375q-1.15625 0 -2.109375 -0.484375q-0.953125 -0.484375 -1.5 -1.359375q-0.53125 -0.890625 -0.53125 -2.03125q0 -1.15625 0.515625 -2.03125q0.515625 -0.890625 1.390625 -1.359375q0.890625 -0.484375 1.96875 -0.484375q1.6875 0 2.640625 1.03125q0.96875 1.015625 0.96875 2.765625l0 0.359375zm-1.375 -0.859375q0 -1.0625 -0.625 -1.671875q-0.625 -0.625 -1.609375 -0.625q-0.96875 0 -1.640625 0.625q-0.671875 0.609375 -0.796875 1.671875l4.671875 0zm7.506775 -3.28125q1.015625 0 1.8125 0.4375q0.8125 0.4375 1.28125 1.296875q0.46875 0.84375 0.46875 2.015625q0 1.203125 -0.515625 2.109375q-0.515625 0.890625 -1.390625 1.375q-0.859375 0.46875 -1.875 0.46875q-0.65625 0 -1.25 -0.203125q-0.578125 -0.203125 -0.953125 -0.546875l-0.015625 2.484375l1.4375 0l0 0.984375l-4.125 0l0 -0.984375l1.3125 0l0 -8.265625l-1.28125 0l0 -0.984375l2.578125 0l0.015625 0.6875q0.546875 -0.4375 1.1875 -0.65625q0.640625 -0.21875 1.3125 -0.21875zm-0.46875 6.671875q1.15625 0 1.875 -0.734375q0.71875 -0.734375 0.71875 -2.078125q0 -1.3125 -0.703125 -2.046875q-0.6875 -0.75 -1.796875 -0.75q-0.4375 0 -1.03125 0.1875q-0.59375 0.1875 -1.03125 0.5625l0.015625 4.15625q0.421875 0.328125 0.9375 0.515625q0.515625 0.1875 1.015625 0.1875zm6.427002 2.6875l0.828125 0q0.53125 0 0.8125 -0.078125q0.28125 -0.0625 0.484375 -0.328125q0.21875 -0.265625 0.40625 -0.828125l0.390625 -1.078125l-0.578125 0l-2.71875 -5.875l-1.359375 0l0 -0.984375l3.84375 0l0 0.984375l-1.09375 0l2.203125 4.984375l1.96875 -4.984375l-1.28125 0l0 -0.984375l3.828125 0l0 0.984375l-1.1875 0l-2.734375 6.765625q-0.40625 1.078125 -0.6875 1.546875q-0.265625 0.46875 -0.765625 0.734375q-0.5 0.265625 -1.421875 0.265625l-0.9375 0l0 -1.125z" fill-rule="nonzero"></path><path fill="#000000" fill-opacity="0.0" d="m377.971 600.88696l84.0 0l0 51.370117l-84.0 0z" fill-rule="evenodd"></path><path fill="#fcfcfc" d="m390.1651 632.5076l1.453125 0l0 -8.53125l-1.453125 0l0 -0.984375l5.515625 0q1.671875 0 2.609375 0.703125q0.953125 0.6875 0.953125 2.03125q0 2.390625 -2.703125 2.796875l2.40625 3.984375l1.546875 0l0 0.984375l-2.59375 0l-2.8125 -4.8125l-1.296875 0l0 -1.03125l1.640625 0q1.25 0 1.765625 -0.546875q0.53125 -0.546875 0.53125 -1.359375q0 -0.78125 -0.515625 -1.265625q-0.5 -0.5 -1.515625 -0.5l-2.546875 0l0 8.53125l1.453125 0l0 0.984375l-4.4375 0l0 -0.984375zm18.766968 -2.390625l-6.046875 0q0.125 1.171875 0.828125 1.859375q0.71875 0.671875 1.8125 0.671875q1.53125 0 2.78125 -1.171875l0.484375 0.84375q-0.53125 0.625 -1.359375 1.015625q-0.8125 0.375 -1.84375 0.375q-1.15625 0 -2.109375 -0.484375q-0.953125 -0.484375 -1.5 -1.359375q-0.53125 -0.890625 -0.53125 -2.03125q0 -1.15625 0.515625 -2.03125q0.515625 -0.890625 1.390625 -1.359375q0.890625 -0.484375 1.96875 -0.484375q1.6875 0 2.640625 1.03125q0.96875 1.015625 0.96875 2.765625l0 0.359375zm-1.375 -0.859375q0 -1.0625 -0.625 -1.671875q-0.625 -0.625 -1.609375 -0.625q-0.96875 0 -1.640625 0.625q-0.671875 0.609375 -0.796875 1.671875l4.671875 0zm2.5224 4.234375l0 -0.984375l1.359375 0l0 -8.734375l-1.3125 0l0 -0.96875l2.703125 0l0 9.703125l1.1875 0l0 0.984375l-3.9375 0zm12.585022 -0.984375l0 0.984375l-2.375 0l-0.078125 -0.65625q-0.59375 0.453125 -1.1875 0.65625q-0.59375 0.203125 -1.34375 0.203125q-1.125 0 -1.828125 -0.625q-0.6875 -0.625 -0.6875 -1.5625q0 -1.1875 0.796875 -1.734375q0.8125 -0.546875 2.140625 -0.546875q0.953125 0 2.03125 0.234375l0 -0.765625q0 -0.84375 -0.453125 -1.265625q-0.453125 -0.4375 -1.28125 -0.4375q-0.53125 0 -1.234375 0.1875q-0.703125 0.171875 -1.28125 0.484375l-0.40625 -0.890625q0.609375 -0.390625 1.421875 -0.59375q0.8125 -0.203125 1.53125 -0.203125q1.421875 0 2.25 0.703125q0.828125 0.6875 0.828125 1.890625l0 3.9375l1.15625 0zm-6.203125 -1.0625q0 0.578125 0.375 0.9375q0.390625 0.359375 1.046875 0.359375q1.09375 0 2.25 -0.796875l0 -1.6875q-0.984375 -0.21875 -1.9375 -0.21875q-0.75 0 -1.25 0.328125q-0.484375 0.328125 -0.484375 1.078125zm6.9291077 2.046875l0 -0.984375l1.09375 0l2.453125 -2.765625l-2.328125 -2.59375l-1.1875 0l0 -0.984375l3.6875 0l0 0.984375l-1.09375 0l1.671875 1.9375l1.6875 -1.9375l-1.109375 0l0 -0.984375l3.6875 0l0 0.984375l-1.3125 0l-2.25 2.53125l2.5 2.828125l1.09375 0l0 0.984375l-3.75 0l0 -0.984375l1.25 0l-1.875 -2.09375l-1.8125 2.09375l1.140625 0l0 0.984375l-3.546875 0zm16.902771 -3.375l-6.046875 0q0.125 1.171875 0.828125 1.859375q0.71875 0.671875 1.8125 0.671875q1.53125 0 2.78125 -1.171875l0.484375 0.84375q-0.53125 0.625 -1.359375 1.015625q-0.8125 0.375 -1.84375 0.375q-1.15625 0 -2.109375 -0.484375q-0.953125 -0.484375 -1.5 -1.359375q-0.53125 -0.890625 -0.53125 -2.03125q0 -1.15625 0.515625 -2.03125q0.515625 -0.890625 1.390625 -1.359375q0.890625 -0.484375 1.96875 -0.484375q1.6875 0 2.640625 1.03125q0.96875 1.015625 0.96875 2.765625l0 0.359375zm-1.375 -0.859375q0 -1.0625 -0.625 -1.671875q-0.625 -0.625 -1.609375 -0.625q-0.96875 0 -1.640625 0.625q-0.671875 0.609375 -0.796875 1.671875l4.671875 0zm11.163025 3.25l0 0.984375l-2.53125 0l0 -0.515625q-1.03125 0.71875 -2.34375 0.71875q-1.015625 0 -1.875 -0.46875q-0.859375 -0.46875 -1.375 -1.34375q-0.5 -0.890625 -0.5 -2.0625q0 -1.203125 0.484375 -2.078125q0.5 -0.875 1.3125 -1.3125q0.828125 -0.453125 1.8125 -0.453125q0.625 0 1.28125 0.203125q0.65625 0.1875 1.203125 0.5625l0 -2.96875l-1.3125 0l0 -0.96875l2.6875 0l0 9.703125l1.15625 0zm-7.1875 -2.578125q0 1.265625 0.734375 2.0q0.75 0.71875 1.890625 0.71875q1.0625 0 2.03125 -0.671875l0 -4.25q-0.53125 -0.328125 -1.109375 -0.515625q-0.578125 -0.1875 -1.09375 -0.1875q-1.109375 0 -1.78125 0.765625q-0.671875 0.765625 -0.671875 2.140625z" fill-rule="nonzero"></path><path fill="#000000" fill-opacity="0.0" d="m83.7743 525.31494l100.53544 0l0 51.370117l-100.53544 0z" fill-rule="evenodd"></path><path fill="#fcfcfc" d="m93.99173 557.92l0 -0.984375l1.453125 0l0 -8.53125l-1.453125 0l0 -0.984375l4.453125 0l0 0.984375l-1.46875 0l0 8.53125l1.46875 0l0 0.984375l-4.453125 0zm14.996338 -0.984375l0 0.984375l-3.9375 0l0 -0.984375l1.21875 0l0 -3.828125q0 -0.765625 -0.375 -1.1875q-0.375 -0.4375 -1.03125 -0.4375q-0.546875 0 -1.09375 0.203125q-0.546875 0.1875 -1.203125 0.578125l0 4.671875l1.328125 0l0 0.984375l-4.109375 0l0 -0.984375l1.421875 0l0 -5.359375l-1.421875 0l0 -0.984375l2.78125 0l0 0.71875q1.453125 -0.90625 2.65625 -0.90625q1.046875 0 1.71875 0.640625q0.6875 0.640625 0.6875 1.796875l0 4.09375l1.359375 0zm9.176529 0l0 0.984375l-2.53125 0l0 -0.515625q-1.03125 0.71875 -2.34375 0.71875q-1.015625 0 -1.875 -0.46875q-0.859375 -0.46875 -1.375 -1.34375q-0.5 -0.890625 -0.5 -2.0625q0 -1.203125 0.484375 -2.078125q0.5 -0.875 1.3125 -1.3125q0.828125 -0.453125 1.8125 -0.453125q0.625 0 1.28125 0.203125q0.65625 0.1875 1.203125 0.5625l0 -2.96875l-1.3125 0l0 -0.96875l2.6875 0l0 9.703125l1.15625 0zm-7.1875 -2.578125q0 1.265625 0.734375 2.0q0.75 0.71875 1.890625 0.71875q1.0625 0 2.03125 -0.671875l0 -4.25q-0.53125 -0.328125 -1.109375 -0.515625q-0.578125 -0.1875 -1.09375 -0.1875q-1.109375 0 -1.78125 0.765625q-0.671875 0.765625 -0.671875 2.140625zm9.945663 -5.375q-0.421875 0 -0.71875 -0.265625q-0.28125 -0.28125 -0.28125 -0.6875q0 -0.40625 0.28125 -0.671875q0.296875 -0.28125 0.71875 -0.28125q0.4375 0 0.71875 0.28125q0.296875 0.265625 0.296875 0.671875q0 0.40625 -0.296875 0.6875q-0.28125 0.265625 -0.71875 0.265625zm-1.921875 8.9375l0 -0.984375l1.421875 0l0 -5.359375l-1.40625 0l0 -0.984375l2.765625 0l0 6.34375l1.328125 0l0 0.984375l-4.109375 0zm5.3405914 -0.984375l1.453125 0l0 -5.359375l-1.4375 0l0 -0.984375l1.4375 0l0 -1.578125q0 -1.03125 0.546875 -1.625q0.5625 -0.59375 1.65625 -0.59375q0.84375 0 1.40625 0.421875q0.578125 0.40625 0.625 1.296875l-1.0625 0.296875q-0.09375 -0.515625 -0.296875 -0.78125q-0.1875 -0.265625 -0.609375 -0.265625q-0.890625 0 -0.890625 1.28125l0 1.546875l2.25 0l0 0.984375l-2.25 0l0 5.359375l1.890625 0l0 0.984375l-4.71875 0l0 -0.984375zm5.8953705 0l1.453125 0l0 -5.359375l-1.4375 0l0 -0.984375l1.4375 0l0 -1.578125q0 -1.03125 0.546875 -1.625q0.5625 -0.59375 1.65625 -0.59375q0.84375 0 1.40625 0.421875q0.578125 0.40625 0.625 1.296875l-1.0625 0.296875q-0.09375 -0.515625 -0.296875 -0.78125q-0.1875 -0.265625 -0.609375 -0.265625q-0.890625 0 -0.890625 1.28125l0 1.546875l2.25 0l0 0.984375l-2.25 0l0 5.359375l1.890625 0l0 0.984375l-4.71875 0l0 -0.984375zm13.0828705 -2.390625l-6.046875 0q0.125 1.171875 0.828125 1.859375q0.71875 0.671875 1.8125 0.671875q1.53125 0 2.78125 -1.171875l0.484375 0.84375q-0.53125 0.625 -1.359375 1.015625q-0.8125 0.375 -1.84375 0.375q-1.15625 0 -2.109375 -0.484375q-0.953125 -0.484375 -1.5 -1.359375q-0.53125 -0.890625 -0.53125 -2.03125q0 -1.15625 0.515625 -2.03125q0.515625 -0.890625 1.390625 -1.359375q0.890625 -0.484375 1.96875 -0.484375q1.6875 0 2.640625 1.03125q0.96875 1.015625 0.96875 2.765625l0 0.359375zm-1.375 -0.859375q0 -1.0625 -0.625 -1.671875q-0.625 -0.625 -1.609375 -0.625q-0.96875 0 -1.640625 0.625q-0.671875 0.609375 -0.796875 1.671875l4.671875 0zm7.334915 -3.1875q0.71875 0 1.5 0.375l-0.34375 1.25q-0.625 -0.421875 -1.28125 -0.421875q-0.75 0 -1.25 0.609375q-0.484375 0.609375 -0.484375 1.671875l-0.015625 2.953125l1.296875 0l0 0.984375l-4.078125 0l0 -0.984375l1.421875 0l0 -5.359375l-1.421875 0l0 -0.984375l2.78125 0l0 1.34375q0.59375 -1.4375 1.875 -1.4375zm9.841934 4.046875l-6.046875 0q0.125 1.171875 0.828125 1.859375q0.71875 0.671875 1.8125 0.671875q1.53125 0 2.78125 -1.171875l0.484375 0.84375q-0.53125 0.625 -1.359375 1.015625q-0.8125 0.375 -1.84375 0.375q-1.15625 0 -2.109375 -0.484375q-0.953125 -0.484375 -1.5 -1.359375q-0.53125 -0.890625 -0.53125 -2.03125q0 -1.15625 0.515625 -2.03125q0.515625 -0.890625 1.390625 -1.359375q0.890625 -0.484375 1.96875 -0.484375q1.6875 0 2.640625 1.03125q0.96875 1.015625 0.96875 2.765625l0 0.359375zm-1.375 -0.859375q0 -1.0625 -0.625 -1.671875q-0.625 -0.625 -1.609375 -0.625q-0.96875 0 -1.640625 0.625q-0.671875 0.609375 -0.796875 1.671875l4.671875 0zm11.63179 3.25l0 0.984375l-3.9375 0l0 -0.984375l1.21875 0l0 -3.828125q0 -0.765625 -0.375 -1.1875q-0.375 -0.4375 -1.03125 -0.4375q-0.546875 0 -1.09375 0.203125q-0.546875 0.1875 -1.203125 0.578125l0 4.671875l1.328125 0l0 0.984375l-4.109375 0l0 -0.984375l1.421875 0l0 -5.359375l-1.421875 0l0 -0.984375l2.78125 0l0 0.71875q1.453125 -0.90625 2.65625 -0.90625q1.046875 0 1.71875 0.640625q0.6875 0.640625 0.6875 1.796875l0 4.09375l1.359375 0zm3.754654 0.984375q-2.140625 0 -2.140625 -2.171875l0 -4.171875l-1.203125 0l0 -0.984375l1.203125 0l0 -2.5l1.390625 -0.546875l0 3.046875l1.9375 0l0 0.984375l-1.9375 0l0 4.109375q0 0.6875 0.21875 0.96875q0.234375 0.28125 0.765625 0.28125l1.125 0l0 0.984375l-1.359375 0z" fill-rule="nonzero"></path><path fill="#000000" fill-opacity="0.0" d="m71.98414 305.61926l83.99999 0l0 51.370087l-83.99999 0z" fill-rule="evenodd"></path><path fill="#fcfcfc" d="m90.15335 338.2243l0 -0.984375l1.34375 0l3.046875 -8.53125l-1.171875 0l0 -0.984375l5.125 0l0 0.984375l-1.203125 0l3.125 8.53125l1.265625 0l0 0.984375l-4.265625 0l0 -0.984375l1.390625 0l-1.0625 -3.0625l-3.796875 0l-1.046875 3.0625l1.40625 0l0 0.984375l-4.15625 0zm4.09375 -5.03125l3.203125 0l-1.53125 -4.46875l-0.109375 0l-1.5625 4.46875zm17.592972 4.046875l0 0.984375l-3.9375 0l0 -0.984375l1.21875 0l0 -3.828125q0 -0.765625 -0.375 -1.1875q-0.375 -0.4375 -1.03125 -0.4375q-0.546875 0 -1.09375 0.203125q-0.546875 0.1875 -1.203125 0.578125l0 4.671875l1.328125 0l0 0.984375l-4.109375 0l0 -0.984375l1.421875 0l0 -5.359375l-1.421875 0l0 -0.984375l2.78125 0l0 0.71875q1.453125 -0.90625 2.65625 -0.90625q1.046875 0 1.71875 0.640625q0.6875 0.640625 0.6875 1.796875l0 4.09375l1.359375 0zm9.426529 -6.34375l0 0.984375l-1.234375 0l0 6.515625q0 1.6875 -1.03125 2.5q-1.03125 0.828125 -2.734375 0.828125q-1.3125 0 -2.765625 -0.4375l0.28125 -1.078125q1.421875 0.421875 2.4375 0.421875q1.15625 0 1.78125 -0.53125q0.640625 -0.53125 0.640625 -1.609375l0 -1.015625q-0.515625 0.390625 -1.15625 0.609375q-0.640625 0.203125 -1.28125 0.203125q-1.046875 0 -1.90625 -0.453125q-0.859375 -0.46875 -1.359375 -1.328125q-0.484375 -0.859375 -0.484375 -2.015625q0 -1.1875 0.484375 -2.03125q0.484375 -0.859375 1.328125 -1.296875q0.859375 -0.4375 1.90625 -0.4375q0.625 0 1.296875 0.21875q0.671875 0.203125 1.15625 0.609375l0 -0.65625l2.640625 0zm-7.375 3.6875q0 1.25 0.71875 1.96875q0.734375 0.703125 1.875 0.703125q0.546875 0 1.109375 -0.1875q0.5625 -0.1875 1.046875 -0.546875l-0.015625 -4.03125q-0.53125 -0.34375 -1.140625 -0.546875q-0.609375 -0.21875 -1.15625 -0.21875q-1.09375 0 -1.765625 0.765625q-0.671875 0.75 -0.671875 2.09375zm12.867538 -3.78125q0.71875 0 1.5 0.375l-0.34375 1.25q-0.625 -0.421875 -1.28125 -0.421875q-0.75 0 -1.25 0.609375q-0.484375 0.609375 -0.484375 1.671875l-0.015625 2.953125l1.296875 0l0 0.984375l-4.078125 0l0 -0.984375l1.421875 0l0 -5.359375l-1.421875 0l0 -0.984375l2.78125 0l0 1.34375q0.59375 -1.4375 1.875 -1.4375zm3.7794342 9.265625l0.828125 0q0.53125 0 0.8125 -0.078125q0.28125 -0.0625 0.484375 -0.328125q0.21875 -0.265625 0.40625 -0.828125l0.390625 -1.078125l-0.578125 0l-2.71875 -5.875l-1.359375 0l0 -0.984375l3.84375 0l0 0.984375l-1.09375 0l2.203125 4.984375l1.96875 -4.984375l-1.28125 0l0 -0.984375l3.828125 0l0 0.984375l-1.1875 0l-2.734375 6.765625q-0.40625 1.078125 -0.6875 1.546875q-0.265625 0.46875 -0.765625 0.734375q-0.5 0.265625 -1.421875 0.265625l-0.9375 0l0 -1.125z" fill-rule="nonzero"></path><path fill="#000000" fill-opacity="0.0" d="m379.5171 151.61942l110.55118 0l0 51.370087l-110.55118 0z" fill-rule="evenodd"></path><path fill="#fcfcfc" d="m395.52805 184.22446l0 -0.984375l1.453125 0l0 -8.53125l-1.453125 0l0 -0.984375l8.96875 0l0 3.1875l-1.171875 0l0 -2.203125l-4.8125 0l0 3.53125l3.171875 0l0 -1.140625l0.78125 0l0 3.40625l-0.78125 0l0 -1.203125l-3.171875 0l0 3.9375l1.453125 0l0 0.984375l-4.4375 0zm14.689819 -7.421875q0.71875 0 1.5 0.375l-0.34375 1.25q-0.625 -0.421875 -1.28125 -0.421875q-0.75 0 -1.25 0.609375q-0.484375 0.609375 -0.484375 1.671875l-0.015625 2.953125l1.296875 0l0 0.984375l-4.078125 0l0 -0.984375l1.421875 0l0 -5.359375l-1.421875 0l0 -0.984375l2.78125 0l0 1.34375q0.59375 -1.4375 1.875 -1.4375zm11.201294 6.4375l0 0.984375l-2.6875 0l-0.046875 -0.890625q-1.328125 1.078125 -2.703125 1.078125q-1.21875 0 -1.828125 -0.6875q-0.609375 -0.6875 -0.609375 -1.78125l0 -4.0625l-1.234375 0l0 -0.984375l2.609375 0l0 4.90625q0 0.703125 0.34375 1.109375q0.34375 0.390625 1.046875 0.390625q1.265625 0 2.375 -1.015625l0 -4.40625l-1.3125 0l0 -0.984375l2.6875 0l0 6.34375l1.359375 0zm5.0303345 -3.265625q0.859375 0.203125 1.375 0.4375q0.515625 0.234375 0.828125 0.6875q0.3125 0.4375 0.3125 1.1875q0 1.046875 -0.828125 1.59375q-0.8125 0.53125 -1.96875 0.53125q-0.703125 0 -1.34375 -0.21875q-0.625 -0.234375 -1.0 -0.609375l0 0.640625l-1.078125 0l0 -2.53125l0.96875 0l0.078125 0.796875q0.3125 0.46875 0.90625 0.71875q0.609375 0.25 1.28125 0.25q0.734375 0 1.203125 -0.28125q0.46875 -0.296875 0.46875 -0.78125q0 -0.5625 -0.359375 -0.796875q-0.359375 -0.25 -1.328125 -0.453125l-1.015625 -0.21875q-1.140625 -0.28125 -1.6875 -0.734375q-0.546875 -0.46875 -0.546875 -1.4375q0 -0.953125 0.75 -1.5q0.765625 -0.546875 1.96875 -0.546875q0.578125 0 1.171875 0.1875q0.609375 0.1875 0.96875 0.515625l0 -0.5625l1.09375 0l0 2.53125l-0.96875 0l-0.125 -0.921875q-0.28125 -0.328125 -0.828125 -0.546875q-0.546875 -0.21875 -1.09375 -0.21875q-0.65625 0 -1.109375 0.265625q-0.4375 0.265625 -0.4375 0.765625q0 0.40625 0.3125 0.640625q0.3125 0.21875 1.078125 0.40625l0.953125 0.203125zm1.328125 -1.140625l-0.015625 -0.03125l0.015625 0.03125zm-4.21875 3.1875q0 0.03125 0.015625 0.0625l-0.015625 -0.0625zm9.840759 2.203125q-2.140625 0 -2.140625 -2.171875l0 -4.171875l-1.203125 0l0 -0.984375l1.203125 0l0 -2.5l1.390625 -0.546875l0 3.046875l1.9375 0l0 0.984375l-1.9375 0l0 4.109375q0 0.6875 0.21875 0.96875q0.234375 0.28125 0.765625 0.28125l1.125 0l0 0.984375l-1.359375 0zm7.2092896 -7.421875q0.71875 0 1.5 0.375l-0.34375 1.25q-0.625 -0.421875 -1.28125 -0.421875q-0.75 0 -1.25 0.609375q-0.484375 0.609375 -0.484375 1.671875l-0.015625 2.953125l1.296875 0l0 0.984375l-4.078125 0l0 -0.984375l1.421875 0l0 -5.359375l-1.421875 0l0 -0.984375l2.78125 0l0 1.34375q0.59375 -1.4375 1.875 -1.4375zm10.123169 6.4375l0 0.984375l-2.375 0l-0.078125 -0.65625q-0.59375 0.453125 -1.1875 0.65625q-0.59375 0.203125 -1.34375 0.203125q-1.125 0 -1.828125 -0.625q-0.6875 -0.625 -0.6875 -1.5625q0 -1.1875 0.796875 -1.734375q0.8125 -0.546875 2.140625 -0.546875q0.953125 0 2.03125 0.234375l0 -0.765625q0 -0.84375 -0.453125 -1.265625q-0.453125 -0.4375 -1.28125 -0.4375q-0.53125 0 -1.234375 0.1875q-0.703125 0.171875 -1.28125 0.484375l-0.40625 -0.890625q0.609375 -0.390625 1.421875 -0.59375q0.8125 -0.203125 1.53125 -0.203125q1.421875 0 2.25 0.703125q0.828125 0.6875 0.828125 1.890625l0 3.9375l1.15625 0zm-6.203125 -1.0625q0 0.578125 0.375 0.9375q0.390625 0.359375 1.046875 0.359375q1.09375 0 2.25 -0.796875l0 -1.6875q-0.984375 -0.21875 -1.9375 -0.21875q-0.75 0 -1.25 0.328125q-0.484375 0.328125 -0.484375 1.078125zm10.194763 2.046875q-2.140625 0 -2.140625 -2.171875l0 -4.171875l-1.203125 0l0 -0.984375l1.203125 0l0 -2.5l1.390625 -0.546875l0 3.046875l1.9375 0l0 0.984375l-1.9375 0l0 4.109375q0 0.6875 0.21875 0.96875q0.234375 0.28125 0.765625 0.28125l1.125 0l0 0.984375l-1.359375 0zm9.849915 -3.375l-6.046875 0q0.125 1.171875 0.828125 1.859375q0.71875 0.671875 1.8125 0.671875q1.53125 0 2.78125 -1.171875l0.484375 0.84375q-0.53125 0.625 -1.359375 1.015625q-0.8125 0.375 -1.84375 0.375q-1.15625 0 -2.109375 -0.484375q-0.953125 -0.484375 -1.5 -1.359375q-0.53125 -0.890625 -0.53125 -2.03125q0 -1.15625 0.515625 -2.03125q0.515625 -0.890625 1.390625 -1.359375q0.890625 -0.484375 1.96875 -0.484375q1.6875 0 2.640625 1.03125q0.96875 1.015625 0.96875 2.765625l0 0.359375zm-1.375 -0.859375q0 -1.0625 -0.625 -1.671875q-0.625 -0.625 -1.609375 -0.625q-0.96875 0 -1.640625 0.625q-0.671875 0.609375 -0.796875 1.671875l4.671875 0zm11.163025 3.25l0 0.984375l-2.53125 0l0 -0.515625q-1.03125 0.71875 -2.34375 0.71875q-1.015625 0 -1.875 -0.46875q-0.859375 -0.46875 -1.375 -1.34375q-0.5 -0.890625 -0.5 -2.0625q0 -1.203125 0.484375 -2.078125q0.5 -0.875 1.3125 -1.3125q0.828125 -0.453125 1.8125 -0.453125q0.625 0 1.28125 0.203125q0.65625 0.1875 1.203125 0.5625l0 -2.96875l-1.3125 0l0 -0.96875l2.6875 0l0 9.703125l1.15625 0zm-7.1875 -2.578125q0 1.265625 0.734375 2.0q0.75 0.71875 1.890625 0.71875q1.0625 0 2.03125 -0.671875l0 -4.25q-0.53125 -0.328125 -1.109375 -0.515625q-0.578125 -0.1875 -1.09375 -0.1875q-1.109375 0 -1.78125 0.765625q-0.671875 0.765625 -0.671875 2.140625z" fill-rule="nonzero"></path></g></svg>

