<?xml version="1.0" standalone="yes"?>

<svg version="1.1" viewBox="0.0 0.0 734.01312335958 363.23359580052494" fill="none" stroke="none" stroke-linecap="square" stroke-miterlimit="10" xmlns="http://www.w3.org/2000/svg" xmlns:xlink="http://www.w3.org/1999/xlink"><clipPath id="p.0"><path d="m0 0l734.0131 0l0 363.23358l-734.0131 0l0 -363.23358z" clip-rule="nonzero"></path></clipPath><g clip-path="url(#p.0)"><path fill="#000000" fill-opacity="0.0" d="m0 0l734.0131 0l0 363.23358l-734.0131 0z" fill-rule="evenodd"></path><path fill="#3f3f3f" fill-opacity="0.8" d="m21.653543 37.00815l0 0c0 -7.5407963 6.113022 -13.653818 13.653814 -13.653818l172.09395 0c3.6212158 0 7.094116 1.4385242 9.654709 3.9991112c2.5605774 2.560587 3.9990997 6.0334873 3.9990997 9.654707l0 54.613625c0 7.5407944 -6.113022 13.653816 -13.653809 13.653816l-172.09395 0c-7.5407925 0 -13.653814 -6.113022 -13.653814 -13.653816z" fill-rule="evenodd"></path><path fill="#fcfcfc" d="m85.503784 70.25058l1.453125 0l0 -8.531246l-1.453125 0l0 -0.984375l5.171875 0q1.921875 0 2.921875 0.765625q1.015625 0.765625 1.015625 2.21875q0 1.5468712 -1.03125 2.3593712q-1.03125 0.8125 -2.984375 0.8125l-1.40625 0l0 -0.984375l1.34375 0q1.21875 0 1.859375 -0.5625q0.65625 -0.5625 0.65625 -1.6093712q0 -0.96875 -0.578125 -1.484375q-0.5625 -0.53125 -1.625 -0.53125l-2.359375 0l0 8.531246l1.453125 0l0 0.984375l-4.4375 0l0 -0.984375zm19.081589 0l0 0.984375l-2.6875 0l-0.046875 -0.890625q-1.328125 1.078125 -2.703125 1.078125q-1.21875 0 -1.828125 -0.6875q-0.609375 -0.6875 -0.609375 -1.78125l0 -4.0625l-1.234375 0l0 -0.9843712l2.609375 0l0 4.906246q0 0.703125 0.34375 1.109375q0.34375 0.390625 1.046875 0.390625q1.265625 0 2.375 -1.015625l0 -4.40625l-1.3125 0l0 -0.9843712l2.6875 0l0 6.343746l1.359375 0zm5.905319 -6.531246q1.015625 0 1.828125 0.4374962q0.8125 0.4375 1.265625 1.296875q0.46875 0.84375 0.46875 2.015625q0 1.203125 -0.515625 2.109375q-0.5 0.890625 -1.375 1.375q-0.875 0.46875 -1.90625 0.46875q-1.34375 0 -2.265625 -0.796875l0 0.609375l-2.734375 0l0 -0.984375l1.359375 0l0 -8.734371l-1.328125 0l0 -0.96875l2.703125 0l0 4.015621q0.5625 -0.421875 1.21875 -0.6249962q0.65625 -0.21875 1.28125 -0.21875zm-0.484375 6.671871q1.15625 0 1.875 -0.734375q0.734375 -0.734375 0.734375 -2.078125q0 -1.3125 -0.703125 -2.046875q-0.6875 -0.75 -1.796875 -0.75q-0.515625 0 -1.078125 0.203125q-0.5625 0.203125 -1.046875 0.59375l0 4.078125q0.453125 0.34375 0.984375 0.546875q0.53125 0.1875 1.03125 0.1875zm5.019821 0.84375l0 -0.984375l1.359375 0l0 -8.734371l-1.3125 0l0 -0.96875l2.703125 0l0 9.703121l1.1875 0l0 0.984375l-3.9375 0zm6.6787567 -8.937496q-0.421875 0 -0.71875 -0.265625q-0.28125 -0.28125 -0.28125 -0.6875q0 -0.40625 0.28125 -0.671875q0.296875 -0.28125 0.71875 -0.28125q0.4375 0 0.71875 0.28125q0.296875 0.265625 0.296875 0.671875q0 0.40625 -0.296875 0.6875q-0.28125 0.265625 -0.71875 0.265625zm-1.921875 8.937496l0 -0.984375l1.421875 0l0 -5.359375l-1.40625 0l0 -0.9843712l2.765625 0l0 6.343746l1.328125 0l0 0.984375l-4.109375 0zm9.403091 -4.25q0.859375 0.203125 1.375 0.4375q0.515625 0.234375 0.828125 0.6875q0.3125 0.4375 0.3125 1.1875q0 1.046875 -0.828125 1.59375q-0.8125 0.53125 -1.96875 0.53125q-0.703125 0 -1.34375 -0.21875q-0.625 -0.234375 -1.0 -0.609375l0 0.640625l-1.078125 0l0 -2.53125l0.96875 0l0.078125 0.796875q0.3125 0.46875 0.90625 0.71875q0.609375 0.25 1.28125 0.25q0.734375 0 1.203125 -0.28125q0.46875 -0.296875 0.46875 -0.78125q0 -0.5625 -0.359375 -0.796875q-0.359375 -0.25 -1.328125 -0.453125l-1.015625 -0.21875q-1.140625 -0.28125 -1.6875 -0.734375q-0.546875 -0.46875 -0.546875 -1.4375q0 -0.953125 0.75 -1.5q0.765625 -0.5468712 1.96875 -0.5468712q0.578125 0 1.171875 0.1875q0.609375 0.18749619 0.96875 0.5156212l0 -0.5624962l1.09375 0l0 2.5312462l-0.96875 0l-0.125 -0.921875q-0.28125 -0.328125 -0.828125 -0.546875q-0.546875 -0.21875 -1.09375 -0.21875q-0.65625 0 -1.109375 0.265625q-0.4375 0.265625 -0.4375 0.765625q0 0.40625 0.3125 0.640625q0.3125 0.21875 1.078125 0.40625l0.953125 0.203125zm1.328125 -1.140625l-0.015625 -0.03125l0.015625 0.03125zm-4.21875 3.1875q0 0.03125 0.015625 0.0625l-0.015625 -0.0625zm15.622009 1.21875l0 0.984375l-3.9375 0l0 -0.984375l1.203125 0l0 -3.828125q0 -0.765625 -0.359375 -1.1875q-0.359375 -0.4375 -1.015625 -0.4375q-1.125 0 -2.421875 0.859375l0 4.59375l1.1875 0l0 0.984375l-3.9375 0l0 -0.984375l1.359375 0l0 -8.734371l-1.328125 0l0 -0.96875l2.71875 0l0 4.171871q1.515625 -0.9999962 2.765625 -0.9999962q1.03125 0 1.71875 0.6406212q0.703125 0.640625 0.703125 1.796875l0 4.09375l1.34375 0zm8.173035 -2.390625l-6.046875 0q0.125 1.171875 0.828125 1.859375q0.71875 0.671875 1.8125 0.671875q1.53125 0 2.78125 -1.171875l0.484375 0.84375q-0.53125 0.625 -1.359375 1.015625q-0.8125 0.375 -1.84375 0.375q-1.15625 0 -2.109375 -0.484375q-0.953125 -0.484375 -1.5 -1.359375q-0.53125 -0.890625 -0.53125 -2.03125q0 -1.15625 0.515625 -2.03125q0.515625 -0.890625 1.390625 -1.359375q0.890625 -0.4843712 1.96875 -0.4843712q1.6875 0 2.640625 1.0312462q0.96875 1.015625 0.96875 2.765625l0 0.359375zm-1.375 -0.859375q0 -1.0625 -0.625 -1.671875q-0.625 -0.625 -1.609375 -0.625q-0.96875 0 -1.640625 0.625q-0.671875 0.609375 -0.796875 1.671875l4.671875 0zm7.3349 -3.1874962q0.71875 0 1.5 0.3749962l-0.34375 1.25q-0.625 -0.421875 -1.28125 -0.421875q-0.75 0 -1.25 0.609375q-0.484375 0.609375 -0.484375 1.671875l-0.015625 2.953125l1.296875 0l0 0.984375l-4.0781097 0l0 -0.984375l1.421875 0l0 -5.359375l-1.421875 0l0 -0.9843712l2.7812347 0l0 1.3437462q0.59375 -1.4374962 1.875 -1.4374962z" fill-rule="nonzero"></path><path fill="#fcfcfc" d="m268.29922 37.00815l0 0c0 -7.5407963 6.1130066 -13.653818 13.653809 -13.653818l172.09393 0c3.6212158 0 7.094116 1.4385242 9.654724 3.9991112c2.5605774 2.560587 3.9990845 6.0334873 3.9990845 9.654707l0 54.613625c0 7.5407944 -6.1130066 13.653816 -13.653809 13.653816l-172.09393 0c-7.540802 0 -13.653809 -6.113022 -13.653809 -13.653816z" fill-rule="evenodd"></path><path fill="#3f3f3f" d="m342.73688 70.25058l1.453125 0l0 -8.531246l-1.453125 0l0 -0.984375l5.203125 0q1.75 0 2.671875 0.671875q0.921875 0.65625 0.921875 1.9375q0 0.8593712 -0.4375 1.4531212q-0.421875 0.59375 -1.140625 0.84375q1.046875 0.265625 1.59375 0.96875q0.546875 0.6875 0.546875 1.65625q0 1.265625 -0.921875 2.125q-0.90625 0.84375 -2.84375 0.84375l-5.59375 0l0 -0.984375zm5.109375 -5.046875q2.171875 0 2.171875 -1.7968712q0 -0.921875 -0.59375 -1.296875q-0.578125 -0.390625 -1.921875 -0.390625l-1.78125 0l0 3.4843712l2.125 0zm0.21875 5.046875q2.484375 0 2.484375 -2.03125q0 -0.921875 -0.640625 -1.453125q-0.625 -0.53125 -1.90625 -0.53125l-2.28125 0l0 4.015625l2.34375 0zm10.070648 -6.437496q0.71875 0 1.5 0.3749962l-0.34375 1.25q-0.625 -0.421875 -1.28125 -0.421875q-0.75 0 -1.25 0.609375q-0.484375 0.609375 -0.484375 1.671875l-0.015625 2.953125l1.296875 0l0 0.984375l-4.078125 0l0 -0.984375l1.421875 0l0 -5.359375l-1.421875 0l0 -0.9843712l2.78125 0l0 1.3437462q0.59375 -1.4374962 1.875 -1.4374962zm6.310669 7.640621q-1.171875 0 -2.078125 -0.484375q-0.890625 -0.484375 -1.390625 -1.359375q-0.484375 -0.890625 -0.484375 -2.046875q0 -1.15625 0.484375 -2.03125q0.5 -0.875 1.390625 -1.34375q0.90625 -0.4843712 2.078125 -0.4843712q1.171875 0 2.078125 0.4843712q0.90625 0.46875 1.40625 1.34375q0.5 0.875 0.5 2.015625q0 1.15625 -0.5 2.046875q-0.5 0.890625 -1.40625 1.375q-0.90625 0.484375 -2.078125 0.484375zm0 -1.078125q1.15625 0 1.859375 -0.765625q0.71875 -0.78125 0.71875 -2.0625q0 -1.25 -0.71875 -2.0q-0.703125 -0.765625 -1.859375 -0.765625q-1.15625 0 -1.84375 0.765625q-0.6875 0.765625 -0.6875 2.015625q0 1.265625 0.6875 2.046875q0.703125 0.765625 1.84375 0.765625zm4.942871 0.859375l0 -0.984375l1.375 0l0 -8.734371l-1.34375 0l0 -0.96875l2.734375 0l0 6.765621l3.171875 -2.421875l-1.359375 0l0 -0.9843712l3.890625 0l0 0.9843712l-1.125 0l-3.15625 2.515625l2.859375 2.84375l1.46875 0l0 0.984375l-2.15625 0l-3.59375 -3.59375l0 2.609375l1.1875 0l0 0.984375l-3.953125 0zm16.759583 -3.375l-6.046875 0q0.125 1.171875 0.828125 1.859375q0.71875 0.671875 1.8125 0.671875q1.53125 0 2.78125 -1.171875l0.484375 0.84375q-0.53125 0.625 -1.359375 1.015625q-0.8125 0.375 -1.84375 0.375q-1.15625 0 -2.109375 -0.484375q-0.953125 -0.484375 -1.5 -1.359375q-0.53125 -0.890625 -0.53125 -2.03125q0 -1.15625 0.515625 -2.03125q0.515625 -0.890625 1.390625 -1.359375q0.890625 -0.4843712 1.96875 -0.4843712q1.6875 0 2.640625 1.0312462q0.96875 1.015625 0.96875 2.765625l0 0.359375zm-1.375 -0.859375q0 -1.0625 -0.625 -1.671875q-0.625 -0.625 -1.609375 -0.625q-0.96875 0 -1.640625 0.625q-0.671875 0.609375 -0.796875 1.671875l4.671875 0zm7.3349 -3.1874962q0.71875 0 1.5 0.3749962l-0.34375 1.25q-0.625 -0.421875 -1.28125 -0.421875q-0.75 0 -1.25 0.609375q-0.484375 0.609375 -0.484375 1.671875l-0.015625 2.953125l1.296875 0l0 0.984375l-4.078125 0l0 -0.984375l1.421875 0l0 -5.359375l-1.421875 0l0 -0.9843712l2.78125 0l0 1.3437462q0.59375 -1.4374962 1.875 -1.4374962z" fill-rule="nonzero"></path><path fill="#3f3f3f" fill-opacity="0.8" d="m514.9449 37.00815l0 0c0 -7.5407963 6.113037 -13.653818 13.653809 -13.653818l172.09393 0c3.6212158 0 7.094116 1.4385242 9.654724 3.9991112c2.560608 2.560587 3.9990845 6.0334873 3.9990845 9.654707l0 54.613625c0 7.5407944 -6.112976 13.653816 -13.653809 13.653816l-172.09393 0c-7.5407715 0 -13.653809 -6.113022 -13.653809 -13.653816z" fill-rule="evenodd"></path><path fill="#fcfcfc" d="m578.1961 65.18808q1.9375 0.34375 2.78125 1.03125q0.859375 0.671875 0.859375 2.125q0 0.84375 -0.390625 1.546875q-0.390625 0.6875 -1.15625 1.109375q-0.765625 0.421875 -1.8125 0.421875q-0.96875 0 -1.765625 -0.390625q-0.78125 -0.390625 -1.296875 -1.078125l0 1.28125l-1.203125 0l0 -3.546875l1.109375 0q0.125 1.171875 0.953125 1.921875q0.828125 0.734375 2.15625 0.734375q0.96875 0 1.5 -0.46875q0.546875 -0.46875 0.546875 -1.3125q0 -0.671875 -0.25 -1.046875q-0.234375 -0.390625 -0.765625 -0.59375q-0.53125 -0.21875 -1.515625 -0.390625l-0.453125 -0.078125q-1.59375 -0.25 -2.46875 -1.0q-0.875 -0.765625 -0.875 -2.0468712q0 -1.375 0.890625 -2.125q0.90625 -0.75 2.421875 -0.75q0.84375 0 1.546875 0.296875q0.703125 0.28125 1.125 0.8125l0 -0.90625l1.203125 0l0 2.96875l-1.109375 0q-0.34375 -2.09375 -2.703125 -2.09375q-0.953125 0 -1.484375 0.453125q-0.53125 0.4375 -0.53125 1.1875q0 0.7812462 0.5625 1.2187462q0.5625 0.4375 1.703125 0.640625l0.421875 0.078125zm13.738586 5.0625l0 0.984375l-2.6875 0l-0.046875 -0.890625q-1.328125 1.078125 -2.703125 1.078125q-1.21875 0 -1.828125 -0.6875q-0.609375 -0.6875 -0.609375 -1.78125l0 -4.0625l-1.234375 0l0 -0.9843712l2.609375 0l0 4.906246q0 0.703125 0.34375 1.109375q0.34375 0.390625 1.046875 0.390625q1.265625 0 2.375 -1.015625l0 -4.40625l-1.3125 0l0 -0.9843712l2.6875 0l0 6.343746l1.359375 0zm5.9053345 -6.531246q1.015625 0 1.828125 0.4374962q0.8125 0.4375 1.265625 1.296875q0.46875 0.84375 0.46875 2.015625q0 1.203125 -0.515625 2.109375q-0.5 0.890625 -1.375 1.375q-0.875 0.46875 -1.90625 0.46875q-1.34375 0 -2.265625 -0.796875l0 0.609375l-2.734375 0l0 -0.984375l1.359375 0l0 -8.734371l-1.328125 0l0 -0.96875l2.703125 0l0 4.015621q0.5625 -0.421875 1.21875 -0.6249962q0.65625 -0.21875 1.28125 -0.21875zm-0.484375 6.671871q1.15625 0 1.875 -0.734375q0.734375 -0.734375 0.734375 -2.078125q0 -1.3125 -0.703125 -2.046875q-0.6875 -0.75 -1.796875 -0.75q-0.515625 0 -1.078125 0.203125q-0.5625 0.203125 -1.046875 0.59375l0 4.078125q0.453125 0.34375 0.984375 0.546875q0.53125 0.1875 1.03125 0.1875zm9.347961 -3.40625q0.859375 0.203125 1.375 0.4375q0.515625 0.234375 0.828125 0.6875q0.3125 0.4375 0.3125 1.1875q0 1.046875 -0.828125 1.59375q-0.8125 0.53125 -1.96875 0.53125q-0.703125 0 -1.34375 -0.21875q-0.625 -0.234375 -1.0 -0.609375l0 0.640625l-1.078125 0l0 -2.53125l0.96875 0l0.078125 0.796875q0.3125 0.46875 0.90625 0.71875q0.609375 0.25 1.28125 0.25q0.734375 0 1.203125 -0.28125q0.46875 -0.296875 0.46875 -0.78125q0 -0.5625 -0.359375 -0.796875q-0.359375 -0.25 -1.328125 -0.453125l-1.015625 -0.21875q-1.140625 -0.28125 -1.6875 -0.734375q-0.546875 -0.46875 -0.546875 -1.4375q0 -0.953125 0.75 -1.5q0.765625 -0.5468712 1.96875 -0.5468712q0.578125 0 1.171875 0.1875q0.609375 0.18749619 0.96875 0.5156212l0 -0.5624962l1.09375 0l0 2.5312462l-0.96875 0l-0.125 -0.921875q-0.28125 -0.328125 -0.828125 -0.546875q-0.546875 -0.21875 -1.09375 -0.21875q-0.65625 0 -1.109375 0.265625q-0.4375 0.265625 -0.4375 0.765625q0 0.40625 0.3125 0.640625q0.3125 0.21875 1.078125 0.40625l0.953125 0.203125zm1.328125 -1.140625l-0.015625 -0.03125l0.015625 0.03125zm-4.21875 3.1875q0 0.03125 0.015625 0.0625l-0.015625 -0.0625zm10.762634 -4.25q-1.1875 0 -1.953125 0.765625q-0.765625 0.765625 -0.765625 1.9375q0 1.265625 0.75 2.0625q0.75 0.796875 1.9375 0.796875q0.890625 0 1.5 -0.34375q0.625 -0.34375 1.203125 -1.0l0.578125 0.828125q-0.578125 0.75 -1.4375 1.171875q-0.859375 0.421875 -1.96875 0.421875q-1.15625 0 -2.0625 -0.5q-0.90625 -0.515625 -1.421875 -1.390625q-0.515625 -0.890625 -0.515625 -2.015625q0 -1.109375 0.484375 -1.96875q0.5 -0.875 1.375 -1.359375q0.890625 -0.4843712 1.984375 -0.4843712q0.828125 0 1.453125 0.2968712q0.640625 0.296875 0.96875 0.796875l0 -0.9374962l1.15625 0l0 2.6406212l-1.046875 0q-0.15625 -0.8125 -0.765625 -1.265625q-0.59375 -0.453125 -1.453125 -0.453125zm9.421631 -0.9687462q0.71875 0 1.5 0.3749962l-0.34375 1.25q-0.625 -0.421875 -1.28125 -0.421875q-0.75 0 -1.25 0.609375q-0.484375 0.609375 -0.484375 1.671875l-0.015625 2.953125l1.296875 0l0 0.984375l-4.078125 0l0 -0.984375l1.421875 0l0 -5.359375l-1.421875 0l0 -0.9843712l2.78125 0l0 1.3437462q0.59375 -1.4374962 1.875 -1.4374962zm4.216919 -1.515625q-0.421875 0 -0.71875 -0.265625q-0.28125 -0.28125 -0.28125 -0.6875q0 -0.40625 0.28125 -0.671875q0.296875 -0.28125 0.71875 -0.28125q0.4375 0 0.71875 0.28125q0.296875 0.265625 0.296875 0.671875q0 0.40625 -0.296875 0.6875q-0.28125 0.265625 -0.71875 0.265625zm-1.921875 8.937496l0 -0.984375l1.421875 0l0 -5.359375l-1.40625 0l0 -0.9843712l2.765625 0l0 6.343746l1.328125 0l0 0.984375l-4.109375 0zm10.278137 -7.515621q1.015625 0 1.828125 0.4374962q0.8125 0.4375 1.265625 1.296875q0.46875 0.84375 0.46875 2.015625q0 1.203125 -0.515625 2.109375q-0.5 0.890625 -1.375 1.375q-0.875 0.46875 -1.90625 0.46875q-1.34375 0 -2.265625 -0.796875l0 0.609375l-2.734375 0l0 -0.984375l1.359375 0l0 -8.734371l-1.328125 0l0 -0.96875l2.703125 0l0 4.015621q0.5625 -0.421875 1.21875 -0.6249962q0.65625 -0.21875 1.28125 -0.21875zm-0.484375 6.671871q1.15625 0 1.875 -0.734375q0.734375 -0.734375 0.734375 -2.078125q0 -1.3125 -0.703125 -2.046875q-0.6875 -0.75 -1.796875 -0.75q-0.515625 0 -1.078125 0.203125q-0.5625 0.203125 -1.046875 0.59375l0 4.078125q0.453125 0.34375 0.984375 0.546875q0.53125 0.1875 1.03125 0.1875zm12.4729 -2.53125l-6.046875 0q0.125 1.171875 0.828125 1.859375q0.71875 0.671875 1.8125 0.671875q1.53125 0 2.78125 -1.171875l0.484375 0.84375q-0.53125 0.625 -1.359375 1.015625q-0.8125 0.375 -1.84375 0.375q-1.15625 0 -2.109375 -0.484375q-0.953125 -0.484375 -1.5 -1.359375q-0.53125 -0.890625 -0.53125 -2.03125q0 -1.15625 0.515625 -2.03125q0.515625 -0.890625 1.390625 -1.359375q0.890625 -0.4843712 1.96875 -0.4843712q1.6875 0 2.640625 1.0312462q0.96875 1.015625 0.96875 2.765625l0 0.359375zm-1.375 -0.859375q0 -1.0625 -0.625 -1.671875q-0.625 -0.625 -1.609375 -0.625q-0.96875 0 -1.640625 0.625q-0.671875 0.609375 -0.796875 1.671875l4.671875 0zm7.334961 -3.1874962q0.71875 0 1.5 0.3749962l-0.34375 1.25q-0.625 -0.421875 -1.28125 -0.421875q-0.75 0 -1.25 0.609375q-0.484375 0.609375 -0.484375 1.671875l-0.015625 2.953125l1.296875 0l0 0.984375l-4.078125 0l0 -0.984375l1.421875 0l0 -5.359375l-1.421875 0l0 -0.9843712l2.78125 0l0 1.3437462q0.59375 -1.4374962 1.875 -1.4374962z" fill-rule="nonzero"></path><path fill="#000000" fill-opacity="0.0" d="m121.35433 107.8875l0 231.27559" fill-rule="evenodd"></path><path stroke="#5effa9" stroke-width="1.0" stroke-linejoin="round" stroke-linecap="butt" d="m121.35433 107.8875l0 231.27559" fill-rule="evenodd"></path><path fill="#000000" fill-opacity="0.0" d="m614.6457 107.8869l0 231.2756" fill-rule="evenodd"></path><path stroke="#5effa9" stroke-width="1.0" stroke-linejoin="round" stroke-linecap="butt" d="m614.6457 107.8869l0 231.2756" fill-rule="evenodd"></path><path fill="#000000" fill-opacity="0.0" d="m368.0 107.8875l0 231.27559" fill-rule="evenodd"></path><path stroke="#5effa9" stroke-width="1.0" stroke-linejoin="round" stroke-linecap="butt" d="m368.0 107.8875l0 231.27559" fill-rule="evenodd"></path><path fill="#000000" fill-opacity="0.0" d="m162.80315 191.74803l163.74803 0l0 48.503937l-163.74803 0z" fill-rule="evenodd"></path><path fill="#fcfcfc" d="m178.53055 222.44928l0 -13.640625l1.53125 0l0 1.28125q0.53125 -0.75 1.203125 -1.125q0.6875 -0.375 1.640625 -0.375q1.265625 0 2.234375 0.65625q0.96875 0.640625 1.453125 1.828125q0.5 1.1875 0.5 2.59375q0 1.515625 -0.546875 2.734375q-0.546875 1.203125 -1.578125 1.84375q-1.03125 0.640625 -2.171875 0.640625q-0.84375 0 -1.515625 -0.34375q-0.65625 -0.359375 -1.078125 -0.890625l0 4.796875l-1.671875 0zm1.515625 -8.65625q0 1.90625 0.765625 2.8125q0.78125 0.90625 1.875 0.90625q1.109375 0 1.890625 -0.9375q0.796875 -0.9375 0.796875 -2.921875q0 -1.875 -0.78125 -2.8125q-0.765625 -0.9375 -1.84375 -0.9375q-1.0625 0 -1.890625 1.0q-0.8125 1.0 -0.8125 2.890625zm15.313217 4.875l0 -1.453125q-1.140625 1.671875 -3.125 1.671875q-0.859375 0 -1.625 -0.328125q-0.75 -0.34375 -1.125 -0.84375q-0.359375 -0.5 -0.515625 -1.234375q-0.09375 -0.5 -0.09375 -1.5625l0 -6.109375l1.671875 0l0 5.46875q0 1.3125 0.09375 1.765625q0.15625 0.65625 0.671875 1.03125q0.515625 0.375 1.265625 0.375q0.75 0 1.40625 -0.375q0.65625 -0.390625 0.921875 -1.046875q0.28125 -0.671875 0.28125 -1.9375l0 -5.28125l1.671875 0l0 9.859375l-1.5 0zm5.469467 0l-1.546875 0l0 -13.59375l1.65625 0l0 4.84375q1.0625 -1.328125 2.703125 -1.328125q0.90625 0 1.71875 0.375q0.8125 0.359375 1.328125 1.03125q0.53125 0.65625 0.828125 1.59375q0.296875 0.9375 0.296875 2.0q0 2.53125 -1.25 3.921875q-1.25 1.375 -3.0 1.375q-1.75 0 -2.734375 -1.453125l0 1.234375zm-0.015625 -5.0q0 1.765625 0.46875 2.5625q0.796875 1.28125 2.140625 1.28125q1.09375 0 1.890625 -0.9375q0.796875 -0.953125 0.796875 -2.84375q0 -1.921875 -0.765625 -2.84375q-0.765625 -0.921875 -1.84375 -0.921875q-1.09375 0 -1.890625 0.953125q-0.796875 0.953125 -0.796875 2.75zm12.031967 9.0q-1.375 -1.75 -2.328125 -4.078125q-0.953125 -2.34375 -0.953125 -4.84375q0 -2.21875 0.703125 -4.234375q0.84375 -2.34375 2.578125 -4.671875l1.203125 0q-1.125 1.921875 -1.484375 2.75q-0.5625 1.28125 -0.890625 2.671875q-0.40625 1.734375 -0.40625 3.484375q0 4.46875 2.78125 8.921875l-1.203125 0z" fill-rule="nonzero"></path><path fill="#5effa9" d="m220.49538 208.80865l0 2.078125l-1.78125 0l0 3.984375q0 1.203125 0.046875 1.40625q0.0625 0.1875 0.234375 0.328125q0.1875 0.125 0.453125 0.125q0.359375 0 1.046875 -0.25l0.21875 2.015625q-0.90625 0.390625 -2.0625 0.390625q-0.703125 0 -1.265625 -0.234375q-0.5625 -0.234375 -0.828125 -0.609375q-0.265625 -0.375 -0.375 -1.015625q-0.078125 -0.453125 -0.078125 -1.84375l0 -4.296875l-1.203125 0l0 -2.078125l1.203125 0l0 -1.953125l2.609375 -1.515625l0 3.46875l1.78125 0zm1.103302 4.796875q0 -1.296875 0.640625 -2.515625q0.640625 -1.21875 1.8125 -1.859375q1.171875 -0.640625 2.609375 -0.640625q2.25 0 3.671875 1.453125q1.421875 1.453125 1.421875 3.671875q0 2.234375 -1.4375 3.703125q-1.4375 1.46875 -3.625 1.46875q-1.359375 0 -2.59375 -0.609375q-1.21875 -0.609375 -1.859375 -1.796875q-0.640625 -1.1875 -0.640625 -2.875zm2.671875 0.140625q0 1.46875 0.6875 2.25q0.703125 0.765625 1.71875 0.765625q1.015625 0 1.703125 -0.765625q0.703125 -0.78125 0.703125 -2.265625q0 -1.453125 -0.703125 -2.234375q-0.6875 -0.78125 -1.703125 -0.78125q-1.015625 0 -1.71875 0.78125q-0.6875 0.78125 -0.6875 2.25zm9.255356 -4.9375l2.421875 0l0 1.453125q0.46875 -0.734375 1.28125 -1.203125q0.8125 -0.46875 1.796875 -0.46875q1.703125 0 2.90625 1.34375q1.203125 1.34375 1.203125 3.75q0 2.46875 -1.21875 3.84375q-1.203125 1.359375 -2.921875 1.359375q-0.8125 0 -1.484375 -0.3125q-0.65625 -0.328125 -1.390625 -1.125l0 4.96875l-2.59375 0l0 -13.609375zm2.578125 4.765625q0 1.65625 0.65625 2.453125q0.65625 0.796875 1.59375 0.796875q0.921875 0 1.515625 -0.71875q0.609375 -0.734375 0.609375 -2.40625q0 -1.546875 -0.625 -2.296875q-0.625 -0.75 -1.53125 -0.75q-0.96875 0 -1.59375 0.734375q-0.625 0.734375 -0.625 2.1875zm8.880356 -6.09375l0 -2.40625l2.609375 0l0 2.40625l-2.609375 0zm0 11.1875l0 -9.859375l2.609375 0l0 9.859375l-2.609375 0zm13.777054 -6.9375l-2.5625 0.46875q-0.140625 -0.78125 -0.59375 -1.171875q-0.453125 -0.390625 -1.1875 -0.390625q-0.984375 0 -1.5625 0.671875q-0.578125 0.671875 -0.578125 2.25q0 1.765625 0.578125 2.484375q0.59375 0.71875 1.59375 0.71875q0.75 0 1.21875 -0.421875q0.46875 -0.421875 0.671875 -1.453125l2.546875 0.4375q-0.390625 1.765625 -1.53125 2.671875q-1.125 0.890625 -3.03125 0.890625q-2.15625 0 -3.453125 -1.359375q-1.28125 -1.359375 -1.28125 -3.78125q0 -2.4375 1.296875 -3.796875q1.296875 -1.359375 3.484375 -1.359375q1.796875 0 2.859375 0.78125q1.0625 0.765625 1.53125 2.359375z" fill-rule="nonzero"></path><path fill="#fcfcfc" d="m260.87155 218.66803l0 -1.90625l1.90625 0l0 1.90625q0 1.046875 -0.375 1.6875q-0.375 0.65625 -1.171875 1.0l-0.46875 -0.71875q0.53125 -0.21875 0.78125 -0.671875q0.25 -0.453125 0.28125 -1.296875l-0.953125 0zm16.319733 0l0 -1.25q-0.9375 1.46875 -2.75 1.46875q-1.171875 0 -2.171875 -0.640625q-0.984375 -0.65625 -1.53125 -1.8125q-0.53125 -1.171875 -0.53125 -2.6875q0 -1.46875 0.484375 -2.671875q0.5 -1.203125 1.46875 -1.84375q0.984375 -0.640625 2.203125 -0.640625q0.890625 0 1.578125 0.375q0.703125 0.375 1.140625 0.984375l0 -4.875l1.65625 0l0 13.59375l-1.546875 0zm-5.28125 -4.921875q0 1.890625 0.796875 2.828125q0.8125 0.9375 1.890625 0.9375q1.09375 0 1.859375 -0.890625q0.765625 -0.890625 0.765625 -2.734375q0 -2.015625 -0.78125 -2.953125q-0.78125 -0.953125 -1.921875 -0.953125q-1.109375 0 -1.859375 0.90625q-0.75 0.90625 -0.75 2.859375zm15.703827 3.703125q-0.9375 0.796875 -1.796875 1.125q-0.859375 0.3125 -1.84375 0.3125q-1.609375 0 -2.484375 -0.78125q-0.875 -0.796875 -0.875 -2.03125q0 -0.734375 0.328125 -1.328125q0.328125 -0.59375 0.859375 -0.953125q0.53125 -0.359375 1.203125 -0.546875q0.5 -0.140625 1.484375 -0.25q2.03125 -0.25 2.984375 -0.578125q0 -0.34375 0 -0.4375q0 -1.015625 -0.46875 -1.4375q-0.640625 -0.5625 -1.90625 -0.5625q-1.171875 0 -1.734375 0.40625q-0.5625 0.40625 -0.828125 1.46875l-1.640625 -0.234375q0.234375 -1.046875 0.734375 -1.6875q0.515625 -0.640625 1.46875 -0.984375q0.96875 -0.359375 2.25 -0.359375q1.265625 0 2.046875 0.296875q0.78125 0.296875 1.15625 0.75q0.375 0.453125 0.515625 1.140625q0.09375 0.421875 0.09375 1.53125l0 2.234375q0 2.328125 0.09375 2.953125q0.109375 0.609375 0.4375 1.171875l-1.75 0q-0.265625 -0.515625 -0.328125 -1.21875zm-0.140625 -3.71875q-0.90625 0.359375 -2.734375 0.625q-1.03125 0.140625 -1.453125 0.328125q-0.421875 0.1875 -0.65625 0.546875q-0.234375 0.359375 -0.234375 0.796875q0 0.671875 0.5 1.125q0.515625 0.4375 1.484375 0.4375q0.96875 0 1.71875 -0.421875q0.75 -0.4375 1.109375 -1.15625q0.265625 -0.578125 0.265625 -1.671875l0 -0.609375zm7.7351074 3.4375l0.234375 1.484375q-0.703125 0.140625 -1.265625 0.140625q-0.90625 0 -1.40625 -0.28125q-0.5 -0.296875 -0.703125 -0.75q-0.203125 -0.46875 -0.203125 -1.984375l0 -5.65625l-1.234375 0l0 -1.3125l1.234375 0l0 -2.4375l1.65625 -1.0l0 3.4375l1.6875 0l0 1.3125l-1.6875 0l0 5.75q0 0.71875 0.078125 0.921875q0.09375 0.203125 0.296875 0.328125q0.203125 0.125 0.578125 0.125q0.265625 0 0.734375 -0.078125zm7.9645386 0.28125q-0.9375 0.796875 -1.796875 1.125q-0.859375 0.3125 -1.84375 0.3125q-1.609375 0 -2.484375 -0.78125q-0.875 -0.796875 -0.875 -2.03125q0 -0.734375 0.328125 -1.328125q0.328125 -0.59375 0.859375 -0.953125q0.53125 -0.359375 1.203125 -0.546875q0.5 -0.140625 1.484375 -0.25q2.03125 -0.25 2.984375 -0.578125q0 -0.34375 0 -0.4375q0 -1.015625 -0.46875 -1.4375q-0.640625 -0.5625 -1.90625 -0.5625q-1.171875 0 -1.734375 0.40625q-0.5625 0.40625 -0.828125 1.46875l-1.640625 -0.234375q0.234375 -1.046875 0.734375 -1.6875q0.515625 -0.640625 1.46875 -0.984375q0.96875 -0.359375 2.25 -0.359375q1.265625 0 2.046875 0.296875q0.78125 0.296875 1.15625 0.75q0.375 0.453125 0.515625 1.140625q0.09375 0.421875 0.09375 1.53125l0 2.234375q0 2.328125 0.09375 2.953125q0.109375 0.609375 0.4375 1.171875l-1.75 0q-0.265625 -0.515625 -0.328125 -1.21875zm-0.140625 -3.71875q-0.90625 0.359375 -2.734375 0.625q-1.03125 0.140625 -1.453125 0.328125q-0.421875 0.1875 -0.65625 0.546875q-0.234375 0.359375 -0.234375 0.796875q0 0.671875 0.5 1.125q0.515625 0.4375 1.484375 0.4375q0.96875 0 1.71875 -0.421875q0.75 -0.4375 1.109375 -1.15625q0.265625 -0.578125 0.265625 -1.671875l0 -0.609375zm5.1726074 8.9375l-1.1875 0q2.765625 -4.453125 2.765625 -8.921875q0 -1.734375 -0.390625 -3.453125q-0.328125 -1.390625 -0.890625 -2.671875q-0.359375 -0.84375 -1.484375 -2.78125l1.1875 0q1.75 2.328125 2.578125 4.671875q0.71875 2.015625 0.71875 4.234375q0 2.5 -0.96875 4.84375q-0.953125 2.328125 -2.328125 4.078125z" fill-rule="nonzero"></path><path fill="#000000" fill-opacity="0.0" d="m409.44882 230.0105l163.74802 0l0 48.503937l-163.74802 0z" fill-rule="evenodd"></path><path fill="#fcfcfc" d="m425.1762 260.71176l0 -13.64064l1.53125 0l0 1.28125q0.53125 -0.75 1.203125 -1.125q0.6875 -0.375 1.640625 -0.375q1.265625 0 2.234375 0.65625q0.96875 0.640625 1.453125 1.828125q0.5 1.1875 0.5 2.59375q0 1.515625 -0.546875 2.734375q-0.546875 1.203125 -1.578125 1.8437653q-1.03125 0.640625 -2.171875 0.640625q-0.84375 0 -1.515625 -0.34375q-0.65625 -0.359375 -1.078125 -0.89064026l0 4.7968903l-1.671875 0zm1.515625 -8.656265q0 1.90625 0.765625 2.8125q0.78125 0.90625 1.875 0.90625q1.109375 0 1.890625 -0.9375q0.796875 -0.9375 0.796875 -2.921875q0 -1.875 -0.78125 -2.8125q-0.765625 -0.9375 -1.84375 -0.9375q-1.0625 0 -1.890625 1.0q-0.8125 1.0 -0.8125 2.890625zm15.313232 4.8750153l0 -1.4531403q-1.140625 1.6718903 -3.125 1.6718903q-0.859375 0 -1.625 -0.328125q-0.75 -0.34375 -1.125 -0.84376526q-0.359375 -0.5 -0.515625 -1.234375q-0.09375 -0.5 -0.09375 -1.5625l0 -6.109375l1.671875 0l0 5.46875q0 1.3125 0.09375 1.765625q0.15625 0.65625 0.671875 1.03125q0.515625 0.375 1.265625 0.375q0.75 0 1.40625 -0.375q0.65625 -0.390625 0.921875 -1.046875q0.28125 -0.671875 0.28125 -1.9375l0 -5.28125l1.671875 0l0 9.85939l-1.5 0zm5.469452 0l-1.546875 0l0 -13.593765l1.65625 0l0 4.84375q1.0625 -1.328125 2.703125 -1.328125q0.90625 0 1.71875 0.375q0.8125 0.359375 1.328125 1.03125q0.53125 0.65625 0.828125 1.59375q0.296875 0.9375 0.296875 2.0q0 2.53125 -1.25 3.921875q-1.25 1.3750153 -3.0 1.3750153q-1.75 0 -2.734375 -1.4531403l0 1.2343903zm-0.015625 -5.0000153q0 1.765625 0.46875 2.5625q0.796875 1.28125 2.140625 1.28125q1.09375 0 1.890625 -0.9375q0.796875 -0.953125 0.796875 -2.84375q0 -1.921875 -0.765625 -2.84375q-0.765625 -0.921875 -1.84375 -0.921875q-1.09375 0 -1.890625 0.953125q-0.796875 0.953125 -0.796875 2.75zm12.031982 9.000015q-1.375 -1.75 -2.328125 -4.078125q-0.953125 -2.3437653 -0.953125 -4.8437653q0 -2.21875 0.703125 -4.234375q0.84375 -2.34375 2.578125 -4.671875l1.203125 0q-1.125 1.921875 -1.484375 2.75q-0.5625 1.28125 -0.890625 2.671875q-0.40625 1.734375 -0.40625 3.484375q0 4.4687653 2.78125 8.92189l-1.203125 0z" fill-rule="nonzero"></path><path fill="#5effa9" d="m467.14105 247.07112l0 2.078125l-1.78125 0l0 3.984375q0 1.203125 0.046875 1.40625q0.0625 0.1875 0.234375 0.328125q0.1875 0.125 0.453125 0.125q0.359375 0 1.046875 -0.25l0.21875 2.0156403q-0.90625 0.390625 -2.0625 0.390625q-0.703125 0 -1.265625 -0.234375q-0.5625 -0.234375 -0.828125 -0.609375q-0.265625 -0.37501526 -0.375 -1.0156403q-0.078125 -0.453125 -0.078125 -1.84375l0 -4.296875l-1.203125 0l0 -2.078125l1.203125 0l0 -1.953125l2.609375 -1.515625l0 3.46875l1.78125 0zm1.103302 4.796875q0 -1.296875 0.640625 -2.515625q0.640625 -1.21875 1.8125 -1.859375q1.171875 -0.640625 2.609375 -0.640625q2.25 0 3.671875 1.453125q1.421875 1.453125 1.421875 3.671875q0 2.234375 -1.4375 3.703125q-1.4375 1.4687653 -3.625 1.4687653q-1.359375 0 -2.59375 -0.609375q-1.21875 -0.60939026 -1.859375 -1.7968903q-0.640625 -1.1875 -0.640625 -2.875zm2.671875 0.140625q0 1.46875 0.6875 2.25q0.703125 0.765625 1.71875 0.765625q1.015625 0 1.703125 -0.765625q0.703125 -0.78125 0.703125 -2.265625q0 -1.453125 -0.703125 -2.234375q-0.6875 -0.78125 -1.703125 -0.78125q-1.015625 0 -1.71875 0.78125q-0.6875 0.78125 -0.6875 2.25zm9.255341 -4.9375l2.421875 0l0 1.453125q0.46875 -0.734375 1.28125 -1.203125q0.8125 -0.46875 1.796875 -0.46875q1.703125 0 2.90625 1.34375q1.203125 1.34375 1.203125 3.75q0 2.46875 -1.21875 3.84375q-1.203125 1.3593903 -2.921875 1.3593903q-0.8125 0 -1.484375 -0.3125q-0.65625 -0.328125 -1.390625 -1.1250153l0 4.9687653l-2.59375 0l0 -13.60939zm2.578125 4.765625q0 1.65625 0.65625 2.453125q0.65625 0.796875 1.59375 0.796875q0.921875 0 1.515625 -0.71875q0.609375 -0.734375 0.609375 -2.40625q0 -1.546875 -0.625 -2.296875q-0.625 -0.75 -1.53125 -0.75q-0.96875 0 -1.59375 0.734375q-0.625 0.734375 -0.625 2.1875zm8.880371 -6.09375l0 -2.40625l2.609375 0l0 2.40625l-2.609375 0zm0 11.187515l0 -9.85939l2.609375 0l0 9.85939l-2.609375 0zm13.777039 -6.9375153l-2.5625 0.46875q-0.140625 -0.78125 -0.59375 -1.171875q-0.453125 -0.390625 -1.1875 -0.390625q-0.984375 0 -1.5625 0.671875q-0.578125 0.671875 -0.578125 2.25q0 1.765625 0.578125 2.484375q0.59375 0.71875 1.59375 0.71875q0.75 0 1.21875 -0.421875q0.46875 -0.421875 0.671875 -1.453125l2.546875 0.4375q-0.390625 1.765625 -1.53125 2.6718903q-1.125 0.890625 -3.03125 0.890625q-2.15625 0 -3.453125 -1.3593903q-1.28125 -1.359375 -1.28125 -3.78125q0 -2.4375 1.296875 -3.796875q1.296875 -1.359375 3.484375 -1.359375q1.796875 0 2.859375 0.78125q1.0625 0.765625 1.53125 2.359375z" fill-rule="nonzero"></path><path fill="#fcfcfc" d="m507.5172 256.9305l0 -1.9062653l1.90625 0l0 1.9062653q0 1.046875 -0.375 1.6875q-0.375 0.65625 -1.171875 1.0l-0.46875 -0.71875q0.53125 -0.21875 0.78125 -0.671875q0.25 -0.453125 0.28125 -1.296875l-0.953125 0zm16.319702 0l0 -1.2500153q-0.9375 1.4687653 -2.75 1.4687653q-1.171875 0 -2.171875 -0.640625q-0.984375 -0.65626526 -1.53125 -1.8125153q-0.53125 -1.171875 -0.53125 -2.6875q0 -1.46875 0.484375 -2.671875q0.5 -1.203125 1.46875 -1.84375q0.984375 -0.640625 2.203125 -0.640625q0.890625 0 1.578125 0.375q0.703125 0.375 1.140625 0.984375l0 -4.875l1.65625 0l0 13.593765l-1.546875 0zm-5.28125 -4.9218903q0 1.890625 0.796875 2.828125q0.8125 0.9375 1.890625 0.9375q1.09375 0 1.859375 -0.890625q0.765625 -0.890625 0.765625 -2.734375q0 -2.015625 -0.78125 -2.953125q-0.78125 -0.953125 -1.921875 -0.953125q-1.109375 0 -1.859375 0.90625q-0.75 0.90625 -0.75 2.859375zm15.703857 3.703125q-0.9375 0.79689026 -1.796875 1.1250153q-0.859375 0.3125 -1.84375 0.3125q-1.609375 0 -2.484375 -0.78125q-0.875 -0.79689026 -0.875 -2.0312653q0 -0.734375 0.328125 -1.328125q0.328125 -0.59375 0.859375 -0.953125q0.53125 -0.359375 1.203125 -0.546875q0.5 -0.140625 1.484375 -0.25q2.03125 -0.25 2.984375 -0.578125q0 -0.34375 0 -0.4375q0 -1.015625 -0.46875 -1.4375q-0.640625 -0.5625 -1.90625 -0.5625q-1.171875 0 -1.734375 0.40625q-0.5625 0.40625 -0.828125 1.46875l-1.640625 -0.234375q0.234375 -1.046875 0.734375 -1.6875q0.515625 -0.640625 1.46875 -0.984375q0.96875 -0.359375 2.25 -0.359375q1.265625 0 2.046875 0.296875q0.78125 0.296875 1.15625 0.75q0.375 0.453125 0.515625 1.140625q0.09375 0.421875 0.09375 1.53125l0 2.234375q0 2.328125 0.09375 2.953125q0.109375 0.60939026 0.4375 1.1718903l-1.75 0q-0.265625 -0.515625 -0.328125 -1.2187653zm-0.140625 -3.71875q-0.90625 0.359375 -2.734375 0.625q-1.03125 0.140625 -1.453125 0.328125q-0.421875 0.1875 -0.65625 0.546875q-0.234375 0.359375 -0.234375 0.796875q0 0.671875 0.5 1.125q0.515625 0.4375 1.484375 0.4375q0.96875 0 1.71875 -0.421875q0.75 -0.4375 1.109375 -1.15625q0.265625 -0.578125 0.265625 -1.671875l0 -0.609375zm7.7351074 3.4375l0.234375 1.4843903q-0.703125 0.140625 -1.265625 0.140625q-0.90625 0 -1.40625 -0.28125q-0.5 -0.296875 -0.703125 -0.75q-0.203125 -0.46876526 -0.203125 -1.9843903l0 -5.65625l-1.234375 0l0 -1.3125l1.234375 0l0 -2.4375l1.65625 -1.0l0 3.4375l1.6875 0l0 1.3125l-1.6875 0l0 5.75q0 0.71875 0.078125 0.921875q0.09375 0.203125 0.296875 0.328125q0.203125 0.125 0.578125 0.125q0.265625 0 0.734375 -0.078125zm7.9645386 0.28125q-0.9375 0.79689026 -1.796875 1.1250153q-0.859375 0.3125 -1.84375 0.3125q-1.609375 0 -2.484375 -0.78125q-0.875 -0.79689026 -0.875 -2.0312653q0 -0.734375 0.328125 -1.328125q0.328125 -0.59375 0.859375 -0.953125q0.53125 -0.359375 1.203125 -0.546875q0.5 -0.140625 1.484375 -0.25q2.03125 -0.25 2.984375 -0.578125q0 -0.34375 0 -0.4375q0 -1.015625 -0.46875 -1.4375q-0.640625 -0.5625 -1.90625 -0.5625q-1.171875 0 -1.734375 0.40625q-0.5625 0.40625 -0.828125 1.46875l-1.640625 -0.234375q0.234375 -1.046875 0.734375 -1.6875q0.515625 -0.640625 1.46875 -0.984375q0.96875 -0.359375 2.25 -0.359375q1.265625 0 2.046875 0.296875q0.78125 0.296875 1.15625 0.75q0.375 0.453125 0.515625 1.140625q0.09375 0.421875 0.09375 1.53125l0 2.234375q0 2.328125 0.09375 2.953125q0.109375 0.60939026 0.4375 1.1718903l-1.75 0q-0.265625 -0.515625 -0.328125 -1.2187653zm-0.140625 -3.71875q-0.90625 0.359375 -2.734375 0.625q-1.03125 0.140625 -1.453125 0.328125q-0.421875 0.1875 -0.65625 0.546875q-0.234375 0.359375 -0.234375 0.796875q0 0.671875 0.5 1.125q0.515625 0.4375 1.484375 0.4375q0.96875 0 1.71875 -0.421875q0.75 -0.4375 1.109375 -1.15625q0.265625 -0.578125 0.265625 -1.671875l0 -0.609375zm5.1726074 8.937515l-1.1875 0q2.765625 -4.453125 2.765625 -8.92189q0 -1.734375 -0.390625 -3.453125q-0.328125 -1.390625 -0.890625 -2.671875q-0.359375 -0.84375 -1.484375 -2.78125l1.1875 0q1.75 2.328125 2.578125 4.671875q0.71875 2.015625 0.71875 4.234375q0 2.5 -0.96875 4.8437653q-0.953125 2.328125 -2.328125 4.078125z" fill-rule="nonzero"></path><path fill="#000000" fill-opacity="0.0" d="m409.44882 131.39108l163.74802 0l0 48.503937l-163.74802 0z" fill-rule="evenodd"></path><path fill="#fcfcfc" d="m425.02814 155.37358l1.65625 -0.265625q0.140625 1.0 0.765625 1.53125q0.640625 0.515625 1.78125 0.515625q1.15625 0 1.703125 -0.46875q0.5625 -0.46875 0.5625 -1.09375q0 -0.5625 -0.484375 -0.890625q-0.34375 -0.21875 -1.703125 -0.5625q-1.84375 -0.46875 -2.5625 -0.796875q-0.703125 -0.34375 -1.078125 -0.9375q-0.359375 -0.609375 -0.359375 -1.328125q0 -0.65625 0.296875 -1.21875q0.3125 -0.5625 0.828125 -0.9375q0.390625 -0.28125 1.0625 -0.484375q0.671875 -0.203125 1.4375 -0.203125q1.171875 0 2.046875 0.34375q0.875 0.328125 1.28125 0.90625q0.421875 0.5625 0.578125 1.515625l-1.625 0.21875q-0.109375 -0.75 -0.65625 -1.171875q-0.53125 -0.4375 -1.5 -0.4375q-1.15625 0 -1.640625 0.390625q-0.484375 0.375 -0.484375 0.875q0 0.328125 0.203125 0.59375q0.203125 0.265625 0.640625 0.4375q0.25 0.09375 1.46875 0.4375q1.765625 0.46875 2.46875 0.765625q0.703125 0.296875 1.09375 0.875q0.40625 0.578125 0.40625 1.4375q0 0.828125 -0.484375 1.578125q-0.484375 0.734375 -1.40625 1.140625q-0.921875 0.390625 -2.078125 0.390625q-1.921875 0 -2.9375 -0.796875q-1.0 -0.796875 -1.28125 -2.359375zm16.453125 2.9375l0 -1.453125q-1.140625 1.671875 -3.125 1.671875q-0.859375 0 -1.625 -0.328125q-0.75 -0.34375 -1.125 -0.84375q-0.359375 -0.5 -0.515625 -1.234375q-0.09375 -0.5 -0.09375 -1.5625l0 -6.109375l1.671875 0l0 5.46875q0 1.3125 0.09375 1.765625q0.15625 0.65625 0.671875 1.03125q0.515625 0.375 1.265625 0.375q0.75 0 1.40625 -0.375q0.65625 -0.390625 0.921875 -1.046875q0.28125 -0.671875 0.28125 -1.9375l0 -5.28125l1.671875 0l0 9.859375l-1.5 0zm5.4694824 0l-1.546875 0l0 -13.59375l1.65625 0l0 4.84375q1.0625 -1.328125 2.703125 -1.328125q0.90625 0 1.71875 0.375q0.8125 0.359375 1.328125 1.03125q0.53125 0.65625 0.828125 1.59375q0.296875 0.9375 0.296875 2.0q0 2.53125 -1.25 3.921875q-1.25 1.375 -3.0 1.375q-1.75 0 -2.734375 -1.453125l0 1.234375zm-0.015625 -5.0q0 1.765625 0.46875 2.5625q0.796875 1.28125 2.140625 1.28125q1.09375 0 1.890625 -0.9375q0.796875 -0.953125 0.796875 -2.84375q0 -1.921875 -0.765625 -2.84375q-0.765625 -0.921875 -1.84375 -0.921875q-1.09375 0 -1.890625 0.953125q-0.796875 0.953125 -0.796875 2.75zm12.031952 9.0q-1.375 -1.75 -2.328125 -4.078125q-0.953125 -2.34375 -0.953125 -4.84375q0 -2.21875 0.703125 -4.234375q0.84375 -2.34375 2.578125 -4.671875l1.203125 0q-1.125 1.921875 -1.484375 2.75q-0.5625 1.28125 -0.890625 2.671875q-0.40625 1.734375 -0.40625 3.484375q0 4.46875 2.78125 8.921875l-1.203125 0z" fill-rule="nonzero"></path><path fill="#5effa9" d="m466.61725 148.4517l0 2.078125l-1.78125 0l0 3.984375q0 1.203125 0.046875 1.40625q0.0625 0.1875 0.234375 0.328125q0.1875 0.125 0.453125 0.125q0.359375 0 1.046875 -0.25l0.21875 2.015625q-0.90625 0.390625 -2.0625 0.390625q-0.703125 0 -1.265625 -0.234375q-0.5625 -0.234375 -0.828125 -0.609375q-0.265625 -0.375 -0.375 -1.015625q-0.078125 -0.453125 -0.078125 -1.84375l0 -4.296875l-1.203125 0l0 -2.078125l1.203125 0l0 -1.953125l2.609375 -1.515625l0 3.46875l1.78125 0zm1.103302 4.796875q0 -1.296875 0.640625 -2.515625q0.640625 -1.21875 1.8125 -1.859375q1.171875 -0.640625 2.609375 -0.640625q2.25 0 3.671875 1.453125q1.421875 1.453125 1.421875 3.671875q0 2.234375 -1.4375 3.703125q-1.4375 1.46875 -3.625 1.46875q-1.359375 0 -2.59375 -0.609375q-1.21875 -0.609375 -1.859375 -1.796875q-0.640625 -1.1875 -0.640625 -2.875zm2.671875 0.140625q0 1.46875 0.6875 2.25q0.703125 0.765625 1.71875 0.765625q1.015625 0 1.703125 -0.765625q0.703125 -0.78125 0.703125 -2.265625q0 -1.453125 -0.703125 -2.234375q-0.6875 -0.78125 -1.703125 -0.78125q-1.015625 0 -1.71875 0.78125q-0.6875 0.78125 -0.6875 2.25zm9.255371 -4.9375l2.421875 0l0 1.453125q0.46875 -0.734375 1.28125 -1.203125q0.8125 -0.46875 1.796875 -0.46875q1.703125 0 2.90625 1.34375q1.203125 1.34375 1.203125 3.75q0 2.46875 -1.21875 3.84375q-1.203125 1.359375 -2.921875 1.359375q-0.8125 0 -1.484375 -0.3125q-0.65625 -0.328125 -1.390625 -1.125l0 4.96875l-2.59375 0l0 -13.609375zm2.578125 4.765625q0 1.65625 0.65625 2.453125q0.65625 0.796875 1.59375 0.796875q0.921875 0 1.515625 -0.71875q0.609375 -0.734375 0.609375 -2.40625q0 -1.546875 -0.625 -2.296875q-0.625 -0.75 -1.53125 -0.75q-0.96875 0 -1.59375 0.734375q-0.625 0.734375 -0.625 2.1875zm8.880341 -6.09375l0 -2.40625l2.609375 0l0 2.40625l-2.609375 0zm0 11.1875l0 -9.859375l2.609375 0l0 9.859375l-2.609375 0zm13.777069 -6.9375l-2.5625 0.46875q-0.140625 -0.78125 -0.59375 -1.171875q-0.453125 -0.390625 -1.1875 -0.390625q-0.984375 0 -1.5625 0.671875q-0.578125 0.671875 -0.578125 2.25q0 1.765625 0.578125 2.484375q0.59375 0.71875 1.59375 0.71875q0.75 0 1.21875 -0.421875q0.46875 -0.421875 0.671875 -1.453125l2.546875 0.4375q-0.390625 1.765625 -1.53125 2.671875q-1.125 0.890625 -3.03125 0.890625q-2.15625 0 -3.453125 -1.359375q-1.28125 -1.359375 -1.28125 -3.78125q0 -2.4375 1.296875 -3.796875q1.296875 -1.359375 3.484375 -1.359375q1.796875 0 2.859375 0.78125q1.0625 0.765625 1.53125 2.359375z" fill-rule="nonzero"></path><path fill="#fcfcfc" d="m506.9934 158.31108l0 -1.90625l1.90625 0l0 1.90625q0 1.046875 -0.375 1.6875q-0.375 0.65625 -1.171875 1.0l-0.46875 -0.71875q0.53125 -0.21875 0.78125 -0.671875q0.25 -0.453125 0.28125 -1.296875l-0.953125 0zm16.319763 0l0 -1.25q-0.9375 1.46875 -2.75 1.46875q-1.171875 0 -2.171875 -0.640625q-0.984375 -0.65625 -1.53125 -1.8125q-0.53125 -1.171875 -0.53125 -2.6875q0 -1.46875 0.484375 -2.671875q0.5 -1.203125 1.46875 -1.84375q0.984375 -0.640625 2.203125 -0.640625q0.890625 0 1.578125 0.375q0.703125 0.375 1.140625 0.984375l0 -4.875l1.65625 0l0 13.59375l-1.546875 0zm-5.28125 -4.921875q0 1.890625 0.796875 2.828125q0.8125 0.9375 1.890625 0.9375q1.09375 0 1.859375 -0.890625q0.765625 -0.890625 0.765625 -2.734375q0 -2.015625 -0.78125 -2.953125q-0.78125 -0.953125 -1.921875 -0.953125q-1.109375 0 -1.859375 0.90625q-0.75 0.90625 -0.75 2.859375zm15.703796 3.703125q-0.9375 0.796875 -1.796875 1.125q-0.859375 0.3125 -1.84375 0.3125q-1.609375 0 -2.484375 -0.78125q-0.875 -0.796875 -0.875 -2.03125q0 -0.734375 0.328125 -1.328125q0.328125 -0.59375 0.859375 -0.953125q0.53125 -0.359375 1.203125 -0.546875q0.5 -0.140625 1.484375 -0.25q2.03125 -0.25 2.984375 -0.578125q0 -0.34375 0 -0.4375q0 -1.015625 -0.46875 -1.4375q-0.640625 -0.5625 -1.90625 -0.5625q-1.171875 0 -1.734375 0.40625q-0.5625 0.40625 -0.828125 1.46875l-1.640625 -0.234375q0.234375 -1.046875 0.734375 -1.6875q0.515625 -0.640625 1.46875 -0.984375q0.96875 -0.359375 2.25 -0.359375q1.265625 0 2.046875 0.296875q0.78125 0.296875 1.15625 0.75q0.375 0.453125 0.515625 1.140625q0.09375 0.421875 0.09375 1.53125l0 2.234375q0 2.328125 0.09375 2.953125q0.109375 0.609375 0.4375 1.171875l-1.75 0q-0.265625 -0.515625 -0.328125 -1.21875zm-0.140625 -3.71875q-0.90625 0.359375 -2.734375 0.625q-1.03125 0.140625 -1.453125 0.328125q-0.421875 0.1875 -0.65625 0.546875q-0.234375 0.359375 -0.234375 0.796875q0 0.671875 0.5 1.125q0.515625 0.4375 1.484375 0.4375q0.96875 0 1.71875 -0.421875q0.75 -0.4375 1.109375 -1.15625q0.265625 -0.578125 0.265625 -1.671875l0 -0.609375zm7.7351074 3.4375l0.234375 1.484375q-0.703125 0.140625 -1.265625 0.140625q-0.90625 0 -1.40625 -0.28125q-0.5 -0.296875 -0.703125 -0.75q-0.203125 -0.46875 -0.203125 -1.984375l0 -5.65625l-1.234375 0l0 -1.3125l1.234375 0l0 -2.4375l1.65625 -1.0l0 3.4375l1.6875 0l0 1.3125l-1.6875 0l0 5.75q0 0.71875 0.078125 0.921875q0.09375 0.203125 0.296875 0.328125q0.203125 0.125 0.578125 0.125q0.265625 0 0.734375 -0.078125zm7.9645386 0.28125q-0.9375 0.796875 -1.796875 1.125q-0.859375 0.3125 -1.84375 0.3125q-1.609375 0 -2.484375 -0.78125q-0.875 -0.796875 -0.875 -2.03125q0 -0.734375 0.328125 -1.328125q0.328125 -0.59375 0.859375 -0.953125q0.53125 -0.359375 1.203125 -0.546875q0.5 -0.140625 1.484375 -0.25q2.03125 -0.25 2.984375 -0.578125q0 -0.34375 0 -0.4375q0 -1.015625 -0.46875 -1.4375q-0.640625 -0.5625 -1.90625 -0.5625q-1.171875 0 -1.734375 0.40625q-0.5625 0.40625 -0.828125 1.46875l-1.640625 -0.234375q0.234375 -1.046875 0.734375 -1.6875q0.515625 -0.640625 1.46875 -0.984375q0.96875 -0.359375 2.25 -0.359375q1.265625 0 2.046875 0.296875q0.78125 0.296875 1.15625 0.75q0.375 0.453125 0.515625 1.140625q0.09375 0.421875 0.09375 1.53125l0 2.234375q0 2.328125 0.09375 2.953125q0.109375 0.609375 0.4375 1.171875l-1.75 0q-0.265625 -0.515625 -0.328125 -1.21875zm-0.140625 -3.71875q-0.90625 0.359375 -2.734375 0.625q-1.03125 0.140625 -1.453125 0.328125q-0.421875 0.1875 -0.65625 0.546875q-0.234375 0.359375 -0.234375 0.796875q0 0.671875 0.5 1.125q0.515625 0.4375 1.484375 0.4375q0.96875 0 1.71875 -0.421875q0.75 -0.4375 1.109375 -1.15625q0.265625 -0.578125 0.265625 -1.671875l0 -0.609375zm5.1726074 8.9375l-1.1875 0q2.765625 -4.453125 2.765625 -8.921875q0 -1.734375 -0.390625 -3.453125q-0.328125 -1.390625 -0.890625 -2.671875q-0.359375 -0.84375 -1.484375 -2.78125l1.1875 0q1.75 2.328125 2.578125 4.671875q0.71875 2.015625 0.71875 4.234375q0 2.5 -0.96875 4.84375q-0.953125 2.328125 -2.328125 4.078125z" fill-rule="nonzero"></path><path fill="#000000" fill-opacity="0.0" d="m603.6877 168.5748l-220.94492 0" fill-rule="evenodd"></path><path stroke="#5effa9" stroke-width="1.0" stroke-linejoin="round" stroke-linecap="butt" d="m603.6877 168.5748l-214.94492 0" fill-rule="evenodd"></path><path fill="#5effa9" stroke="#5effa9" stroke-width="1.0" stroke-linecap="butt" d="m388.74277 166.92307l-4.538086 1.6517334l4.538086 1.6517334z" fill-rule="evenodd"></path><path fill="#000000" fill-opacity="0.0" d="m601.7953 278.51443l-220.94489 0" fill-rule="evenodd"></path><path stroke="#5effa9" stroke-width="1.0" stroke-linejoin="round" stroke-linecap="butt" d="m595.7953 278.51443l-214.94489 0" fill-rule="evenodd"></path><path fill="#5effa9" stroke="#5effa9" stroke-width="1.0" stroke-linecap="butt" d="m595.7953 280.16617l4.538086 -1.6517334l-4.538086 -1.6517334z" fill-rule="evenodd"></path><path fill="#000000" fill-opacity="0.0" d="m355.1496 230.0105l-220.94487 0" fill-rule="evenodd"></path><path stroke="#5effa9" stroke-width="1.0" stroke-linejoin="round" stroke-linecap="butt" d="m349.1496 230.0105l-214.94487 0" fill-rule="evenodd"></path><path fill="#5effa9" stroke="#5effa9" stroke-width="1.0" stroke-linecap="butt" d="m349.1496 231.66223l4.5381165 -1.6517334l-4.5381165 -1.6517334z" fill-rule="evenodd"></path></g></svg>

